<?xml version="1.0" encoding="utf-8"?>
<!-- Generator: Adobe Illustrator 22.0.1, SVG Export Plug-In . SVG Version: 6.00 Build 0)  -->
<svg version="1.1" id="Layer_1" xmlns="http://www.w3.org/2000/svg" xmlns:xlink="http://www.w3.org/1999/xlink" x="0px" y="0px"
	 viewBox="0 0 900 204.9" style="enable-background:new 0 0 900 204.9;" xml:space="preserve">

<path class="st0" d="M0,5.8h130.4c39.1,0,66.7,21.5,66.7,52.5c0,15.5-8.1,28.4-21.3,35.9v0.6c17.7,8.6,28.9,25.1,28.9,44.7
	c0,40.3-27.7,59.7-84.8,59.7H0V5.8z M120,79.5c13.1,0,19.7-5.2,19.7-14.9c0-9.5-6.6-14.4-19.7-14.4H59.3v29.3H120z M124.9,154.8
	c15.9,0,22.8-5.5,22.8-17.8c0-11.5-7.5-17.8-22.8-17.8H59.1v35.6H124.9z M224.4,124.6V5.8h59.2v113.5c0,26,14.1,38.4,41.5,38.4
	c27.1,0,41.2-12.4,41.2-38.4V5.8h59.2v118.8c0,50.5-37.9,80.4-100.4,80.4C261.6,204.9,224.4,175.4,224.4,124.6z M445.7,102.5
	C445.7,41.7,493.2,0,559.6,0c51.1,0,92.3,26.2,101.6,66.8l-54.4,14.6c-6.6-21.3-22.2-34.2-47.2-34.2c-33.1,0-54.7,21.5-54.7,55.2
	s21.6,55.2,54.7,55.2c25,0,41.5-12.7,48.7-38.1l55.6,12.7c-10.2,46.4-52,72.6-104.3,72.6C493.2,204.9,445.7,163.2,445.7,102.5z
	 M685,5.8h59.2v77.9h0.6l77-77.9h77L814.3,90L900,199.1h-74.9l-50.5-72.4H774l-29.8,29.6v42.8H685V5.8z"/>
</svg>
