<?xml version="1.0" standalone="no"?>
<!DOCTYPE svg PUBLIC "-//W3C//DTD SVG 1.1//EN" "http://www.w3.org/Graphics/SVG/1.1/DTD/svg11.dtd" >
<svg xmlns="http://www.w3.org/2000/svg" xmlns:xlink="http://www.w3.org/1999/xlink" version="1.1">
<metadata>
Created by FontForge 20190801 at Thu Mar  5 15:53:54 2020
 By Unknown
Copyright (c) 2015 by Colophon Foundry. All rights reserved.
</metadata>
<defs>
<font id="BasisGrotesque-Bold" horiz-adv-x="0" >
  <font-face 
    font-family="Basis Grotesque"
    font-weight="700"
    font-stretch="normal"
    units-per-em="1000"
    panose-1="2 11 8 3 3 6 4 4 1 3"
    ascent="800"
    descent="-200"
    x-height="496"
    cap-height="700"
    bbox="-742 -314 1118 934"
    underline-thickness="50"
    underline-position="-100"
    unicode-range="U+000D-FB02"
  />
<missing-glyph horiz-adv-x="586" 
d="M60 700h466v-700h-466v700zM464 664h-342l171 -280zM272 350l-176 288v-576zM490 638l-176 -288l176 -288v576zM464 36l-171 280l-171 -280h342z" />
    <glyph glyph-name="f_i" unicode="fi" horiz-adv-x="592" 
d="M91 394h-72v102h72v70q0 89 48.5 136.5t127.5 47.5q34 0 63 -11l-22 -111q-18 6 -35 6q-27 0 -41.5 -17t-14.5 -48v-73h313v-496h-126v394h-187v-394h-126v394zM398 700h138v-132h-138v132z" />
    <glyph glyph-name="f_l" unicode="fl" horiz-adv-x="594" 
d="M91 394h-72v102h72v70q0 89 48.5 136.5t127.5 47.5q34 0 63 -11l-22 -111q-18 6 -35 6q-27 0 -41.5 -17t-14.5 -48v-73h108v-102h-108v-394h-126v394zM405 700h126v-700h-126v700z" />
    <glyph glyph-name=".notdef" horiz-adv-x="586" 
d="M60 700h466v-700h-466v700zM464 664h-342l171 -280zM272 350l-176 288v-576zM490 638l-176 -288l176 -288v576zM464 36l-171 280l-171 -280h342z" />
    <glyph glyph-name="nonmarkingreturn" unicode="&#xd;" horiz-adv-x="289" 
 />
    <glyph glyph-name="space" unicode=" " horiz-adv-x="276" 
 />
    <glyph glyph-name="A" unicode="A" horiz-adv-x="702" 
d="M288 700h126l283 -700h-141l-70 183h-270l-70 -183h-141zM441 301l-64 168q-14 36 -26 76q-12 -40 -26 -76l-64 -168h180z" />
    <glyph glyph-name="Aacute" unicode="&#xc1;" horiz-adv-x="702" 
d="M288 700h126l283 -700h-141l-70 183h-270l-70 -183h-141zM441 301l-64 168q-14 36 -26 76q-12 -40 -26 -76l-64 -168h180zM359 912h153l-124 -158h-97z" />
    <glyph glyph-name="Abreve" unicode="&#x102;" horiz-adv-x="702" 
d="M288 700h126l283 -700h-141l-70 183h-270l-70 -183h-141zM441 301l-64 168q-14 36 -26 76q-12 -40 -26 -76l-64 -168h180zM268.5 800q-31.5 32 -31.5 81h76q0 -19 10 -31t28 -12t28 12t10 31h76q0 -49 -31.5 -81t-82.5 -32t-82.5 32z" />
    <glyph glyph-name="Acircumflex" unicode="&#xc2;" horiz-adv-x="702" 
d="M288 700h126l283 -700h-141l-70 183h-270l-70 -183h-141zM441 301l-64 168q-14 36 -26 76q-12 -40 -26 -76l-64 -168h180zM306 911h90l113 -157h-99l-59 60l-59 -60h-99z" />
    <glyph glyph-name="Adieresis" unicode="&#xc4;" horiz-adv-x="702" 
d="M288 700h126l283 -700h-141l-70 183h-270l-70 -183h-141zM441 301l-64 168q-14 36 -26 76q-12 -40 -26 -76l-64 -168h180zM202 904h118v-124h-118v124zM382 904h118v-124h-118v124z" />
    <glyph glyph-name="Agrave" unicode="&#xc0;" horiz-adv-x="702" 
d="M288 700h126l283 -700h-141l-70 183h-270l-70 -183h-141zM441 301l-64 168q-14 36 -26 76q-12 -40 -26 -76l-64 -168h180zM190 912h153l68 -158h-97z" />
    <glyph glyph-name="Amacron" unicode="&#x100;" horiz-adv-x="702" 
d="M288 700h126l283 -700h-141l-70 183h-270l-70 -183h-141zM441 301l-64 168q-14 36 -26 76q-12 -40 -26 -76l-64 -168h180zM227 886h248v-94h-248v94z" />
    <glyph glyph-name="Aogonek" unicode="&#x104;" horiz-adv-x="702" 
d="M699 -191q-26 -7 -60 -7q-45 0 -79.5 25t-34.5 69q0 61 59 104h-28l-70 183h-270l-70 -183h-141l283 700h126l283 -700q-32 -18 -52 -38t-20 -40q0 -18 11.5 -28t29.5 -10q9 0 22 2zM441 301l-64 168q-14 36 -26 76q-12 -40 -26 -76l-64 -168h180z" />
    <glyph glyph-name="Aring" unicode="&#xc5;" horiz-adv-x="702" 
d="M288 700h126l283 -700h-141l-70 183h-270l-70 -183h-141zM441 301l-64 168q-14 36 -26 76q-12 -40 -26 -76l-64 -168h180zM284 771.5q-28 27.5 -28 67.5t28 67.5t68 27.5t68 -27.5t28 -67.5t-28 -67.5t-68 -27.5t-68 27.5zM376 814q9 9 9 25t-9 25t-24 9t-24 -9t-9 -25
t9 -25t24 -9t24 9z" />
    <glyph glyph-name="Atilde" unicode="&#xc3;" horiz-adv-x="702" 
d="M288 700h126l283 -700h-141l-70 183h-270l-70 -183h-141zM441 301l-64 168q-14 36 -26 76q-12 -40 -26 -76l-64 -168h180zM372 765q-22 11 -47 31q-14 12 -24.5 18t-22.5 6q-10 0 -16.5 -6t-6.5 -16q0 -12 7 -26l-74 -15q-6 9 -10 24t-4 29q0 43 30 67t68 24q36 0 58 -11
t47 -31q14 -12 24.5 -18t22.5 -6q10 0 16.5 6t6.5 16q0 12 -7 26l74 15q6 -9 10 -24t4 -29q0 -43 -30 -67t-68 -24q-36 0 -58 11z" />
    <glyph glyph-name="AE" unicode="&#xc6;" horiz-adv-x="986" 
d="M325 700h602v-118h-351v-161h323v-118h-323v-185h354v-118h-486v183h-220l-81 -183h-138zM444 301v281h-43l-125 -281h168z" />
    <glyph glyph-name="AEacute" unicode="&#x1fc;" horiz-adv-x="986" 
d="M325 700h602v-118h-351v-161h323v-118h-323v-185h354v-118h-486v183h-220l-81 -183h-138zM444 301v281h-43l-125 -281h168zM609 912h153l-124 -158h-97z" />
    <glyph glyph-name="B" unicode="B" horiz-adv-x="661" 
d="M74 700h288q107 0 165.5 -45t58.5 -126q0 -51 -27.5 -89.5t-69.5 -59.5q126 -50 126 -170q0 -64 -33.5 -111.5t-90 -73t-124.5 -25.5h-293v700zM352 428q55 0 80.5 19t25.5 59t-25.5 59t-80.5 19h-146v-156h146zM359 118q124 0 124 97t-124 97h-153v-194h153z" />
    <glyph glyph-name="C" unicode="C" horiz-adv-x="768" 
d="M220.5 31.5q-81.5 45.5 -128 128.5t-46.5 190t47.5 189.5t130.5 128.5t185 46q107 0 189 -50.5t118 -132.5l-107 -77q-32 68 -82 103t-122 35q-62 0 -113.5 -30t-81.5 -85t-30 -127q0 -70 30 -125.5t81.5 -86t113.5 -30.5q68 0 121.5 35.5t90.5 104.5l103 -74
q-44 -67 -88 -107.5t-98.5 -60.5t-129.5 -20q-102 0 -183.5 45.5z" />
    <glyph glyph-name="Cacute" unicode="&#x106;" horiz-adv-x="768" 
d="M220.5 31.5q-81.5 45.5 -128 128.5t-46.5 190t47.5 189.5t130.5 128.5t185 46q107 0 189 -50.5t118 -132.5l-107 -77q-32 68 -82 103t-122 35q-62 0 -113.5 -30t-81.5 -85t-30 -127q0 -70 30 -125.5t81.5 -86t113.5 -30.5q68 0 121.5 35.5t90.5 104.5l103 -74
q-44 -67 -88 -107.5t-98.5 -60.5t-129.5 -20q-102 0 -183.5 45.5zM411 912h153l-124 -158h-97z" />
    <glyph glyph-name="Ccaron" unicode="&#x10c;" horiz-adv-x="768" 
d="M220.5 31.5q-81.5 45.5 -128 128.5t-46.5 190t47.5 189.5t130.5 128.5t185 46q107 0 189 -50.5t118 -132.5l-107 -77q-32 68 -82 103t-122 35q-62 0 -113.5 -30t-81.5 -85t-30 -127q0 -70 30 -125.5t81.5 -86t113.5 -30.5q68 0 121.5 35.5t90.5 104.5l103 -74
q-44 -67 -88 -107.5t-98.5 -60.5t-129.5 -20q-102 0 -183.5 45.5zM245 911h99l59 -60l59 60h99l-113 -157h-90z" />
    <glyph glyph-name="Ccedilla" unicode="&#xc7;" horiz-adv-x="768" 
d="M403 -14l-23 -39q17 9 40 9q35 0 56.5 -22t21.5 -56q0 -38 -27.5 -60t-67.5 -22q-38 0 -62.5 16t-31.5 45l66 17q4 -22 28 -22q11 0 18 6.5t7 18.5q0 14 -7.5 21.5t-20.5 7.5q-14 0 -24 -4.5t-21 -13.5l-37 33l24 70q-87 13 -154 61t-104.5 125t-37.5 173
q0 107 47.5 189.5t130.5 128.5t185 46q107 0 189 -50.5t118 -132.5l-107 -77q-32 68 -82 103t-122 35q-62 0 -113.5 -30t-81.5 -85t-30 -127q0 -70 30 -125.5t81.5 -86t113.5 -30.5q68 0 121.5 35.5t90.5 104.5l103 -74q-44 -67 -88 -107.5t-98.5 -60.5t-129.5 -20h-1z" />
    <glyph glyph-name="Ccircumflex" unicode="&#x108;" horiz-adv-x="768" 
d="M220.5 31.5q-81.5 45.5 -128 128.5t-46.5 190t47.5 189.5t130.5 128.5t185 46q107 0 189 -50.5t118 -132.5l-107 -77q-32 68 -82 103t-122 35q-62 0 -113.5 -30t-81.5 -85t-30 -127q0 -70 30 -125.5t81.5 -86t113.5 -30.5q68 0 121.5 35.5t90.5 104.5l103 -74
q-44 -67 -88 -107.5t-98.5 -60.5t-129.5 -20q-102 0 -183.5 45.5zM358 911h90l113 -157h-99l-59 60l-59 -60h-99z" />
    <glyph glyph-name="Cdotaccent" unicode="&#x10a;" horiz-adv-x="768" 
d="M220.5 31.5q-81.5 45.5 -128 128.5t-46.5 190t47.5 189.5t130.5 128.5t185 46q107 0 189 -50.5t118 -132.5l-107 -77q-32 68 -82 103t-122 35q-62 0 -113.5 -30t-81.5 -85t-30 -127q0 -70 30 -125.5t81.5 -86t113.5 -30.5q68 0 121.5 35.5t90.5 104.5l103 -74
q-44 -67 -88 -107.5t-98.5 -60.5t-129.5 -20q-102 0 -183.5 45.5zM334 904h138v-132h-138v132z" />
    <glyph glyph-name="D" unicode="D" horiz-adv-x="712" 
d="M74 700h211q112 0 198 -39t134.5 -118t48.5 -193t-48.5 -193t-134.5 -118t-198 -39h-211v700zM294 122q110 0 174 58.5t64 169.5t-64 169.5t-174 58.5h-88v-456h88z" />
    <glyph glyph-name="Eth" unicode="&#xd0;" horiz-adv-x="749" 
d="M111 295h-78v110h78v295h211q112 0 198 -39t134.5 -118t48.5 -193t-48.5 -193t-134.5 -118t-198 -39h-211v295zM331 122q110 0 174 58.5t64 169.5t-64 169.5t-174 58.5h-88v-173h155v-110h-155v-173h88z" />
    <glyph glyph-name="Dcaron" unicode="&#x10e;" horiz-adv-x="712" 
d="M74 700h211q112 0 198 -39t134.5 -118t48.5 -193t-48.5 -193t-134.5 -118t-198 -39h-211v700zM294 122q110 0 174 58.5t64 169.5t-64 169.5t-174 58.5h-88v-456h88zM109 911h99l59 -60l59 60h99l-113 -157h-90z" />
    <glyph glyph-name="Dcroat" unicode="&#x110;" horiz-adv-x="749" 
d="M111 295h-78v110h78v295h211q112 0 198 -39t134.5 -118t48.5 -193t-48.5 -193t-134.5 -118t-198 -39h-211v295zM331 122q110 0 174 58.5t64 169.5t-64 169.5t-174 58.5h-88v-173h155v-110h-155v-173h88z" />
    <glyph glyph-name="E" unicode="E" horiz-adv-x="616" 
d="M74 700h483v-118h-351v-161h323v-118h-323v-185h354v-118h-486v700z" />
    <glyph glyph-name="Eacute" unicode="&#xc9;" horiz-adv-x="616" 
d="M74 700h483v-118h-351v-161h323v-118h-323v-185h354v-118h-486v700zM332 912h153l-124 -158h-97z" />
    <glyph glyph-name="Ebreve" unicode="&#x114;" horiz-adv-x="616" 
d="M74 700h483v-118h-351v-161h323v-118h-323v-185h354v-118h-486v700zM241.5 800q-31.5 32 -31.5 81h76q0 -19 10 -31t28 -12t28 12t10 31h76q0 -49 -31.5 -81t-82.5 -32t-82.5 32z" />
    <glyph glyph-name="Ecaron" unicode="&#x11a;" horiz-adv-x="616" 
d="M74 700h483v-118h-351v-161h323v-118h-323v-185h354v-118h-486v700zM166 911h99l59 -60l59 60h99l-113 -157h-90z" />
    <glyph glyph-name="Ecircumflex" unicode="&#xca;" horiz-adv-x="616" 
d="M74 700h483v-118h-351v-161h323v-118h-323v-185h354v-118h-486v700zM279 911h90l113 -157h-99l-59 60l-59 -60h-99z" />
    <glyph glyph-name="Edieresis" unicode="&#xcb;" horiz-adv-x="616" 
d="M74 700h483v-118h-351v-161h323v-118h-323v-185h354v-118h-486v700zM175 904h118v-124h-118v124zM355 904h118v-124h-118v124z" />
    <glyph glyph-name="Edotaccent" unicode="&#x116;" horiz-adv-x="616" 
d="M74 700h483v-118h-351v-161h323v-118h-323v-185h354v-118h-486v700zM255 904h138v-132h-138v132z" />
    <glyph glyph-name="Egrave" unicode="&#xc8;" horiz-adv-x="616" 
d="M74 700h483v-118h-351v-161h323v-118h-323v-185h354v-118h-486v700zM163 912h153l68 -158h-97z" />
    <glyph glyph-name="Emacron" unicode="&#x112;" horiz-adv-x="616" 
d="M74 700h483v-118h-351v-161h323v-118h-323v-185h354v-118h-486v700zM200 886h248v-94h-248v94z" />
    <glyph glyph-name="Eogonek" unicode="&#x118;" horiz-adv-x="616" 
d="M562 -191q-26 -7 -60 -7q-45 0 -79.5 25t-34.5 69q0 61 59 104h-373v700h483v-118h-351v-161h323v-118h-323v-185h354v-118q-32 -18 -52 -38t-20 -40q0 -18 11.5 -28t29.5 -10q9 0 22 2z" />
    <glyph glyph-name="F" unicode="F" horiz-adv-x="618" 
d="M74 700h494v-118h-362v-181h332v-118h-332v-283h-132v700z" />
    <glyph glyph-name="G" unicode="G" horiz-adv-x="780" 
d="M217 32.5q-79 46.5 -125 130t-46 187.5t48.5 187t132 130t182.5 47q103 0 184.5 -46.5t121.5 -124.5l-99 -72q-32 62 -86 94.5t-123 32.5q-62 0 -114 -30.5t-82.5 -87t-30.5 -130.5q0 -70 28 -125.5t77.5 -86t111.5 -30.5q85 0 133 44.5t59 113.5h-226v108h358v-374h-87
l-28 96q-33 -51 -86 -80.5t-127 -29.5q-97 0 -176 46.5z" />
    <glyph glyph-name="Gbreve" unicode="&#x11e;" horiz-adv-x="780" 
d="M217 32.5q-79 46.5 -125 130t-46 187.5t48.5 187t132 130t182.5 47q103 0 184.5 -46.5t121.5 -124.5l-99 -72q-32 62 -86 94.5t-123 32.5q-62 0 -114 -30.5t-82.5 -87t-30.5 -130.5q0 -70 28 -125.5t77.5 -86t111.5 -30.5q85 0 133 44.5t59 113.5h-226v108h358v-374h-87
l-28 96q-33 -51 -86 -80.5t-127 -29.5q-97 0 -176 46.5zM326.5 800q-31.5 32 -31.5 81h76q0 -19 10 -31t28 -12t28 12t10 31h76q0 -49 -31.5 -81t-82.5 -32t-82.5 32z" />
    <glyph glyph-name="Gcircumflex" unicode="&#x11c;" horiz-adv-x="780" 
d="M217 32.5q-79 46.5 -125 130t-46 187.5t48.5 187t132 130t182.5 47q103 0 184.5 -46.5t121.5 -124.5l-99 -72q-32 62 -86 94.5t-123 32.5q-62 0 -114 -30.5t-82.5 -87t-30.5 -130.5q0 -70 28 -125.5t77.5 -86t111.5 -30.5q85 0 133 44.5t59 113.5h-226v108h358v-374h-87
l-28 96q-33 -51 -86 -80.5t-127 -29.5q-97 0 -176 46.5zM364 911h90l113 -157h-99l-59 60l-59 -60h-99z" />
    <glyph glyph-name="uni0122" unicode="&#x122;" horiz-adv-x="780" 
d="M217 32.5q-79 46.5 -125 130t-46 187.5t48.5 187t132 130t182.5 47q103 0 184.5 -46.5t121.5 -124.5l-99 -72q-32 62 -86 94.5t-123 32.5q-62 0 -114 -30.5t-82.5 -87t-30.5 -130.5q0 -70 28 -125.5t77.5 -86t111.5 -30.5q85 0 133 44.5t59 113.5h-226v108h358v-374h-87
l-28 96q-33 -51 -86 -80.5t-127 -29.5q-97 0 -176 46.5zM337 -303l37 121h-44v122h126v-122l-90 -132z" />
    <glyph glyph-name="Gdotaccent" unicode="&#x120;" horiz-adv-x="780" 
d="M217 32.5q-79 46.5 -125 130t-46 187.5t48.5 187t132 130t182.5 47q103 0 184.5 -46.5t121.5 -124.5l-99 -72q-32 62 -86 94.5t-123 32.5q-62 0 -114 -30.5t-82.5 -87t-30.5 -130.5q0 -70 28 -125.5t77.5 -86t111.5 -30.5q85 0 133 44.5t59 113.5h-226v108h358v-374h-87
l-28 96q-33 -51 -86 -80.5t-127 -29.5q-97 0 -176 46.5zM340 904h138v-132h-138v132z" />
    <glyph glyph-name="H" unicode="H" horiz-adv-x="718" 
d="M74 700h132v-282h306v282h132v-700h-132v296h-306v-296h-132v700z" />
    <glyph glyph-name="Hbar" unicode="&#x126;" horiz-adv-x="718" 
d="M730 484h-86v-484h-132v296h-306v-296h-132v484h-86v94h86v122h132v-122h306v122h132v-122h86v-94zM512 484h-306v-66h306v66z" />
    <glyph glyph-name="Hcircumflex" unicode="&#x124;" horiz-adv-x="718" 
d="M74 700h132v-282h306v282h132v-700h-132v296h-306v-296h-132v700zM314 911h90l113 -157h-99l-59 60l-59 -60h-99z" />
    <glyph glyph-name="I" unicode="I" horiz-adv-x="280" 
d="M74 700h132v-700h-132v700z" />
    <glyph glyph-name="IJ" unicode="&#x132;" horiz-adv-x="816" 
d="M74 700h132v-700h-132v700zM363.5 48.5q-60.5 62.5 -60.5 175.5l132 -14q1 -51 24.5 -76.5t72.5 -25.5q47 0 72 29.5t25 78.5v484h132v-486q0 -67 -27 -118.5t-78.5 -80.5t-123.5 -29q-108 0 -168.5 62.5z" />
    <glyph glyph-name="Iacute" unicode="&#xcd;" horiz-adv-x="280" 
d="M74 700h132v-700h-132v700zM148 912h153l-124 -158h-97z" />
    <glyph glyph-name="Ibreve" unicode="&#x12c;" horiz-adv-x="280" 
d="M74 700h132v-700h-132v700zM57.5 800q-31.5 32 -31.5 81h76q0 -19 10 -31t28 -12t28 12t10 31h76q0 -49 -31.5 -81t-82.5 -32t-82.5 32z" />
    <glyph glyph-name="Icircumflex" unicode="&#xce;" horiz-adv-x="280" 
d="M74 700h132v-700h-132v700zM95 911h90l113 -157h-99l-59 60l-59 -60h-99z" />
    <glyph glyph-name="Idieresis" unicode="&#xcf;" horiz-adv-x="280" 
d="M74 700h132v-700h-132v700zM-9 904h118v-124h-118v124zM171 904h118v-124h-118v124z" />
    <glyph glyph-name="Idotaccent" unicode="&#x130;" horiz-adv-x="280" 
d="M74 700h132v-700h-132v700zM71 904h138v-132h-138v132z" />
    <glyph glyph-name="Igrave" unicode="&#xcc;" horiz-adv-x="280" 
d="M74 700h132v-700h-132v700zM-21 912h153l68 -158h-97z" />
    <glyph glyph-name="Imacron" unicode="&#x12a;" horiz-adv-x="280" 
d="M74 700h132v-700h-132v700zM16 886h248v-94h-248v94z" />
    <glyph glyph-name="Iogonek" unicode="&#x12e;" horiz-adv-x="280" 
d="M208 -191q-26 -7 -60 -7q-45 0 -79.5 25t-34.5 69q0 61 59 104h-19v700h132v-700q-32 -18 -52 -38t-20 -40q0 -18 11.5 -28t29.5 -10q9 0 22 2z" />
    <glyph glyph-name="Itilde" unicode="&#x128;" horiz-adv-x="280" 
d="M74 700h132v-700h-132v700zM161 765q-22 11 -47 31q-14 12 -24.5 18t-22.5 6q-10 0 -16.5 -6t-6.5 -16q0 -12 7 -26l-74 -15q-6 9 -10 24t-4 29q0 43 30 67t68 24q36 0 58 -11t47 -31q14 -12 24.5 -18t22.5 -6q10 0 16.5 6t6.5 16q0 12 -7 26l74 15q6 -9 10 -24t4 -29
q0 -43 -30 -67t-68 -24q-36 0 -58 11z" />
    <glyph glyph-name="J" unicode="J" horiz-adv-x="555" 
d="M102.5 48.5q-60.5 62.5 -60.5 175.5l132 -14q1 -51 24.5 -76.5t72.5 -25.5q47 0 72 29.5t25 78.5v484h132v-486q0 -67 -27 -118.5t-78.5 -80.5t-123.5 -29q-108 0 -168.5 62.5z" />
    <glyph glyph-name="Jcircumflex" unicode="&#x134;" horiz-adv-x="555" 
d="M102.5 48.5q-60.5 62.5 -60.5 175.5l132 -14q1 -51 24.5 -76.5t72.5 -25.5q47 0 72 29.5t25 78.5v484h132v-486q0 -67 -27 -118.5t-78.5 -80.5t-123.5 -29q-108 0 -168.5 62.5zM390 911h90l113 -157h-99l-59 60l-59 -60h-99z" />
    <glyph glyph-name="K" unicode="K" horiz-adv-x="658" 
d="M74 700h132v-270l55 62l196 208h167l-248 -260l264 -440h-154l-205 342l-75 -79v-263h-132v700z" />
    <glyph glyph-name="uni0136" unicode="&#x136;" horiz-adv-x="658" 
d="M74 700h132v-270l55 62l196 208h167l-248 -260l264 -440h-154l-205 342l-75 -79v-263h-132v700zM284 -303l37 121h-44v122h126v-122l-90 -132z" />
    <glyph glyph-name="L" unicode="L" horiz-adv-x="598" 
d="M74 700h132v-578h352v-122h-484v700z" />
    <glyph glyph-name="Lacute" unicode="&#x139;" horiz-adv-x="598" 
d="M74 700h132v-578h352v-122h-484v700zM154 912h153l-124 -158h-97z" />
    <glyph glyph-name="Lcaron" unicode="&#x13d;" horiz-adv-x="598" 
d="M74 700h132v-578h352v-122h-484v700zM458 499l39 95h-45v106h106v-108l-74 -108z" />
    <glyph glyph-name="uni013B" unicode="&#x13b;" horiz-adv-x="598" 
d="M74 700h132v-578h352v-122h-484v700zM259 -303l37 121h-44v122h126v-122l-90 -132z" />
    <glyph glyph-name="Ldot" unicode="&#x13f;" horiz-adv-x="598" 
d="M74 700h132v-578h352v-122h-484v700zM361 417h134v-134h-134v134z" />
    <glyph glyph-name="Lslash" unicode="&#x141;" horiz-adv-x="598" 
d="M558 122v-122h-484v174l-73 -46v122l73 46v404h132v-320l158 101v-122l-158 -101v-136h352z" />
    <glyph glyph-name="M" unicode="M" horiz-adv-x="872" 
d="M74 700h139l223 -556l223 556h139v-700h-128v428q-18 -69 -34 -107l-137 -321h-126l-137 321q-16 38 -34 107v-428h-128v700z" />
    <glyph glyph-name="N" unicode="N" horiz-adv-x="732" 
d="M74 700h134l292 -445q24 -41 30 -55v500h128v-700h-134l-292 448q-24 41 -30 55v-503h-128v700z" />
    <glyph glyph-name="Nacute" unicode="&#x143;" horiz-adv-x="732" 
d="M74 700h134l292 -445q24 -41 30 -55v500h128v-700h-134l-292 448q-24 41 -30 55v-503h-128v700zM374 912h153l-124 -158h-97z" />
    <glyph glyph-name="Ncaron" unicode="&#x147;" horiz-adv-x="732" 
d="M74 700h134l292 -445q24 -41 30 -55v500h128v-700h-134l-292 448q-24 41 -30 55v-503h-128v700zM208 911h99l59 -60l59 60h99l-113 -157h-90z" />
    <glyph glyph-name="uni0145" unicode="&#x145;" horiz-adv-x="732" 
d="M74 700h134l292 -445q24 -41 30 -55v500h128v-700h-134l-292 448q-24 41 -30 55v-503h-128v700zM310 -303l37 121h-44v122h126v-122l-90 -132z" />
    <glyph glyph-name="Eng" unicode="&#x14a;" horiz-adv-x="732" 
d="M351 -199l47 116q21 -13 49 -13q41 0 59 23t18 73l-292 448q-24 41 -30 55v-503h-128v700h134l292 -445q24 -41 30 -55v500h128v-690q0 -109 -49.5 -168.5t-152.5 -59.5q-57 0 -105 19z" />
    <glyph glyph-name="Ntilde" unicode="&#xd1;" horiz-adv-x="732" 
d="M74 700h134l292 -445q24 -41 30 -55v500h128v-700h-134l-292 448q-24 41 -30 55v-503h-128v700zM387 765q-22 11 -47 31q-14 12 -24.5 18t-22.5 6q-10 0 -16.5 -6t-6.5 -16q0 -12 7 -26l-74 -15q-6 9 -10 24t-4 29q0 43 30 67t68 24q36 0 58 -11t47 -31q14 -12 24.5 -18
t22.5 -6q10 0 16.5 6t6.5 16q0 12 -7 26l74 15q6 -9 10 -24t4 -29q0 -43 -30 -67t-68 -24q-36 0 -58 11z" />
    <glyph glyph-name="O" unicode="O" horiz-adv-x="812" 
d="M222 33.5q-82 47.5 -129 130.5t-47 186t47 186t129 130.5t184 47.5t184 -47.5t129 -130.5t47 -186t-47 -186t-129 -130.5t-184 -47.5t-184 47.5zM521.5 137.5q51.5 29.5 81 84t29.5 128.5t-29.5 128.5t-81 84t-115.5 29.5t-115.5 -29.5t-81 -84t-29.5 -128.5t29.5 -128.5
t81 -84t115.5 -29.5t115.5 29.5z" />
    <glyph glyph-name="Oacute" unicode="&#xd3;" horiz-adv-x="812" 
d="M222 33.5q-82 47.5 -129 130.5t-47 186t47 186t129 130.5t184 47.5t184 -47.5t129 -130.5t47 -186t-47 -186t-129 -130.5t-184 -47.5t-184 47.5zM521.5 137.5q51.5 29.5 81 84t29.5 128.5t-29.5 128.5t-81 84t-115.5 29.5t-115.5 -29.5t-81 -84t-29.5 -128.5t29.5 -128.5
t81 -84t115.5 -29.5t115.5 29.5zM414 912h153l-124 -158h-97z" />
    <glyph glyph-name="Obreve" unicode="&#x14e;" horiz-adv-x="812" 
d="M222 33.5q-82 47.5 -129 130.5t-47 186t47 186t129 130.5t184 47.5t184 -47.5t129 -130.5t47 -186t-47 -186t-129 -130.5t-184 -47.5t-184 47.5zM521.5 137.5q51.5 29.5 81 84t29.5 128.5t-29.5 128.5t-81 84t-115.5 29.5t-115.5 -29.5t-81 -84t-29.5 -128.5t29.5 -128.5
t81 -84t115.5 -29.5t115.5 29.5zM323.5 800q-31.5 32 -31.5 81h76q0 -19 10 -31t28 -12t28 12t10 31h76q0 -49 -31.5 -81t-82.5 -32t-82.5 32z" />
    <glyph glyph-name="Ocircumflex" unicode="&#xd4;" horiz-adv-x="812" 
d="M222 33.5q-82 47.5 -129 130.5t-47 186t47 186t129 130.5t184 47.5t184 -47.5t129 -130.5t47 -186t-47 -186t-129 -130.5t-184 -47.5t-184 47.5zM521.5 137.5q51.5 29.5 81 84t29.5 128.5t-29.5 128.5t-81 84t-115.5 29.5t-115.5 -29.5t-81 -84t-29.5 -128.5t29.5 -128.5
t81 -84t115.5 -29.5t115.5 29.5zM361 911h90l113 -157h-99l-59 60l-59 -60h-99z" />
    <glyph glyph-name="Odieresis" unicode="&#xd6;" horiz-adv-x="812" 
d="M222 33.5q-82 47.5 -129 130.5t-47 186t47 186t129 130.5t184 47.5t184 -47.5t129 -130.5t47 -186t-47 -186t-129 -130.5t-184 -47.5t-184 47.5zM521.5 137.5q51.5 29.5 81 84t29.5 128.5t-29.5 128.5t-81 84t-115.5 29.5t-115.5 -29.5t-81 -84t-29.5 -128.5t29.5 -128.5
t81 -84t115.5 -29.5t115.5 29.5zM257 904h118v-124h-118v124zM437 904h118v-124h-118v124z" />
    <glyph glyph-name="Ograve" unicode="&#xd2;" horiz-adv-x="812" 
d="M222 33.5q-82 47.5 -129 130.5t-47 186t47 186t129 130.5t184 47.5t184 -47.5t129 -130.5t47 -186t-47 -186t-129 -130.5t-184 -47.5t-184 47.5zM521.5 137.5q51.5 29.5 81 84t29.5 128.5t-29.5 128.5t-81 84t-115.5 29.5t-115.5 -29.5t-81 -84t-29.5 -128.5t29.5 -128.5
t81 -84t115.5 -29.5t115.5 29.5zM245 912h153l68 -158h-97z" />
    <glyph glyph-name="Ohungarumlaut" unicode="&#x150;" horiz-adv-x="812" 
d="M222 33.5q-82 47.5 -129 130.5t-47 186t47 186t129 130.5t184 47.5t184 -47.5t129 -130.5t47 -186t-47 -186t-129 -130.5t-184 -47.5t-184 47.5zM521.5 137.5q51.5 29.5 81 84t29.5 128.5t-29.5 128.5t-81 84t-115.5 29.5t-115.5 -29.5t-81 -84t-29.5 -128.5t29.5 -128.5
t81 -84t115.5 -29.5t115.5 29.5zM312 912h153l-124 -158h-97zM501 912h153l-124 -158h-97z" />
    <glyph glyph-name="Omacron" unicode="&#x14c;" horiz-adv-x="812" 
d="M222 33.5q-82 47.5 -129 130.5t-47 186t47 186t129 130.5t184 47.5t184 -47.5t129 -130.5t47 -186t-47 -186t-129 -130.5t-184 -47.5t-184 47.5zM521.5 137.5q51.5 29.5 81 84t29.5 128.5t-29.5 128.5t-81 84t-115.5 29.5t-115.5 -29.5t-81 -84t-29.5 -128.5t29.5 -128.5
t81 -84t115.5 -29.5t115.5 29.5zM282 886h248v-94h-248v94z" />
    <glyph glyph-name="Oslash" unicode="&#xd8;" horiz-adv-x="812" 
d="M728.5 518.5q37.5 -76.5 37.5 -168.5q0 -103 -47 -186t-129 -130.5t-184 -47.5q-62 0 -118 18l-35 -66l-98 56l33 62q-67 49 -104.5 125.5t-37.5 168.5q0 103 47 186t129 130.5t184 47.5q62 0 118 -18l35 66l98 -56l-33 -62q67 -49 104.5 -125.5zM198 248q18 -46 50 -78
l218 415q-27 7 -60 7q-64 0 -115.5 -29.5t-81 -84t-29.5 -128.5q0 -56 18 -102zM521.5 137.5q51.5 29.5 81 84t29.5 128.5q0 56 -18 102t-50 78l-218 -415q27 -7 60 -7q64 0 115.5 29.5z" />
    <glyph glyph-name="Otilde" unicode="&#xd5;" horiz-adv-x="812" 
d="M222 33.5q-82 47.5 -129 130.5t-47 186t47 186t129 130.5t184 47.5t184 -47.5t129 -130.5t47 -186t-47 -186t-129 -130.5t-184 -47.5t-184 47.5zM521.5 137.5q51.5 29.5 81 84t29.5 128.5t-29.5 128.5t-81 84t-115.5 29.5t-115.5 -29.5t-81 -84t-29.5 -128.5t29.5 -128.5
t81 -84t115.5 -29.5t115.5 29.5zM427 765q-22 11 -47 31q-14 12 -24.5 18t-22.5 6q-10 0 -16.5 -6t-6.5 -16q0 -12 7 -26l-74 -15q-6 9 -10 24t-4 29q0 43 30 67t68 24q36 0 58 -11t47 -31q14 -12 24.5 -18t22.5 -6q10 0 16.5 6t6.5 16q0 12 -7 26l74 15q6 -9 10 -24t4 -29
q0 -43 -30 -67t-68 -24q-36 0 -58 11z" />
    <glyph glyph-name="OE" unicode="&#x152;" horiz-adv-x="1174" 
d="M222 33.5q-82 47.5 -129 130.5t-47 186t47 186t129 130.5t184 47.5q145 0 226 -93v79h483v-118h-351v-161h323v-118h-323v-185h354v-118h-486v87q-43 -49 -100.5 -75t-125.5 -26q-102 0 -184 47.5zM521 138q52 30 81.5 85.5t29.5 126.5q0 74 -29.5 128.5t-81 84
t-115.5 29.5t-115.5 -29.5t-81 -84t-29.5 -128.5t29.5 -128.5t81 -84t115.5 -29.5q63 0 115 30z" />
    <glyph glyph-name="P" unicode="P" horiz-adv-x="695" 
d="M74 700h318q121 0 191.5 -59.5t70.5 -168.5t-70.5 -168.5t-191.5 -59.5h-186v-244h-132v700zM388 362q67 0 100.5 29.5t33.5 80.5t-33.5 80.5t-100.5 29.5h-182v-220h182z" />
    <glyph glyph-name="Thorn" unicode="&#xde;" horiz-adv-x="695" 
d="M74 700h132v-122h186q121 0 191.5 -59.5t70.5 -168.5t-70.5 -168.5t-191.5 -59.5h-186v-122h-132v700zM388 240q67 0 100.5 29.5t33.5 80.5t-33.5 80.5t-100.5 29.5h-182v-220h182z" />
    <glyph glyph-name="Q" unicode="Q" horiz-adv-x="812" 
d="M474 -92.5q-31 40.5 -53 78.5h-15q-102 0 -184 47.5t-129 130.5t-47 186t47 186t129 130.5t184 47.5t184 -47.5t129 -130.5t47 -186q0 -116 -59.5 -206.5t-158.5 -130.5q22 -37 86 -95l-95 -85q-34 34 -65 74.5zM521.5 137.5q51.5 29.5 81 84t29.5 128.5t-29.5 128.5
t-81 84t-115.5 29.5t-115.5 -29.5t-81 -84t-29.5 -128.5t29.5 -128.5t81 -84t115.5 -29.5t115.5 29.5z" />
    <glyph glyph-name="R" unicode="R" horiz-adv-x="662" 
d="M74 700h299q115 0 182 -53.5t67 -144.5q0 -149 -160 -206l169 -296h-151l-162 284h-112v-284h-132v700zM373 400q59 0 88 24.5t29 67.5t-29 67.5t-88 24.5h-167v-184h167z" />
    <glyph glyph-name="Racute" unicode="&#x154;" horiz-adv-x="662" 
d="M74 700h299q115 0 182 -53.5t67 -144.5q0 -149 -160 -206l169 -296h-151l-162 284h-112v-284h-132v700zM373 400q59 0 88 24.5t29 67.5t-29 67.5t-88 24.5h-167v-184h167zM343 912h153l-124 -158h-97z" />
    <glyph glyph-name="Rcaron" unicode="&#x158;" horiz-adv-x="662" 
d="M74 700h299q115 0 182 -53.5t67 -144.5q0 -149 -160 -206l169 -296h-151l-162 284h-112v-284h-132v700zM373 400q59 0 88 24.5t29 67.5t-29 67.5t-88 24.5h-167v-184h167zM177 911h99l59 -60l59 60h99l-113 -157h-90z" />
    <glyph glyph-name="uni0156" unicode="&#x156;" horiz-adv-x="662" 
d="M74 700h299q115 0 182 -53.5t67 -144.5q0 -149 -160 -206l169 -296h-151l-162 284h-112v-284h-132v700zM373 400q59 0 88 24.5t29 67.5t-29 67.5t-88 24.5h-167v-184h167zM279 -303l37 121h-44v122h126v-122l-90 -132z" />
    <glyph glyph-name="S" unicode="S" horiz-adv-x="652" 
d="M139 47q-74 61 -95 163l116 59q15 -81 57.5 -124t119.5 -43q59 0 94.5 26t35.5 68q0 47 -41.5 73t-131.5 43q-101 20 -160 72.5t-59 137.5q0 57 31 100.5t87 67.5t128 24q99 0 166 -45t100 -135l-104 -60q-20 60 -62 92t-103 32q-50 0 -83.5 -18.5t-33.5 -54.5
q0 -40 40 -65.5t129 -43.5q116 -24 172.5 -76t56.5 -139q0 -58 -32 -107t-91 -78.5t-138 -29.5q-125 0 -199 61z" />
    <glyph glyph-name="Sacute" unicode="&#x15a;" horiz-adv-x="652" 
d="M139 47q-74 61 -95 163l116 59q15 -81 57.5 -124t119.5 -43q59 0 94.5 26t35.5 68q0 47 -41.5 73t-131.5 43q-101 20 -160 72.5t-59 137.5q0 57 31 100.5t87 67.5t128 24q99 0 166 -45t100 -135l-104 -60q-20 60 -62 92t-103 32q-50 0 -83.5 -18.5t-33.5 -54.5
q0 -40 40 -65.5t129 -43.5q116 -24 172.5 -76t56.5 -139q0 -58 -32 -107t-91 -78.5t-138 -29.5q-125 0 -199 61zM330 912h153l-124 -158h-97z" />
    <glyph glyph-name="Scaron" unicode="&#x160;" horiz-adv-x="652" 
d="M139 47q-74 61 -95 163l116 59q15 -81 57.5 -124t119.5 -43q59 0 94.5 26t35.5 68q0 47 -41.5 73t-131.5 43q-101 20 -160 72.5t-59 137.5q0 57 31 100.5t87 67.5t128 24q99 0 166 -45t100 -135l-104 -60q-20 60 -62 92t-103 32q-50 0 -83.5 -18.5t-33.5 -54.5
q0 -40 40 -65.5t129 -43.5q116 -24 172.5 -76t56.5 -139q0 -58 -32 -107t-91 -78.5t-138 -29.5q-125 0 -199 61zM164 911h99l59 -60l59 60h99l-113 -157h-90z" />
    <glyph glyph-name="Scedilla" unicode="&#x15e;" horiz-adv-x="652" 
d="M336 -14l-23 -39q17 9 40 9q35 0 56.5 -22t21.5 -56q0 -38 -27.5 -60t-67.5 -22q-38 0 -62.5 16t-31.5 45l66 17q4 -22 28 -22q11 0 18 6.5t7 18.5q0 14 -7.5 21.5t-20.5 7.5q-14 0 -24 -4.5t-21 -13.5l-37 33l24 70q-97 14 -155 72.5t-76 146.5l116 59q15 -81 57.5 -124
t119.5 -43q59 0 94.5 26t35.5 68q0 47 -41.5 73t-131.5 43q-101 20 -160 72.5t-59 137.5q0 57 31 100.5t87 67.5t128 24q99 0 166 -45t100 -135l-104 -60q-20 60 -62 92t-103 32q-50 0 -83.5 -18.5t-33.5 -54.5q0 -40 40 -65.5t129 -43.5q116 -24 172.5 -76t56.5 -139
q0 -58 -32 -107t-91 -78.5t-138 -29.5h-2z" />
    <glyph glyph-name="Scircumflex" unicode="&#x15c;" horiz-adv-x="652" 
d="M139 47q-74 61 -95 163l116 59q15 -81 57.5 -124t119.5 -43q59 0 94.5 26t35.5 68q0 47 -41.5 73t-131.5 43q-101 20 -160 72.5t-59 137.5q0 57 31 100.5t87 67.5t128 24q99 0 166 -45t100 -135l-104 -60q-20 60 -62 92t-103 32q-50 0 -83.5 -18.5t-33.5 -54.5
q0 -40 40 -65.5t129 -43.5q116 -24 172.5 -76t56.5 -139q0 -58 -32 -107t-91 -78.5t-138 -29.5q-125 0 -199 61zM277 911h90l113 -157h-99l-59 60l-59 -60h-99z" />
    <glyph glyph-name="uni0218" unicode="&#x218;" horiz-adv-x="652" 
d="M139 47q-74 61 -95 163l116 59q15 -81 57.5 -124t119.5 -43q59 0 94.5 26t35.5 68q0 47 -41.5 73t-131.5 43q-101 20 -160 72.5t-59 137.5q0 57 31 100.5t87 67.5t128 24q99 0 166 -45t100 -135l-104 -60q-20 60 -62 92t-103 32q-50 0 -83.5 -18.5t-33.5 -54.5
q0 -40 40 -65.5t129 -43.5q116 -24 172.5 -76t56.5 -139q0 -58 -32 -107t-91 -78.5t-138 -29.5q-125 0 -199 61zM281 -303l37 121h-44v122h126v-122l-90 -132z" />
    <glyph glyph-name="uni1E9E" unicode="&#x1e9e;" horiz-adv-x="691" 
d="M325 6.5q-40 20.5 -71 60.5l91 92q12 -22 37 -36.5t49 -14.5q42 0 63 26t21 72q0 122 -186 122v102l113 152h-133q-49 0 -76 -26.5t-27 -78.5v-477h-132v477q0 223 235 223h260v-118l-115 -152q92 -18 141.5 -76t49.5 -148q0 -70 -30 -119.5t-79.5 -75t-107.5 -25.5
q-63 0 -103 20.5z" />
    <glyph glyph-name="T" unicode="T" horiz-adv-x="592" 
d="M230 578h-214v122h560v-122h-214v-578h-132v578z" />
    <glyph glyph-name="Tbar" unicode="&#x166;" horiz-adv-x="592" 
d="M230 344h-138v94h138v140h-214v122h560v-122h-214v-140h138v-94h-138v-344h-132v344z" />
    <glyph glyph-name="Tcaron" unicode="&#x164;" horiz-adv-x="592" 
d="M230 578h-214v122h560v-122h-214v-578h-132v578zM138 911h99l59 -60l59 60h99l-113 -157h-90z" />
    <glyph glyph-name="uni0162" unicode="&#x162;" horiz-adv-x="592" 
d="M329 0l-31 -53q17 9 40 9q35 0 56.5 -22t21.5 -56q0 -38 -27.5 -60t-67.5 -22q-38 0 -62.5 16t-31.5 45l66 17q4 -22 28 -22q11 0 18 6.5t7 18.5q0 14 -7.5 21.5t-20.5 7.5q-14 0 -24 -4.5t-21 -13.5l-37 33l27 79h-33v578h-214v122h560v-122h-214v-578h-33z" />
    <glyph glyph-name="uni021A" unicode="&#x21a;" horiz-adv-x="592" 
d="M230 578h-214v122h560v-122h-214v-578h-132v578zM240 -303l37 121h-44v122h126v-122l-90 -132z" />
    <glyph glyph-name="U" unicode="U" horiz-adv-x="702" 
d="M203 19q-65 33 -102 96t-37 150v435h132v-422q0 -81 41.5 -125.5t113.5 -44.5t113.5 44.5t41.5 125.5v422h132v-435q0 -87 -37 -150t-102 -96t-148 -33t-148 33z" />
    <glyph glyph-name="Uacute" unicode="&#xda;" horiz-adv-x="702" 
d="M203 19q-65 33 -102 96t-37 150v435h132v-422q0 -81 41.5 -125.5t113.5 -44.5t113.5 44.5t41.5 125.5v422h132v-435q0 -87 -37 -150t-102 -96t-148 -33t-148 33zM359 912h153l-124 -158h-97z" />
    <glyph glyph-name="Ubreve" unicode="&#x16c;" horiz-adv-x="702" 
d="M203 19q-65 33 -102 96t-37 150v435h132v-422q0 -81 41.5 -125.5t113.5 -44.5t113.5 44.5t41.5 125.5v422h132v-435q0 -87 -37 -150t-102 -96t-148 -33t-148 33zM268.5 800q-31.5 32 -31.5 81h76q0 -19 10 -31t28 -12t28 12t10 31h76q0 -49 -31.5 -81t-82.5 -32t-82.5 32
z" />
    <glyph glyph-name="Ucircumflex" unicode="&#xdb;" horiz-adv-x="702" 
d="M203 19q-65 33 -102 96t-37 150v435h132v-422q0 -81 41.5 -125.5t113.5 -44.5t113.5 44.5t41.5 125.5v422h132v-435q0 -87 -37 -150t-102 -96t-148 -33t-148 33zM306 911h90l113 -157h-99l-59 60l-59 -60h-99z" />
    <glyph glyph-name="Udieresis" unicode="&#xdc;" horiz-adv-x="702" 
d="M203 19q-65 33 -102 96t-37 150v435h132v-422q0 -81 41.5 -125.5t113.5 -44.5t113.5 44.5t41.5 125.5v422h132v-435q0 -87 -37 -150t-102 -96t-148 -33t-148 33zM202 904h118v-124h-118v124zM382 904h118v-124h-118v124z" />
    <glyph glyph-name="Ugrave" unicode="&#xd9;" horiz-adv-x="702" 
d="M203 19q-65 33 -102 96t-37 150v435h132v-422q0 -81 41.5 -125.5t113.5 -44.5t113.5 44.5t41.5 125.5v422h132v-435q0 -87 -37 -150t-102 -96t-148 -33t-148 33zM190 912h153l68 -158h-97z" />
    <glyph glyph-name="Uhungarumlaut" unicode="&#x170;" horiz-adv-x="702" 
d="M203 19q-65 33 -102 96t-37 150v435h132v-422q0 -81 41.5 -125.5t113.5 -44.5t113.5 44.5t41.5 125.5v422h132v-435q0 -87 -37 -150t-102 -96t-148 -33t-148 33zM257 912h153l-124 -158h-97zM446 912h153l-124 -158h-97z" />
    <glyph glyph-name="Umacron" unicode="&#x16a;" horiz-adv-x="702" 
d="M203 19q-65 33 -102 96t-37 150v435h132v-422q0 -81 41.5 -125.5t113.5 -44.5t113.5 44.5t41.5 125.5v422h132v-435q0 -87 -37 -150t-102 -96t-148 -33t-148 33zM227 886h248v-94h-248v94z" />
    <glyph glyph-name="Uogonek" unicode="&#x172;" horiz-adv-x="702" 
d="M638 700v-435q0 -102 -50.5 -170.5t-137.5 -94.5q-32 -18 -51.5 -38t-19.5 -40q0 -18 11.5 -28t29.5 -10q9 0 22 2l11 -77q-26 -7 -60 -7q-45 0 -79.5 25t-34.5 69q0 50 43 91q-75 6 -133.5 40t-91.5 95t-33 143v435h132v-422q0 -81 41.5 -125.5t113.5 -44.5t113.5 44.5
t41.5 125.5v422h132z" />
    <glyph glyph-name="Uring" unicode="&#x16e;" horiz-adv-x="702" 
d="M203 19q-65 33 -102 96t-37 150v435h132v-422q0 -81 41.5 -125.5t113.5 -44.5t113.5 44.5t41.5 125.5v422h132v-435q0 -87 -37 -150t-102 -96t-148 -33t-148 33zM284 771.5q-28 27.5 -28 67.5t28 67.5t68 27.5t68 -27.5t28 -67.5t-28 -67.5t-68 -27.5t-68 27.5zM376 814
q9 9 9 25t-9 25t-24 9t-24 -9t-9 -25t9 -25t24 -9t24 9z" />
    <glyph glyph-name="Utilde" unicode="&#x168;" horiz-adv-x="702" 
d="M203 19q-65 33 -102 96t-37 150v435h132v-422q0 -81 41.5 -125.5t113.5 -44.5t113.5 44.5t41.5 125.5v422h132v-435q0 -87 -37 -150t-102 -96t-148 -33t-148 33zM372 765q-22 11 -47 31q-14 12 -24.5 18t-22.5 6q-10 0 -16.5 -6t-6.5 -16q0 -12 7 -26l-74 -15
q-6 9 -10 24t-4 29q0 43 30 67t68 24q36 0 58 -11t47 -31q14 -12 24.5 -18t22.5 -6q10 0 16.5 6t6.5 16q0 12 -7 26l74 15q6 -9 10 -24t4 -29q0 -43 -30 -67t-68 -24q-36 0 -58 11z" />
    <glyph glyph-name="V" unicode="V" horiz-adv-x="658" 
d="M2 700h143l158 -447l26 -89l26 89l158 447h143l-260 -700h-134z" />
    <glyph glyph-name="W" unicode="W" horiz-adv-x="942" 
d="M5 700h139l111 -442l17 -76l17 77l114 441h136l114 -441l17 -77l17 76l111 442h139l-193 -700h-142l-131 508l-131 -508h-142z" />
    <glyph glyph-name="Wacute" unicode="&#x1e82;" horiz-adv-x="942" 
d="M5 700h139l111 -442l17 -76l17 77l114 441h136l114 -441l17 -77l17 76l111 442h139l-193 -700h-142l-131 508l-131 -508h-142zM479 912h153l-124 -158h-97z" />
    <glyph glyph-name="Wcircumflex" unicode="&#x174;" horiz-adv-x="942" 
d="M5 700h139l111 -442l17 -76l17 77l114 441h136l114 -441l17 -77l17 76l111 442h139l-193 -700h-142l-131 508l-131 -508h-142zM426 911h90l113 -157h-99l-59 60l-59 -60h-99z" />
    <glyph glyph-name="Wdieresis" unicode="&#x1e84;" horiz-adv-x="942" 
d="M5 700h139l111 -442l17 -76l17 77l114 441h136l114 -441l17 -77l17 76l111 442h139l-193 -700h-142l-131 508l-131 -508h-142zM322 904h118v-124h-118v124zM502 904h118v-124h-118v124z" />
    <glyph glyph-name="Wgrave" unicode="&#x1e80;" horiz-adv-x="942" 
d="M5 700h139l111 -442l17 -76l17 77l114 441h136l114 -441l17 -77l17 76l111 442h139l-193 -700h-142l-131 508l-131 -508h-142zM310 912h153l68 -158h-97z" />
    <glyph glyph-name="X" unicode="X" horiz-adv-x="617" 
d="M237 376l-203 324h141l133 -222l140 222h134l-200 -319l231 -381h-141l-164 270l-163 -270h-142z" />
    <glyph glyph-name="Y" unicode="Y" horiz-adv-x="602" 
d="M235 274l-231 426h145l130 -249q12 -24 22 -51q10 27 22 51l130 249h145l-231 -426v-274h-132v274z" />
    <glyph glyph-name="Yacute" unicode="&#xdd;" horiz-adv-x="602" 
d="M235 274l-231 426h145l130 -249q12 -24 22 -51q10 27 22 51l130 249h145l-231 -426v-274h-132v274zM309 912h153l-124 -158h-97z" />
    <glyph glyph-name="Ycircumflex" unicode="&#x176;" horiz-adv-x="602" 
d="M235 274l-231 426h145l130 -249q12 -24 22 -51q10 27 22 51l130 249h145l-231 -426v-274h-132v274zM256 911h90l113 -157h-99l-59 60l-59 -60h-99z" />
    <glyph glyph-name="Ydieresis" unicode="&#x178;" horiz-adv-x="602" 
d="M235 274l-231 426h145l130 -249q12 -24 22 -51q10 27 22 51l130 249h145l-231 -426v-274h-132v274zM152 904h118v-124h-118v124zM332 904h118v-124h-118v124z" />
    <glyph glyph-name="Ygrave" unicode="&#x1ef2;" horiz-adv-x="602" 
d="M235 274l-231 426h145l130 -249q12 -24 22 -51q10 27 22 51l130 249h145l-231 -426v-274h-132v274zM140 912h153l68 -158h-97z" />
    <glyph glyph-name="Z" unicode="Z" horiz-adv-x="614" 
d="M35 120l368 458h-355v122h512v-122l-366 -456h383v-122h-542v120z" />
    <glyph glyph-name="Zacute" unicode="&#x179;" horiz-adv-x="614" 
d="M35 120l368 458h-355v122h512v-122l-366 -456h383v-122h-542v120zM317 912h153l-124 -158h-97z" />
    <glyph glyph-name="Zcaron" unicode="&#x17d;" horiz-adv-x="614" 
d="M35 120l368 458h-355v122h512v-122l-366 -456h383v-122h-542v120zM151 911h99l59 -60l59 60h99l-113 -157h-90z" />
    <glyph glyph-name="Zdotaccent" unicode="&#x17b;" horiz-adv-x="614" 
d="M35 120l368 458h-355v122h512v-122l-366 -456h383v-122h-542v120zM240 904h138v-132h-138v132z" />
    <glyph glyph-name="uni01B5" unicode="&#x1b5;" horiz-adv-x="614" 
d="M35 120l150 187h-122v94h198l142 177h-355v122h512v-122l-142 -177h127v-94h-203l-148 -185h383v-122h-542v120z" />
    <glyph glyph-name="a" unicode="a" horiz-adv-x="567" 
d="M89.5 28.5q-46.5 42.5 -46.5 112.5q0 71 49.5 111.5t127.5 52.5l149 23v19q0 36 -23 55.5t-68 19.5q-42 0 -65.5 -16t-23.5 -40q0 -6 2 -12l-113 -38q-9 20 -9 42q0 39 25 74t72.5 56.5t111.5 21.5q106 0 161.5 -45t55.5 -135v-207q0 -42 7.5 -69t25.5 -54h-128
q-9 11 -16.5 31t-7.5 48q-26 -46 -69 -69.5t-97 -23.5q-74 0 -120.5 42.5zM333 125.5q36 37.5 36 106.5v9l-120 -20q-83 -14 -83 -73q0 -29 20 -44.5t54 -15.5q57 0 93 37.5z" />
    <glyph glyph-name="aacute" unicode="&#xe1;" horiz-adv-x="567" 
d="M89.5 28.5q-46.5 42.5 -46.5 112.5q0 71 49.5 111.5t127.5 52.5l149 23v19q0 36 -23 55.5t-68 19.5q-42 0 -65.5 -16t-23.5 -40q0 -6 2 -12l-113 -38q-9 20 -9 42q0 39 25 74t72.5 56.5t111.5 21.5q106 0 161.5 -45t55.5 -135v-207q0 -42 7.5 -69t25.5 -54h-128
q-9 11 -16.5 31t-7.5 48q-26 -46 -69 -69.5t-97 -23.5q-74 0 -120.5 42.5zM333 125.5q36 37.5 36 106.5v9l-120 -20q-83 -14 -83 -73q0 -29 20 -44.5t54 -15.5q57 0 93 37.5zM286 708h153l-125 -158h-97z" />
    <glyph glyph-name="abreve" unicode="&#x103;" horiz-adv-x="567" 
d="M89.5 28.5q-46.5 42.5 -46.5 112.5q0 71 49.5 111.5t127.5 52.5l149 23v19q0 36 -23 55.5t-68 19.5q-42 0 -65.5 -16t-23.5 -40q0 -6 2 -12l-113 -38q-9 20 -9 42q0 39 25 74t72.5 56.5t111.5 21.5q106 0 161.5 -45t55.5 -135v-207q0 -42 7.5 -69t25.5 -54h-128
q-9 11 -16.5 31t-7.5 48q-26 -46 -69 -69.5t-97 -23.5q-74 0 -120.5 42.5zM333 125.5q36 37.5 36 106.5v9l-120 -20q-83 -14 -83 -73q0 -29 20 -44.5t54 -15.5q57 0 93 37.5zM195.5 596q-31.5 32 -31.5 81h76q0 -19 10 -31t28 -12t28 12t10 31h76q0 -49 -31.5 -81t-82.5 -32
t-82.5 32z" />
    <glyph glyph-name="acircumflex" unicode="&#xe2;" horiz-adv-x="567" 
d="M89.5 28.5q-46.5 42.5 -46.5 112.5q0 71 49.5 111.5t127.5 52.5l149 23v19q0 36 -23 55.5t-68 19.5q-42 0 -65.5 -16t-23.5 -40q0 -6 2 -12l-113 -38q-9 20 -9 42q0 39 25 74t72.5 56.5t111.5 21.5q106 0 161.5 -45t55.5 -135v-207q0 -42 7.5 -69t25.5 -54h-128
q-9 11 -16.5 31t-7.5 48q-26 -46 -69 -69.5t-97 -23.5q-74 0 -120.5 42.5zM333 125.5q36 37.5 36 106.5v9l-120 -20q-83 -14 -83 -73q0 -29 20 -44.5t54 -15.5q57 0 93 37.5zM233 707h90l113 -157h-99l-59 60l-59 -60h-99z" />
    <glyph glyph-name="adieresis" unicode="&#xe4;" horiz-adv-x="567" 
d="M89.5 28.5q-46.5 42.5 -46.5 112.5q0 71 49.5 111.5t127.5 52.5l149 23v19q0 36 -23 55.5t-68 19.5q-42 0 -65.5 -16t-23.5 -40q0 -6 2 -12l-113 -38q-9 20 -9 42q0 39 25 74t72.5 56.5t111.5 21.5q106 0 161.5 -45t55.5 -135v-207q0 -42 7.5 -69t25.5 -54h-128
q-9 11 -16.5 31t-7.5 48q-26 -46 -69 -69.5t-97 -23.5q-74 0 -120.5 42.5zM333 125.5q36 37.5 36 106.5v9l-120 -20q-83 -14 -83 -73q0 -29 20 -44.5t54 -15.5q57 0 93 37.5zM129 700h118v-124h-118v124zM309 700h118v-124h-118v124z" />
    <glyph glyph-name="agrave" unicode="&#xe0;" horiz-adv-x="567" 
d="M89.5 28.5q-46.5 42.5 -46.5 112.5q0 71 49.5 111.5t127.5 52.5l149 23v19q0 36 -23 55.5t-68 19.5q-42 0 -65.5 -16t-23.5 -40q0 -6 2 -12l-113 -38q-9 20 -9 42q0 39 25 74t72.5 56.5t111.5 21.5q106 0 161.5 -45t55.5 -135v-207q0 -42 7.5 -69t25.5 -54h-128
q-9 11 -16.5 31t-7.5 48q-26 -46 -69 -69.5t-97 -23.5q-74 0 -120.5 42.5zM333 125.5q36 37.5 36 106.5v9l-120 -20q-83 -14 -83 -73q0 -29 20 -44.5t54 -15.5q57 0 93 37.5zM124 708h153l68 -158h-97z" />
    <glyph glyph-name="amacron" unicode="&#x101;" horiz-adv-x="567" 
d="M89.5 28.5q-46.5 42.5 -46.5 112.5q0 71 49.5 111.5t127.5 52.5l149 23v19q0 36 -23 55.5t-68 19.5q-42 0 -65.5 -16t-23.5 -40q0 -6 2 -12l-113 -38q-9 20 -9 42q0 39 25 74t72.5 56.5t111.5 21.5q106 0 161.5 -45t55.5 -135v-207q0 -42 7.5 -69t25.5 -54h-128
q-9 11 -16.5 31t-7.5 48q-26 -46 -69 -69.5t-97 -23.5q-74 0 -120.5 42.5zM333 125.5q36 37.5 36 106.5v9l-120 -20q-83 -14 -83 -73q0 -29 20 -44.5t54 -15.5q57 0 93 37.5zM154 682h248v-94h-248v94z" />
    <glyph glyph-name="aogonek" unicode="&#x105;" horiz-adv-x="567" 
d="M530 -191q-26 -7 -60 -7q-45 0 -79.5 25t-34.5 69q0 61 59 104h-15q-9 11 -16.5 31t-7.5 48q-26 -46 -69 -69.5t-97 -23.5q-74 0 -120.5 42.5t-46.5 112.5q0 71 49.5 111.5t127.5 52.5l149 23v19q0 36 -23 55.5t-68 19.5q-42 0 -65.5 -16t-23.5 -40q0 -6 2 -12l-113 -38
q-9 20 -9 42q0 39 25 74t72.5 56.5t111.5 21.5q106 0 161.5 -45t55.5 -135v-207q0 -42 7.5 -69t25.5 -54q-32 -18 -52 -38t-20 -40q0 -18 11.5 -28t29.5 -10q9 0 22 2zM369 241l-120 -20q-83 -14 -83 -73q0 -29 20 -44.5t54 -15.5q57 0 93 37.5t36 106.5v9z" />
    <glyph glyph-name="aring" unicode="&#xe5;" horiz-adv-x="567" 
d="M89.5 28.5q-46.5 42.5 -46.5 112.5q0 71 49.5 111.5t127.5 52.5l149 23v19q0 36 -23 55.5t-68 19.5q-42 0 -65.5 -16t-23.5 -40q0 -6 2 -12l-113 -38q-9 20 -9 42q0 39 25 74t72.5 56.5t111.5 21.5q106 0 161.5 -45t55.5 -135v-207q0 -42 7.5 -69t25.5 -54h-128
q-9 11 -16.5 31t-7.5 48q-26 -46 -69 -69.5t-97 -23.5q-74 0 -120.5 42.5zM333 125.5q36 37.5 36 106.5v9l-120 -20q-83 -14 -83 -73q0 -29 20 -44.5t54 -15.5q57 0 93 37.5zM211 567.5q-28 27.5 -28 67.5t28 67.5t68 27.5t68 -27.5t28 -67.5t-28 -67.5t-68 -27.5t-68 27.5z
M303 610q9 9 9 25t-9 25t-24 9t-24 -9t-9 -25t9 -25t24 -9t24 9z" />
    <glyph glyph-name="atilde" unicode="&#xe3;" horiz-adv-x="567" 
d="M89.5 28.5q-46.5 42.5 -46.5 112.5q0 71 49.5 111.5t127.5 52.5l149 23v19q0 36 -23 55.5t-68 19.5q-42 0 -65.5 -16t-23.5 -40q0 -6 2 -12l-113 -38q-9 20 -9 42q0 39 25 74t72.5 56.5t111.5 21.5q106 0 161.5 -45t55.5 -135v-207q0 -42 7.5 -69t25.5 -54h-128
q-9 11 -16.5 31t-7.5 48q-26 -46 -69 -69.5t-97 -23.5q-74 0 -120.5 42.5zM333 125.5q36 37.5 36 106.5v9l-120 -20q-83 -14 -83 -73q0 -29 20 -44.5t54 -15.5q57 0 93 37.5zM299 561q-22 11 -47 31q-14 12 -24.5 18t-22.5 6q-10 0 -16.5 -6t-6.5 -16q0 -12 7 -26l-74 -15
q-6 9 -10 24t-4 29q0 43 30 67t68 24q36 0 58 -11t47 -31q14 -12 24.5 -18t22.5 -6q10 0 16.5 6t6.5 16q0 12 -7 26l74 15q6 -9 10 -24t4 -29q0 -43 -30 -67t-68 -24q-36 0 -58 11z" />
    <glyph glyph-name="ae" unicode="&#xe6;" horiz-adv-x="915" 
d="M94 28.5q-51 42.5 -51 112.5q0 78 61.5 123.5t168.5 45.5h97v13q0 51 -19 75t-72 24q-43 0 -66 -16t-23 -40q0 -6 2 -12l-113 -38q-9 20 -9 42q0 39 24 74t69 56.5t105 21.5q68 0 113 -18t72 -53q36 34 83 52.5t100 18.5q70 0 125 -31.5t86 -88t31 -128.5v-44h-382
q6 -57 43 -90.5t93 -33.5q49 0 82 23t55 68l94 -54q-36 -73 -93 -109t-140 -36q-65 0 -120.5 30t-90.5 83q-28 -57 -80.5 -85t-111.5 -28q-82 0 -133 42.5zM762 310q-9 49 -43 76.5t-87 27.5q-49 0 -85.5 -29.5t-50.5 -74.5h266zM332 122.5q38 34.5 38 90.5v5h-105
q-47 0 -73 -20.5t-26 -51.5q0 -27 20 -42.5t53 -15.5q55 0 93 34.5z" />
    <glyph glyph-name="aeacute" unicode="&#x1fd;" horiz-adv-x="915" 
d="M94 28.5q-51 42.5 -51 112.5q0 78 61.5 123.5t168.5 45.5h97v13q0 51 -19 75t-72 24q-43 0 -66 -16t-23 -40q0 -6 2 -12l-113 -38q-9 20 -9 42q0 39 24 74t69 56.5t105 21.5q68 0 113 -18t72 -53q36 34 83 52.5t100 18.5q70 0 125 -31.5t86 -88t31 -128.5v-44h-382
q6 -57 43 -90.5t93 -33.5q49 0 82 23t55 68l94 -54q-36 -73 -93 -109t-140 -36q-65 0 -120.5 30t-90.5 83q-28 -57 -80.5 -85t-111.5 -28q-82 0 -133 42.5zM762 310q-9 49 -43 76.5t-87 27.5q-49 0 -85.5 -29.5t-50.5 -74.5h266zM332 122.5q38 34.5 38 90.5v5h-105
q-47 0 -73 -20.5t-26 -51.5q0 -27 20 -42.5t53 -15.5q55 0 93 34.5zM466 708h153l-125 -158h-97z" />
    <glyph glyph-name="b" unicode="b" horiz-adv-x="624" 
d="M254.5 6.5q-40.5 20.5 -65.5 54.5v-61h-126v700h126v-265q28 35 71 55t92 20q67 0 121 -31.5t85 -91t31 -139.5t-32 -139.5t-86.5 -91t-120.5 -31.5q-55 0 -95.5 20.5zM421.5 144.5q39.5 40.5 39.5 103.5t-39.5 103.5t-100.5 40.5t-100.5 -40.5t-39.5 -103.5t39.5 -103.5
t100.5 -40.5t100.5 40.5z" />
    <glyph glyph-name="c" unicode="c" horiz-adv-x="553" 
d="M163.5 18.5q-59.5 32.5 -94 92.5t-34.5 137t35.5 136.5t95 92.5t130.5 33q81 0 138 -31.5t84 -92.5l-107 -65q-21 39 -50 55t-66 16q-57 0 -94.5 -39.5t-37.5 -104.5q0 -66 37 -105t95 -39q46 0 74.5 18.5t49.5 59.5l104 -63q-39 -66 -94.5 -99.5t-132.5 -33.5
q-73 0 -132.5 32.5z" />
    <glyph glyph-name="cacute" unicode="&#x107;" horiz-adv-x="553" 
d="M163.5 18.5q-59.5 32.5 -94 92.5t-34.5 137t35.5 136.5t95 92.5t130.5 33q81 0 138 -31.5t84 -92.5l-107 -65q-21 39 -50 55t-66 16q-57 0 -94.5 -39.5t-37.5 -104.5q0 -66 37 -105t95 -39q46 0 74.5 18.5t49.5 59.5l104 -63q-39 -66 -94.5 -99.5t-132.5 -33.5
q-73 0 -132.5 32.5zM304 708h153l-125 -158h-97z" />
    <glyph glyph-name="ccaron" unicode="&#x10d;" horiz-adv-x="553" 
d="M163.5 18.5q-59.5 32.5 -94 92.5t-34.5 137t35.5 136.5t95 92.5t130.5 33q81 0 138 -31.5t84 -92.5l-107 -65q-21 39 -50 55t-66 16q-57 0 -94.5 -39.5t-37.5 -104.5q0 -66 37 -105t95 -39q46 0 74.5 18.5t49.5 59.5l104 -63q-39 -66 -94.5 -99.5t-132.5 -33.5
q-73 0 -132.5 32.5zM138 707h99l59 -60l59 60h99l-113 -157h-90z" />
    <glyph glyph-name="ccedilla" unicode="&#xe7;" horiz-adv-x="553" 
d="M290 -14l-23 -39q17 9 40 9q35 0 56.5 -22t21.5 -56q0 -38 -27.5 -60t-67.5 -22q-38 0 -62.5 16t-31.5 45l66 17q4 -22 28 -22q11 0 18 6.5t7 18.5q0 14 -7.5 21.5t-20.5 7.5q-14 0 -24 -4.5t-21 -13.5l-37 33l25 72q-87 21 -141 89t-54 166q0 77 35.5 136.5t95 92.5
t130.5 33q81 0 138 -31.5t84 -92.5l-107 -65q-21 39 -50 55t-66 16q-57 0 -94.5 -39.5t-37.5 -104.5q0 -66 37 -105t95 -39q46 0 74.5 18.5t49.5 59.5l104 -63q-39 -66 -94.5 -99.5t-132.5 -33.5h-6z" />
    <glyph glyph-name="ccircumflex" unicode="&#x109;" horiz-adv-x="553" 
d="M163.5 18.5q-59.5 32.5 -94 92.5t-34.5 137t35.5 136.5t95 92.5t130.5 33q81 0 138 -31.5t84 -92.5l-107 -65q-21 39 -50 55t-66 16q-57 0 -94.5 -39.5t-37.5 -104.5q0 -66 37 -105t95 -39q46 0 74.5 18.5t49.5 59.5l104 -63q-39 -66 -94.5 -99.5t-132.5 -33.5
q-73 0 -132.5 32.5zM251 707h90l113 -157h-99l-59 60l-59 -60h-99z" />
    <glyph glyph-name="cdotaccent" unicode="&#x10b;" horiz-adv-x="553" 
d="M163.5 18.5q-59.5 32.5 -94 92.5t-34.5 137t35.5 136.5t95 92.5t130.5 33q81 0 138 -31.5t84 -92.5l-107 -65q-21 39 -50 55t-66 16q-57 0 -94.5 -39.5t-37.5 -104.5q0 -66 37 -105t95 -39q46 0 74.5 18.5t49.5 59.5l104 -63q-39 -66 -94.5 -99.5t-132.5 -33.5
q-73 0 -132.5 32.5zM227 700h138v-132h-138v132z" />
    <glyph glyph-name="d" unicode="d" horiz-adv-x="624" 
d="M155.5 17.5q-55.5 31.5 -88 91t-32.5 139.5q0 79 34.5 138.5t91 91.5t118.5 32q54 0 94.5 -20t61.5 -55v265h126v-700h-126v70q-21 -37 -61.5 -60.5t-94.5 -23.5q-68 0 -123.5 31.5zM403 144.5q40 40.5 40 103.5t-40 103.5t-100 40.5t-100 -40.5t-40 -103.5t40 -103.5
t100 -40.5t100 40.5z" />
    <glyph glyph-name="eth" unicode="&#xf0;" horiz-adv-x="590" 
d="M161.5 17q-57.5 31 -89 85.5t-31.5 124.5q0 68 32 121.5t87 83.5t120 30q92 0 139 -53q-28 71 -88 127l-104 -40l-31 83l53 20q-52 34 -107 57l58 94q98 -44 171 -103l106 41l32 -83l-67 -26q107 -127 107 -296q0 -137 -67.5 -217t-188.5 -80q-74 0 -131.5 31zM361 108
q30 16 48 46t18 70t-18 70t-48 46t-65 16t-65 -16t-48 -46t-18 -70t18 -70t48 -46t65 -16t65 16z" />
    <glyph glyph-name="dcaron" unicode="&#x10f;" horiz-adv-x="730" 
d="M155.5 17.5q-55.5 31.5 -88 91t-32.5 139.5q0 79 34.5 138.5t91 91.5t118.5 32q54 0 94.5 -20t61.5 -55v265h126v-700h-126v70q-21 -37 -61.5 -60.5t-94.5 -23.5q-68 0 -123.5 31.5zM403 144.5q40 40.5 40 103.5t-40 103.5t-100 40.5t-100 -40.5t-40 -103.5t40 -103.5
t100 -40.5t100 40.5zM630 499l39 95h-45v106h106v-108l-74 -108z" />
    <glyph glyph-name="dcroat" unicode="&#x111;" horiz-adv-x="624" 
d="M615 552h-54v-552h-126v70q-21 -37 -61.5 -60.5t-94.5 -23.5q-68 0 -123.5 31.5t-88 91t-32.5 139.5q0 79 34.5 138.5t91 91.5t118.5 32q54 0 94.5 -20t61.5 -55v117h-168v96h168v52h126v-52h54v-96zM403 144.5q40 40.5 40 103.5t-40 103.5t-100 40.5t-100 -40.5
t-40 -103.5t40 -103.5t100 -40.5t100 40.5z" />
    <glyph glyph-name="e" unicode="e" horiz-adv-x="575" 
d="M162.5 19q-58.5 33 -93 93t-34.5 136q0 77 35 136.5t94.5 92.5t131.5 33q70 0 125 -31.5t86 -88t31 -128.5v-44h-382q6 -57 43 -90.5t93 -33.5q49 0 81.5 22.5t55.5 68.5l94 -54q-37 -75 -94 -110t-139 -35q-69 0 -127.5 33zM421 314q-9 47 -43 73.5t-86 26.5
q-48 0 -84 -28t-50 -72h263z" />
    <glyph glyph-name="eacute" unicode="&#xe9;" horiz-adv-x="575" 
d="M162.5 19q-58.5 33 -93 93t-34.5 136q0 77 35 136.5t94.5 92.5t131.5 33q70 0 125 -31.5t86 -88t31 -128.5v-44h-382q6 -57 43 -90.5t93 -33.5q49 0 81.5 22.5t55.5 68.5l94 -54q-37 -75 -94 -110t-139 -35q-69 0 -127.5 33zM421 314q-9 47 -43 73.5t-86 26.5
q-48 0 -84 -28t-50 -72h263zM304 708h153l-125 -158h-97z" />
    <glyph glyph-name="ebreve" unicode="&#x115;" horiz-adv-x="575" 
d="M162.5 19q-58.5 33 -93 93t-34.5 136q0 77 35 136.5t94.5 92.5t131.5 33q70 0 125 -31.5t86 -88t31 -128.5v-44h-382q6 -57 43 -90.5t93 -33.5q49 0 81.5 22.5t55.5 68.5l94 -54q-37 -75 -94 -110t-139 -35q-69 0 -127.5 33zM421 314q-9 47 -43 73.5t-86 26.5
q-48 0 -84 -28t-50 -72h263zM213.5 596q-31.5 32 -31.5 81h76q0 -19 10 -31t28 -12t28 12t10 31h76q0 -49 -31.5 -81t-82.5 -32t-82.5 32z" />
    <glyph glyph-name="ecaron" unicode="&#x11b;" horiz-adv-x="575" 
d="M162.5 19q-58.5 33 -93 93t-34.5 136q0 77 35 136.5t94.5 92.5t131.5 33q70 0 125 -31.5t86 -88t31 -128.5v-44h-382q6 -57 43 -90.5t93 -33.5q49 0 81.5 22.5t55.5 68.5l94 -54q-37 -75 -94 -110t-139 -35q-69 0 -127.5 33zM421 314q-9 47 -43 73.5t-86 26.5
q-48 0 -84 -28t-50 -72h263zM138 707h99l59 -60l59 60h99l-113 -157h-90z" />
    <glyph glyph-name="ecircumflex" unicode="&#xea;" horiz-adv-x="575" 
d="M162.5 19q-58.5 33 -93 93t-34.5 136q0 77 35 136.5t94.5 92.5t131.5 33q70 0 125 -31.5t86 -88t31 -128.5v-44h-382q6 -57 43 -90.5t93 -33.5q49 0 81.5 22.5t55.5 68.5l94 -54q-37 -75 -94 -110t-139 -35q-69 0 -127.5 33zM421 314q-9 47 -43 73.5t-86 26.5
q-48 0 -84 -28t-50 -72h263zM251 707h90l113 -157h-99l-59 60l-59 -60h-99z" />
    <glyph glyph-name="edieresis" unicode="&#xeb;" horiz-adv-x="575" 
d="M162.5 19q-58.5 33 -93 93t-34.5 136q0 77 35 136.5t94.5 92.5t131.5 33q70 0 125 -31.5t86 -88t31 -128.5v-44h-382q6 -57 43 -90.5t93 -33.5q49 0 81.5 22.5t55.5 68.5l94 -54q-37 -75 -94 -110t-139 -35q-69 0 -127.5 33zM421 314q-9 47 -43 73.5t-86 26.5
q-48 0 -84 -28t-50 -72h263zM147 700h118v-124h-118v124zM327 700h118v-124h-118v124z" />
    <glyph glyph-name="edotaccent" unicode="&#x117;" horiz-adv-x="575" 
d="M162.5 19q-58.5 33 -93 93t-34.5 136q0 77 35 136.5t94.5 92.5t131.5 33q70 0 125 -31.5t86 -88t31 -128.5v-44h-382q6 -57 43 -90.5t93 -33.5q49 0 81.5 22.5t55.5 68.5l94 -54q-37 -75 -94 -110t-139 -35q-69 0 -127.5 33zM421 314q-9 47 -43 73.5t-86 26.5
q-48 0 -84 -28t-50 -72h263zM227 700h138v-132h-138v132z" />
    <glyph glyph-name="egrave" unicode="&#xe8;" horiz-adv-x="575" 
d="M162.5 19q-58.5 33 -93 93t-34.5 136q0 77 35 136.5t94.5 92.5t131.5 33q70 0 125 -31.5t86 -88t31 -128.5v-44h-382q6 -57 43 -90.5t93 -33.5q49 0 81.5 22.5t55.5 68.5l94 -54q-37 -75 -94 -110t-139 -35q-69 0 -127.5 33zM421 314q-9 47 -43 73.5t-86 26.5
q-48 0 -84 -28t-50 -72h263zM142 708h153l68 -158h-97z" />
    <glyph glyph-name="emacron" unicode="&#x113;" horiz-adv-x="575" 
d="M162.5 19q-58.5 33 -93 93t-34.5 136q0 77 35 136.5t94.5 92.5t131.5 33q70 0 125 -31.5t86 -88t31 -128.5v-44h-382q6 -57 43 -90.5t93 -33.5q49 0 81.5 22.5t55.5 68.5l94 -54q-37 -75 -94 -110t-139 -35q-69 0 -127.5 33zM421 314q-9 47 -43 73.5t-86 26.5
q-48 0 -84 -28t-50 -72h263zM172 682h248v-94h-248v94z" />
    <glyph glyph-name="eogonek" unicode="&#x119;" horiz-adv-x="575" 
d="M538 218h-382q6 -57 43 -90.5t93 -33.5q49 0 81.5 22.5t55.5 68.5l94 -54q-49 -101 -139 -131q-32 -18 -52 -38t-20 -40q0 -18 11.5 -28t29.5 -10q9 0 22 2l11 -77q-26 -7 -60 -7q-45 0 -79.5 25t-34.5 69q0 52 45 92q-62 8 -112.5 42.5t-80 91t-29.5 126.5
q0 77 35 136.5t94.5 92.5t131.5 33q70 0 125 -31.5t86 -88t31 -128.5v-44zM421 314q-9 47 -43 73.5t-86 26.5q-48 0 -84 -28t-50 -72h263z" />
    <glyph glyph-name="f" unicode="f" horiz-adv-x="342" 
d="M91 394h-72v102h72v70q0 89 48.5 136.5t127.5 47.5q34 0 63 -11l-22 -111q-18 6 -35 6q-27 0 -41.5 -17t-14.5 -48v-73h108v-102h-108v-394h-126v394z" />
    <glyph glyph-name="g" unicode="g" horiz-adv-x="597" 
d="M118.5 -172.5q-63.5 45.5 -63.5 124.5q0 32 14 57l120 -37q-6 -17 -6 -34q0 -25 29 -40.5t81 -15.5q122 0 122 136v64q-20 -33 -55.5 -53.5t-85.5 -20.5q-65 0 -120 32t-87 89.5t-32 129.5t33 129.5t88 89.5t119 32q45 0 81.5 -17.5t58.5 -50.5v54h126v-462
q0 -123 -67 -187.5t-181 -64.5q-111 0 -174.5 45.5zM383 156q39 38 39 103t-39 103t-95 38q-55 0 -93 -37.5t-38 -103.5t38 -103.5t93 -37.5q56 0 95 38z" />
    <glyph glyph-name="gbreve" unicode="&#x11f;" horiz-adv-x="597" 
d="M118.5 -172.5q-63.5 45.5 -63.5 124.5q0 32 14 57l120 -37q-6 -17 -6 -34q0 -25 29 -40.5t81 -15.5q122 0 122 136v64q-20 -33 -55.5 -53.5t-85.5 -20.5q-65 0 -120 32t-87 89.5t-32 129.5t33 129.5t88 89.5t119 32q45 0 81.5 -17.5t58.5 -50.5v54h126v-462
q0 -123 -67 -187.5t-181 -64.5q-111 0 -174.5 45.5zM383 156q39 38 39 103t-39 103t-95 38q-55 0 -93 -37.5t-38 -103.5t38 -103.5t93 -37.5q56 0 95 38zM203.5 596q-31.5 32 -31.5 81h76q0 -19 10 -31t28 -12t28 12t10 31h76q0 -49 -31.5 -81t-82.5 -32t-82.5 32z" />
    <glyph glyph-name="gcircumflex" unicode="&#x11d;" horiz-adv-x="597" 
d="M118.5 -172.5q-63.5 45.5 -63.5 124.5q0 32 14 57l120 -37q-6 -17 -6 -34q0 -25 29 -40.5t81 -15.5q122 0 122 136v64q-20 -33 -55.5 -53.5t-85.5 -20.5q-65 0 -120 32t-87 89.5t-32 129.5t33 129.5t88 89.5t119 32q45 0 81.5 -17.5t58.5 -50.5v54h126v-462
q0 -123 -67 -187.5t-181 -64.5q-111 0 -174.5 45.5zM383 156q39 38 39 103t-39 103t-95 38q-55 0 -93 -37.5t-38 -103.5t38 -103.5t93 -37.5q56 0 95 38zM241 707h90l113 -157h-99l-59 60l-59 -60h-99z" />
    <glyph glyph-name="uni0123" unicode="&#x123;" horiz-adv-x="597" 
d="M118.5 -172.5q-63.5 45.5 -63.5 124.5q0 32 14 57l120 -37q-6 -17 -6 -34q0 -25 29 -40.5t81 -15.5q122 0 122 136v64q-20 -33 -55.5 -53.5t-85.5 -20.5q-65 0 -120 32t-87 89.5t-32 129.5t33 129.5t88 89.5t119 32q45 0 81.5 -17.5t58.5 -50.5v54h126v-462
q0 -123 -67 -187.5t-181 -64.5q-111 0 -174.5 45.5zM383 156q39 38 39 103t-39 103t-95 38q-55 0 -93 -37.5t-38 -103.5t38 -103.5t93 -37.5q56 0 95 38zM218 686l111 136l25 -18l-61 -118h51v-123h-126v123z" />
    <glyph glyph-name="gdotaccent" unicode="&#x121;" horiz-adv-x="597" 
d="M118.5 -172.5q-63.5 45.5 -63.5 124.5q0 32 14 57l120 -37q-6 -17 -6 -34q0 -25 29 -40.5t81 -15.5q122 0 122 136v64q-20 -33 -55.5 -53.5t-85.5 -20.5q-65 0 -120 32t-87 89.5t-32 129.5t33 129.5t88 89.5t119 32q45 0 81.5 -17.5t58.5 -50.5v54h126v-462
q0 -123 -67 -187.5t-181 -64.5q-111 0 -174.5 45.5zM383 156q39 38 39 103t-39 103t-95 38q-55 0 -93 -37.5t-38 -103.5t38 -103.5t93 -37.5q56 0 95 38zM217 700h138v-132h-138v132z" />
    <glyph glyph-name="h" unicode="h" horiz-adv-x="600" 
d="M63 700h126v-282q28 44 73 68t99 24q81 0 128.5 -47.5t47.5 -127.5v-335h-126v286q0 50 -25.5 78t-74.5 28q-53 0 -87.5 -39t-34.5 -101v-252h-126v700z" />
    <glyph glyph-name="hbar" unicode="&#x127;" horiz-adv-x="600" 
d="M489.5 462.5q47.5 -47.5 47.5 -127.5v-335h-126v286q0 50 -25.5 78t-74.5 28q-53 0 -87.5 -39t-34.5 -101v-252h-126v552h-54v96h54v52h126v-52h168v-96h-168v-134q28 44 73 68t99 24q81 0 128.5 -47.5z" />
    <glyph glyph-name="hcircumflex" unicode="&#x125;" horiz-adv-x="600" 
d="M63 700h126v-282q28 44 73 68t99 24q81 0 128.5 -47.5t47.5 -127.5v-335h-126v286q0 50 -25.5 78t-74.5 28q-53 0 -87.5 -39t-34.5 -101v-252h-126v700zM154 911h90l113 -157h-99l-59 60l-59 -60h-99z" />
    <glyph glyph-name="i" unicode="i" horiz-adv-x="252" 
d="M63 496h126v-496h-126v496zM57 700h138v-132h-138v132z" />
    <glyph glyph-name="dotlessi" unicode="&#x131;" horiz-adv-x="252" 
d="M63 496h126v-496h-126v496z" />
    <glyph glyph-name="iacute" unicode="&#xed;" horiz-adv-x="252" 
d="M63 496h126v-496h-126v496zM134 708h153l-125 -158h-97z" />
    <glyph glyph-name="ibreve" unicode="&#x12d;" horiz-adv-x="252" 
d="M63 496h126v-496h-126v496zM43.5 596q-31.5 32 -31.5 81h76q0 -19 10 -31t28 -12t28 12t10 31h76q0 -49 -31.5 -81t-82.5 -32t-82.5 32z" />
    <glyph glyph-name="icircumflex" unicode="&#xee;" horiz-adv-x="252" 
d="M63 496h126v-496h-126v496zM81 707h90l113 -157h-99l-59 60l-59 -60h-99z" />
    <glyph glyph-name="idieresis" unicode="&#xef;" horiz-adv-x="252" 
d="M63 496h126v-496h-126v496zM-23 700h118v-124h-118v124zM157 700h118v-124h-118v124z" />
    <glyph glyph-name="i.loclTRK" horiz-adv-x="252" 
d="M63 496h126v-496h-126v496zM57 700h138v-132h-138v132z" />
    <glyph glyph-name="igrave" unicode="&#xec;" horiz-adv-x="252" 
d="M63 496h126v-496h-126v496zM-28 708h153l68 -158h-97z" />
    <glyph glyph-name="ij" unicode="&#x133;" horiz-adv-x="504" 
d="M63 496h126v-496h-126v496zM57 700h138v-132h-138v132zM204 -201l16 114q19 -8 39 -8q30 0 43 17.5t13 53.5v520h126v-534q0 -84 -40.5 -128.5t-121.5 -44.5q-39 0 -75 10zM309 700h138v-132h-138v132z" />
    <glyph glyph-name="imacron" unicode="&#x12b;" horiz-adv-x="252" 
d="M63 496h126v-496h-126v496zM2 682h248v-94h-248v94z" />
    <glyph glyph-name="iogonek" unicode="&#x12f;" horiz-adv-x="252" 
d="M195 700v-132h-138v132h138zM180 -114l11 -77q-26 -7 -60 -7q-45 0 -79.5 25t-34.5 69q0 61 59 104h-13v496h126v-496q-32 -18 -52 -38t-20 -40q0 -18 11.5 -28t29.5 -10q9 0 22 2z" />
    <glyph glyph-name="itilde" unicode="&#x129;" horiz-adv-x="252" 
d="M63 496h126v-496h-126v496zM147 561q-22 11 -47 31q-14 12 -24.5 18t-22.5 6q-10 0 -16.5 -6t-6.5 -16q0 -12 7 -26l-74 -15q-6 9 -10 24t-4 29q0 43 30 67t68 24q36 0 58 -11t47 -31q14 -12 24.5 -18t22.5 -6q10 0 16.5 6t6.5 16q0 12 -7 26l74 15q6 -9 10 -24t4 -29
q0 -43 -30 -67t-68 -24q-36 0 -58 11z" />
    <glyph glyph-name="j" unicode="j" horiz-adv-x="252" 
d="M-48 -201l16 114q19 -8 39 -8q30 0 43 17.5t13 53.5v520h126v-534q0 -84 -40.5 -128.5t-121.5 -44.5q-39 0 -75 10zM57 700h138v-132h-138v132z" />
    <glyph glyph-name="uni0237" unicode="&#x237;" horiz-adv-x="252" 
d="M-48 -201l16 114q19 -8 39 -8q30 0 43 17.5t13 53.5v520h126v-534q0 -84 -40.5 -128.5t-121.5 -44.5q-39 0 -75 10z" />
    <glyph glyph-name="jcircumflex" unicode="&#x135;" horiz-adv-x="252" 
d="M-48 -201l16 114q19 -8 39 -8q30 0 43 17.5t13 53.5v520h126v-534q0 -84 -40.5 -128.5t-121.5 -44.5q-39 0 -75 10zM81 707h90l113 -157h-99l-59 60l-59 -60h-99z" />
    <glyph glyph-name="k" unicode="k" horiz-adv-x="541" 
d="M63 700h126v-354l151 150h156l-181 -177l205 -319h-145l-148 232l-38 -37v-195h-126v700z" />
    <glyph glyph-name="uni0137" unicode="&#x137;" horiz-adv-x="541" 
d="M63 700h126v-354l151 150h156l-181 -177l205 -319h-145l-148 232l-38 -37v-195h-126v700zM219 -303l37 121h-44v122h126v-122l-90 -132z" />
    <glyph glyph-name="kgreenlandic" unicode="&#x138;" horiz-adv-x="541" 
d="M63 496h126v-158l151 158h156l-186 -190l210 -306h-145l-152 217l-34 -35v-182h-126v496z" />
    <glyph glyph-name="l" unicode="l" horiz-adv-x="252" 
d="M63 700h126v-700h-126v700z" />
    <glyph glyph-name="lacute" unicode="&#x13a;" horiz-adv-x="252" 
d="M63 700h126v-700h-126v700zM134 912h153l-125 -158h-97z" />
    <glyph glyph-name="lcaron" unicode="&#x13e;" horiz-adv-x="358" 
d="M63 700h126v-700h-126v700zM258 499l39 95h-45v106h106v-108l-74 -108z" />
    <glyph glyph-name="uni013C" unicode="&#x13c;" horiz-adv-x="252" 
d="M63 700h126v-700h-126v700zM70 -303l37 121h-44v122h126v-122l-90 -132z" />
    <glyph glyph-name="ldot" unicode="&#x140;" horiz-adv-x="386" 
d="M63 700h126v-700h-126v700zM252 417h134v-134h-134v134z" />
    <glyph glyph-name="lslash" unicode="&#x142;" horiz-adv-x="252" 
d="M254 376l-65 -41v-335h-126v254l-65 -41v110l65 41v336h126v-255l65 41v-110z" />
    <glyph glyph-name="m" unicode="m" horiz-adv-x="852" 
d="M63 496h126v-66q26 41 64 60.5t80 19.5q104 0 138 -85q26 42 68 63.5t90 21.5q76 0 118 -44t42 -119v-347h-126v307q0 93 -78 93q-43 0 -69.5 -32t-26.5 -92v-276h-126v305q0 95 -80 95q-39 0 -66.5 -32.5t-27.5 -89.5v-278h-126v496z" />
    <glyph glyph-name="n" unicode="n" horiz-adv-x="594" 
d="M63 496h126v-80q29 44 72 69t96 25q79 0 126.5 -47t47.5 -125v-338h-126v286q0 50 -25 78t-76 28q-50 0 -82.5 -39t-32.5 -101v-252h-126v496z" />
    <glyph glyph-name="nacute" unicode="&#x144;" horiz-adv-x="594" 
d="M63 496h126v-80q29 44 72 69t96 25q79 0 126.5 -47t47.5 -125v-338h-126v286q0 50 -25 78t-76 28q-50 0 -82.5 -39t-32.5 -101v-252h-126v496zM305 708h153l-125 -158h-97z" />
    <glyph glyph-name="ncaron" unicode="&#x148;" horiz-adv-x="594" 
d="M63 496h126v-80q29 44 72 69t96 25q79 0 126.5 -47t47.5 -125v-338h-126v286q0 50 -25 78t-76 28q-50 0 -82.5 -39t-32.5 -101v-252h-126v496zM139 707h99l59 -60l59 60h99l-113 -157h-90z" />
    <glyph glyph-name="uni0146" unicode="&#x146;" horiz-adv-x="594" 
d="M63 496h126v-80q29 44 72 69t96 25q79 0 126.5 -47t47.5 -125v-338h-126v286q0 50 -25 78t-76 28q-50 0 -82.5 -39t-32.5 -101v-252h-126v496zM241 -303l37 121h-44v122h126v-122l-90 -132z" />
    <glyph glyph-name="eng" unicode="&#x14b;" horiz-adv-x="594" 
d="M294 -201l16 114q19 -8 39 -8q30 0 43 17.5t13 53.5v310q0 50 -25 78t-76 28q-50 0 -82.5 -39t-32.5 -101v-252h-126v496h126v-80q30 45 72.5 69.5t94.5 24.5q79 0 127 -47.5t48 -124.5v-376q0 -84 -40.5 -128.5t-121.5 -44.5q-39 0 -75 10z" />
    <glyph glyph-name="ntilde" unicode="&#xf1;" horiz-adv-x="594" 
d="M63 496h126v-80q29 44 72 69t96 25q79 0 126.5 -47t47.5 -125v-338h-126v286q0 50 -25 78t-76 28q-50 0 -82.5 -39t-32.5 -101v-252h-126v496zM318 561q-22 11 -47 31q-14 12 -24.5 18t-22.5 6q-10 0 -16.5 -6t-6.5 -16q0 -12 7 -26l-74 -15q-6 9 -10 24t-4 29
q0 43 30 67t68 24q36 0 58 -11t47 -31q14 -12 24.5 -18t22.5 -6q10 0 16.5 6t6.5 16q0 12 -7 26l74 15q6 -9 10 -24t4 -29q0 -43 -30 -67t-68 -24q-36 0 -58 11z" />
    <glyph glyph-name="o" unicode="o" horiz-adv-x="612" 
d="M173.5 16q-62.5 30 -100.5 89.5t-38 142.5t38 142.5t100.5 89.5t132.5 30t132.5 -30t100.5 -89.5t38 -142.5t-38 -142.5t-100.5 -89.5t-132.5 -30t-132.5 30zM376.5 121.5q32.5 17.5 52.5 50t20 76.5t-20 76.5t-52.5 50t-70.5 17.5t-70.5 -17.5t-52.5 -50t-20 -76.5
t20 -76.5t52.5 -50t70.5 -17.5t70.5 17.5z" />
    <glyph glyph-name="oacute" unicode="&#xf3;" horiz-adv-x="612" 
d="M173.5 16q-62.5 30 -100.5 89.5t-38 142.5t38 142.5t100.5 89.5t132.5 30t132.5 -30t100.5 -89.5t38 -142.5t-38 -142.5t-100.5 -89.5t-132.5 -30t-132.5 30zM376.5 121.5q32.5 17.5 52.5 50t20 76.5t-20 76.5t-52.5 50t-70.5 17.5t-70.5 -17.5t-52.5 -50t-20 -76.5
t20 -76.5t52.5 -50t70.5 -17.5t70.5 17.5zM314 708h153l-125 -158h-97z" />
    <glyph glyph-name="obreve" unicode="&#x14f;" horiz-adv-x="612" 
d="M173.5 16q-62.5 30 -100.5 89.5t-38 142.5t38 142.5t100.5 89.5t132.5 30t132.5 -30t100.5 -89.5t38 -142.5t-38 -142.5t-100.5 -89.5t-132.5 -30t-132.5 30zM376.5 121.5q32.5 17.5 52.5 50t20 76.5t-20 76.5t-52.5 50t-70.5 17.5t-70.5 -17.5t-52.5 -50t-20 -76.5
t20 -76.5t52.5 -50t70.5 -17.5t70.5 17.5zM223.5 596q-31.5 32 -31.5 81h76q0 -19 10 -31t28 -12t28 12t10 31h76q0 -49 -31.5 -81t-82.5 -32t-82.5 32z" />
    <glyph glyph-name="ocircumflex" unicode="&#xf4;" horiz-adv-x="612" 
d="M173.5 16q-62.5 30 -100.5 89.5t-38 142.5t38 142.5t100.5 89.5t132.5 30t132.5 -30t100.5 -89.5t38 -142.5t-38 -142.5t-100.5 -89.5t-132.5 -30t-132.5 30zM376.5 121.5q32.5 17.5 52.5 50t20 76.5t-20 76.5t-52.5 50t-70.5 17.5t-70.5 -17.5t-52.5 -50t-20 -76.5
t20 -76.5t52.5 -50t70.5 -17.5t70.5 17.5zM261 707h90l113 -157h-99l-59 60l-59 -60h-99z" />
    <glyph glyph-name="odieresis" unicode="&#xf6;" horiz-adv-x="612" 
d="M173.5 16q-62.5 30 -100.5 89.5t-38 142.5t38 142.5t100.5 89.5t132.5 30t132.5 -30t100.5 -89.5t38 -142.5t-38 -142.5t-100.5 -89.5t-132.5 -30t-132.5 30zM376.5 121.5q32.5 17.5 52.5 50t20 76.5t-20 76.5t-52.5 50t-70.5 17.5t-70.5 -17.5t-52.5 -50t-20 -76.5
t20 -76.5t52.5 -50t70.5 -17.5t70.5 17.5zM157 700h118v-124h-118v124zM337 700h118v-124h-118v124z" />
    <glyph glyph-name="ograve" unicode="&#xf2;" horiz-adv-x="612" 
d="M173.5 16q-62.5 30 -100.5 89.5t-38 142.5t38 142.5t100.5 89.5t132.5 30t132.5 -30t100.5 -89.5t38 -142.5t-38 -142.5t-100.5 -89.5t-132.5 -30t-132.5 30zM376.5 121.5q32.5 17.5 52.5 50t20 76.5t-20 76.5t-52.5 50t-70.5 17.5t-70.5 -17.5t-52.5 -50t-20 -76.5
t20 -76.5t52.5 -50t70.5 -17.5t70.5 17.5zM152 708h153l68 -158h-97z" />
    <glyph glyph-name="ohungarumlaut" unicode="&#x151;" horiz-adv-x="612" 
d="M173.5 16q-62.5 30 -100.5 89.5t-38 142.5t38 142.5t100.5 89.5t132.5 30t132.5 -30t100.5 -89.5t38 -142.5t-38 -142.5t-100.5 -89.5t-132.5 -30t-132.5 30zM376.5 121.5q32.5 17.5 52.5 50t20 76.5t-20 76.5t-52.5 50t-70.5 17.5t-70.5 -17.5t-52.5 -50t-20 -76.5
t20 -76.5t52.5 -50t70.5 -17.5t70.5 17.5zM212 708h153l-124 -158h-97zM401 708h153l-124 -158h-97z" />
    <glyph glyph-name="omacron" unicode="&#x14d;" horiz-adv-x="612" 
d="M173.5 16q-62.5 30 -100.5 89.5t-38 142.5t38 142.5t100.5 89.5t132.5 30t132.5 -30t100.5 -89.5t38 -142.5t-38 -142.5t-100.5 -89.5t-132.5 -30t-132.5 30zM376.5 121.5q32.5 17.5 52.5 50t20 76.5t-20 76.5t-52.5 50t-70.5 17.5t-70.5 -17.5t-52.5 -50t-20 -76.5
t20 -76.5t52.5 -50t70.5 -17.5t70.5 17.5zM182 682h248v-94h-248v94z" />
    <glyph glyph-name="oslash" unicode="&#xf8;" horiz-adv-x="612" 
d="M552 366.5q25 -51.5 25 -118.5q0 -83 -38 -142.5t-100.5 -89.5t-132.5 -30q-48 0 -90 13l-24 -41l-83 51l20 35q-44 34 -69 85.5t-25 118.5q0 83 38 142.5t100.5 89.5t132.5 30q48 0 90 -13l24 41l83 -51l-20 -35q44 -34 69 -85.5zM195 155l138 235q-18 2 -27 2
q-38 0 -70.5 -17.5t-52.5 -50t-20 -76.5q0 -56 32 -93zM376.5 121.5q32.5 17.5 52.5 50t20 76.5q0 56 -32 93l-138 -235q18 -2 27 -2q38 0 70.5 17.5z" />
    <glyph glyph-name="otilde" unicode="&#xf5;" horiz-adv-x="612" 
d="M173.5 16q-62.5 30 -100.5 89.5t-38 142.5t38 142.5t100.5 89.5t132.5 30t132.5 -30t100.5 -89.5t38 -142.5t-38 -142.5t-100.5 -89.5t-132.5 -30t-132.5 30zM376.5 121.5q32.5 17.5 52.5 50t20 76.5t-20 76.5t-52.5 50t-70.5 17.5t-70.5 -17.5t-52.5 -50t-20 -76.5
t20 -76.5t52.5 -50t70.5 -17.5t70.5 17.5zM327 561q-22 11 -47 31q-14 12 -24.5 18t-22.5 6q-10 0 -16.5 -6t-6.5 -16q0 -12 7 -26l-74 -15q-6 9 -10 24t-4 29q0 43 30 67t68 24q36 0 58 -11t47 -31q14 -12 24.5 -18t22.5 -6q10 0 16.5 6t6.5 16q0 12 -7 26l74 15
q6 -9 10 -24t4 -29q0 -43 -30 -67t-68 -24q-36 0 -58 11z" />
    <glyph glyph-name="oe" unicode="&#x153;" horiz-adv-x="996" 
d="M173.5 16q-62.5 30 -100.5 89.5t-38 142.5t38 142.5t100.5 89.5t132.5 30q60 0 115.5 -24t94.5 -68q37 43 89 67.5t112 24.5q70 0 125 -31.5t86 -88t31 -128.5v-44h-382q6 -57 43 -90.5t93 -33.5q49 0 82 23t55 68l94 -54q-36 -73 -93 -109t-140 -36q-57 0 -108 24
t-87 66q-38 -43 -94 -66.5t-116 -23.5q-70 0 -132.5 30zM843 310q-9 49 -43 76.5t-87 27.5q-49 0 -85.5 -29.5t-50.5 -74.5h266zM376.5 121.5q32.5 17.5 52.5 50t20 76.5t-20 76.5t-52.5 50t-70.5 17.5t-70.5 -17.5t-52.5 -50t-20 -76.5t20 -76.5t52.5 -50t70.5 -17.5
t70.5 17.5z" />
    <glyph glyph-name="p" unicode="p" horiz-adv-x="624" 
d="M63 496h126v-71q26 38 72 61.5t100 23.5q63 0 115 -31.5t82.5 -91t30.5 -139.5q0 -78 -32 -137.5t-86.5 -92t-120.5 -32.5q-51 0 -92 20t-69 55v-265h-126v700zM421 145.5q40 41.5 40 102.5t-40 102.5t-100 41.5t-100 -41.5t-40 -102.5t40 -102.5t100 -41.5t100 41.5z
" />
    <glyph glyph-name="thorn" unicode="&#xfe;" horiz-adv-x="624" 
d="M63 700h126v-275q26 37 73 61t102 24q61 0 112.5 -31.5t82 -91t30.5 -139.5q0 -78 -31.5 -137.5t-85.5 -92t-120 -32.5q-51 0 -93 20t-70 55v-265h-126v904zM421 145.5q40 41.5 40 102.5t-40 102.5t-100 41.5t-100 -41.5t-40 -102.5t40 -102.5t100 -41.5t100 41.5z" />
    <glyph glyph-name="q" unicode="q" horiz-adv-x="624" 
d="M435 66q-24 -39 -65 -59.5t-95 -20.5q-63 0 -118.5 33t-88.5 92.5t-33 136.5q0 79 34 138.5t89.5 91.5t116.5 32q56 0 98 -22.5t62 -62.5v71h126v-700h-126v270zM403 145.5q40 41.5 40 102.5t-40 102.5t-100 41.5t-100 -41.5t-40 -102.5t40 -102.5t100 -41.5t100 41.5z
" />
    <glyph glyph-name="r" unicode="r" horiz-adv-x="384" 
d="M63 496h126v-79q22 44 56.5 68.5t81.5 24.5q23 0 43 -6l-20 -119q-19 7 -41 7q-55 0 -87.5 -41.5t-32.5 -105.5v-245h-126v496z" />
    <glyph glyph-name="racute" unicode="&#x155;" horiz-adv-x="384" 
d="M63 496h126v-79q22 44 56.5 68.5t81.5 24.5q23 0 43 -6l-20 -119q-19 7 -41 7q-55 0 -87.5 -41.5t-32.5 -105.5v-245h-126v496zM232 708h153l-125 -158h-97z" />
    <glyph glyph-name="rcaron" unicode="&#x159;" horiz-adv-x="384" 
d="M63 496h126v-79q22 44 56.5 68.5t81.5 24.5q23 0 43 -6l-20 -119q-19 7 -41 7q-55 0 -87.5 -41.5t-32.5 -105.5v-245h-126v496zM66 707h99l59 -60l59 60h99l-113 -157h-90z" />
    <glyph glyph-name="uni0157" unicode="&#x157;" horiz-adv-x="384" 
d="M63 496h126v-79q22 44 56.5 68.5t81.5 24.5q23 0 43 -6l-20 -119q-19 7 -41 7q-55 0 -87.5 -41.5t-32.5 -105.5v-245h-126v496zM70 -303l37 121h-44v122h126v-122l-90 -132z" />
    <glyph glyph-name="s" unicode="s" horiz-adv-x="489" 
d="M124.5 28q-56.5 42 -84.5 107l101 64q17 -49 49.5 -78t78.5 -29q31 0 54.5 14.5t23.5 40.5q0 24 -25 38.5t-81 25.5q-79 15 -126 53t-47 102q0 45 25.5 77.5t67.5 49.5t92 17q79 0 126.5 -30t78.5 -95l-91 -54q-16 41 -45 64t-67 23q-33 0 -54 -11t-21 -33q0 -24 29 -41
t88 -29q87 -18 126.5 -54.5t39.5 -98.5q0 -47 -23.5 -84.5t-68 -59t-104.5 -21.5q-86 0 -142.5 42z" />
    <glyph glyph-name="sacute" unicode="&#x15b;" horiz-adv-x="489" 
d="M124.5 28q-56.5 42 -84.5 107l101 64q17 -49 49.5 -78t78.5 -29q31 0 54.5 14.5t23.5 40.5q0 24 -25 38.5t-81 25.5q-79 15 -126 53t-47 102q0 45 25.5 77.5t67.5 49.5t92 17q79 0 126.5 -30t78.5 -95l-91 -54q-16 41 -45 64t-67 23q-33 0 -54 -11t-21 -33q0 -24 29 -41
t88 -29q87 -18 126.5 -54.5t39.5 -98.5q0 -47 -23.5 -84.5t-68 -59t-104.5 -21.5q-86 0 -142.5 42zM255 708h153l-125 -158h-97z" />
    <glyph glyph-name="scaron" unicode="&#x161;" horiz-adv-x="489" 
d="M124.5 28q-56.5 42 -84.5 107l101 64q17 -49 49.5 -78t78.5 -29q31 0 54.5 14.5t23.5 40.5q0 24 -25 38.5t-81 25.5q-79 15 -126 53t-47 102q0 45 25.5 77.5t67.5 49.5t92 17q79 0 126.5 -30t78.5 -95l-91 -54q-16 41 -45 64t-67 23q-33 0 -54 -11t-21 -33q0 -24 29 -41
t88 -29q87 -18 126.5 -54.5t39.5 -98.5q0 -47 -23.5 -84.5t-68 -59t-104.5 -21.5q-86 0 -142.5 42zM89 707h99l59 -60l59 60h99l-113 -157h-90z" />
    <glyph glyph-name="scedilla" unicode="&#x15f;" horiz-adv-x="489" 
d="M255 -14l-23 -39q17 9 40 9q35 0 56.5 -22t21.5 -56q0 -38 -27.5 -60t-67.5 -22q-38 0 -62.5 16t-31.5 45l66 17q4 -22 28 -22q11 0 18 6.5t7 18.5q0 14 -7.5 21.5t-20.5 7.5q-14 0 -24 -4.5t-21 -13.5l-37 33l26 74q-57 16 -96 53t-60 87l101 64q17 -49 49.5 -78
t78.5 -29q31 0 54.5 14.5t23.5 40.5q0 24 -25 38.5t-81 25.5q-79 15 -126 53t-47 102q0 45 25.5 77.5t67.5 49.5t92 17q79 0 126.5 -30t78.5 -95l-91 -54q-16 41 -45 64t-67 23q-33 0 -54 -11t-21 -33q0 -24 29 -41t88 -29q87 -18 126.5 -54.5t39.5 -98.5q0 -47 -23.5 -84.5
t-68 -59t-104.5 -21.5h-12z" />
    <glyph glyph-name="scircumflex" unicode="&#x15d;" horiz-adv-x="489" 
d="M124.5 28q-56.5 42 -84.5 107l101 64q17 -49 49.5 -78t78.5 -29q31 0 54.5 14.5t23.5 40.5q0 24 -25 38.5t-81 25.5q-79 15 -126 53t-47 102q0 45 25.5 77.5t67.5 49.5t92 17q79 0 126.5 -30t78.5 -95l-91 -54q-16 41 -45 64t-67 23q-33 0 -54 -11t-21 -33q0 -24 29 -41
t88 -29q87 -18 126.5 -54.5t39.5 -98.5q0 -47 -23.5 -84.5t-68 -59t-104.5 -21.5q-86 0 -142.5 42zM202 707h90l113 -157h-99l-59 60l-59 -60h-99z" />
    <glyph glyph-name="uni0219" unicode="&#x219;" horiz-adv-x="489" 
d="M124.5 28q-56.5 42 -84.5 107l101 64q17 -49 49.5 -78t78.5 -29q31 0 54.5 14.5t23.5 40.5q0 24 -25 38.5t-81 25.5q-79 15 -126 53t-47 102q0 45 25.5 77.5t67.5 49.5t92 17q79 0 126.5 -30t78.5 -95l-91 -54q-16 41 -45 64t-67 23q-33 0 -54 -11t-21 -33q0 -24 29 -41
t88 -29q87 -18 126.5 -54.5t39.5 -98.5q0 -47 -23.5 -84.5t-68 -59t-104.5 -21.5q-86 0 -142.5 42zM204 -303l37 121h-44v122h126v-122l-90 -132z" />
    <glyph glyph-name="germandbls" unicode="&#xdf;" horiz-adv-x="602" 
d="M284.5 -3q-34.5 11 -63.5 34l55 98q33 -33 77 -33q34 0 58 24t24 70q0 62 -45.5 99t-112.5 37h-31v110h35q47 0 76 24.5t29 67.5q0 35 -23.5 55.5t-64.5 20.5q-40 0 -67.5 -27.5t-27.5 -79.5v-497h-126v394h-56v102h56v7q0 68 31 115.5t82 71.5t111 24q63 0 110.5 -21
t72.5 -59t25 -86q0 -58 -26.5 -95.5t-74.5 -60.5q74 -28 113.5 -78.5t39.5 -130.5q0 -58 -24.5 -103t-69 -69.5t-101.5 -24.5q-47 0 -81.5 11z" />
    <glyph glyph-name="t" unicode="t" horiz-adv-x="368" 
d="M144.5 22.5q-43.5 36.5 -43.5 121.5v250h-77v102h77v134h126v-134h108v-102h-108v-226q0 -70 63 -70q22 0 42 6l12 -104q-38 -14 -84 -14q-72 0 -115.5 36.5z" />
    <glyph glyph-name="tbar" unicode="&#x167;" horiz-adv-x="368" 
d="M144.5 22.5q-43.5 36.5 -43.5 121.5v68h-65v96h65v86h-77v102h77v134h126v-134h108v-102h-108v-86h95v-96h-95v-44q0 -70 63 -70q22 0 42 6l12 -104q-38 -14 -84 -14q-72 0 -115.5 36.5z" />
    <glyph glyph-name="tcaron" unicode="&#x165;" horiz-adv-x="368" 
d="M144.5 22.5q-43.5 36.5 -43.5 121.5v250h-77v102h77v134h126v-134h108v-102h-108v-226q0 -70 63 -70q22 0 42 6l12 -104q-38 -14 -84 -14q-72 0 -115.5 36.5zM274 562l39 95h-45v106h106v-108l-74 -108z" />
    <glyph glyph-name="uni0163" unicode="&#x163;" horiz-adv-x="368" 
d="M308.5 -66q21.5 -22 21.5 -56q0 -38 -27.5 -60t-67.5 -22q-38 0 -62.5 16t-31.5 45l66 17q4 -22 28 -22q11 0 18 6.5t7 18.5q0 14 -7.5 21.5t-20.5 7.5q-14 0 -24 -4.5t-21 -13.5l-37 33l28 80q-77 33 -77 143v250h-77v102h77v134h126v-134h108v-102h-108v-226
q0 -70 63 -70q22 0 42 6l12 -104q-38 -14 -84 -14q-16 0 -24 1l-24 -40q17 9 40 9q35 0 56.5 -22z" />
    <glyph glyph-name="uni021B" unicode="&#x21b;" horiz-adv-x="368" 
d="M144.5 22.5q-43.5 36.5 -43.5 121.5v250h-77v102h77v134h126v-134h108v-102h-108v-226q0 -70 63 -70q22 0 42 6l12 -104q-38 -14 -84 -14q-72 0 -115.5 36.5zM184 -303l37 121h-44v122h126v-122l-90 -132z" />
    <glyph glyph-name="u" unicode="u" horiz-adv-x="594" 
d="M114.5 39q-51.5 53 -51.5 149v308h126v-279q0 -113 101 -113q52 0 83.5 38t31.5 98v256h126v-496h-126v78q-24 -44 -65 -68t-93 -24q-81 0 -132.5 53z" />
    <glyph glyph-name="uacute" unicode="&#xfa;" horiz-adv-x="594" 
d="M114.5 39q-51.5 53 -51.5 149v308h126v-279q0 -113 101 -113q52 0 83.5 38t31.5 98v256h126v-496h-126v78q-24 -44 -65 -68t-93 -24q-81 0 -132.5 53zM305 708h153l-125 -158h-97z" />
    <glyph glyph-name="ubreve" unicode="&#x16d;" horiz-adv-x="594" 
d="M114.5 39q-51.5 53 -51.5 149v308h126v-279q0 -113 101 -113q52 0 83.5 38t31.5 98v256h126v-496h-126v78q-24 -44 -65 -68t-93 -24q-81 0 -132.5 53zM214.5 596q-31.5 32 -31.5 81h76q0 -19 10 -31t28 -12t28 12t10 31h76q0 -49 -31.5 -81t-82.5 -32t-82.5 32z" />
    <glyph glyph-name="ucircumflex" unicode="&#xfb;" horiz-adv-x="594" 
d="M114.5 39q-51.5 53 -51.5 149v308h126v-279q0 -113 101 -113q52 0 83.5 38t31.5 98v256h126v-496h-126v78q-24 -44 -65 -68t-93 -24q-81 0 -132.5 53zM252 707h90l113 -157h-99l-59 60l-59 -60h-99z" />
    <glyph glyph-name="udieresis" unicode="&#xfc;" horiz-adv-x="594" 
d="M114.5 39q-51.5 53 -51.5 149v308h126v-279q0 -113 101 -113q52 0 83.5 38t31.5 98v256h126v-496h-126v78q-24 -44 -65 -68t-93 -24q-81 0 -132.5 53zM148 700h118v-124h-118v124zM328 700h118v-124h-118v124z" />
    <glyph glyph-name="ugrave" unicode="&#xf9;" horiz-adv-x="594" 
d="M114.5 39q-51.5 53 -51.5 149v308h126v-279q0 -113 101 -113q52 0 83.5 38t31.5 98v256h126v-496h-126v78q-24 -44 -65 -68t-93 -24q-81 0 -132.5 53zM143 708h153l68 -158h-97z" />
    <glyph glyph-name="uhungarumlaut" unicode="&#x171;" horiz-adv-x="594" 
d="M114.5 39q-51.5 53 -51.5 149v308h126v-279q0 -113 101 -113q52 0 83.5 38t31.5 98v256h126v-496h-126v78q-24 -44 -65 -68t-93 -24q-81 0 -132.5 53zM203 708h153l-124 -158h-97zM392 708h153l-124 -158h-97z" />
    <glyph glyph-name="umacron" unicode="&#x16b;" horiz-adv-x="594" 
d="M114.5 39q-51.5 53 -51.5 149v308h126v-279q0 -113 101 -113q52 0 83.5 38t31.5 98v256h126v-496h-126v78q-24 -44 -65 -68t-93 -24q-81 0 -132.5 53zM173 682h248v-94h-248v94z" />
    <glyph glyph-name="uogonek" unicode="&#x173;" horiz-adv-x="594" 
d="M533 -191q-26 -7 -60 -7q-45 0 -79.5 25t-34.5 69q0 61 59 104h-13v78q-24 -44 -65 -68t-93 -24q-81 0 -132.5 53t-51.5 149v308h126v-279q0 -113 101 -113q52 0 83.5 38t31.5 98v256h126v-496q-32 -18 -52 -38t-20 -40q0 -18 11.5 -28t29.5 -10q9 0 22 2z" />
    <glyph glyph-name="uring" unicode="&#x16f;" horiz-adv-x="594" 
d="M114.5 39q-51.5 53 -51.5 149v308h126v-279q0 -113 101 -113q52 0 83.5 38t31.5 98v256h126v-496h-126v78q-24 -44 -65 -68t-93 -24q-81 0 -132.5 53zM230 567.5q-28 27.5 -28 67.5t28 67.5t68 27.5t68 -27.5t28 -67.5t-28 -67.5t-68 -27.5t-68 27.5zM322 610q9 9 9 25
t-9 25t-24 9t-24 -9t-9 -25t9 -25t24 -9t24 9z" />
    <glyph glyph-name="utilde" unicode="&#x169;" horiz-adv-x="594" 
d="M114.5 39q-51.5 53 -51.5 149v308h126v-279q0 -113 101 -113q52 0 83.5 38t31.5 98v256h126v-496h-126v78q-24 -44 -65 -68t-93 -24q-81 0 -132.5 53zM318 561q-22 11 -47 31q-14 12 -24.5 18t-22.5 6q-10 0 -16.5 -6t-6.5 -16q0 -12 7 -26l-74 -15q-6 9 -10 24t-4 29
q0 43 30 67t68 24q36 0 58 -11t47 -31q14 -12 24.5 -18t22.5 -6q10 0 16.5 6t6.5 16q0 12 -7 26l74 15q6 -9 10 -24t4 -29q0 -43 -30 -67t-68 -24q-36 0 -58 11z" />
    <glyph glyph-name="v" unicode="v" horiz-adv-x="534" 
d="M7 496h134l126 -336l126 336h134l-201 -496h-118z" />
    <glyph glyph-name="w" unicode="w" horiz-adv-x="714" 
d="M6 496h122l80 -332l89 332h120l89 -332l80 332h122l-138 -496h-122l-91 341l-91 -341h-122z" />
    <glyph glyph-name="wacute" unicode="&#x1e83;" horiz-adv-x="714" 
d="M6 496h122l80 -332l89 332h120l89 -332l80 332h122l-138 -496h-122l-91 341l-91 -341h-122zM365 708h153l-125 -158h-97z" />
    <glyph glyph-name="wcircumflex" unicode="&#x175;" horiz-adv-x="714" 
d="M6 496h122l80 -332l89 332h120l89 -332l80 332h122l-138 -496h-122l-91 341l-91 -341h-122zM312 707h90l113 -157h-99l-59 60l-59 -60h-99z" />
    <glyph glyph-name="wdieresis" unicode="&#x1e85;" horiz-adv-x="714" 
d="M6 496h122l80 -332l89 332h120l89 -332l80 332h122l-138 -496h-122l-91 341l-91 -341h-122zM208 700h118v-124h-118v124zM388 700h118v-124h-118v124z" />
    <glyph glyph-name="wgrave" unicode="&#x1e81;" horiz-adv-x="714" 
d="M6 496h122l80 -332l89 332h120l89 -332l80 332h122l-138 -496h-122l-91 341l-91 -341h-122zM203 708h153l68 -158h-97z" />
    <glyph glyph-name="x" unicode="x" horiz-adv-x="502" 
d="M184 262l-161 234h144l84 -133l84 133h146l-155 -231l174 -265h-147l-102 163l-104 -163h-145z" />
    <glyph glyph-name="y" unicode="y" horiz-adv-x="546" 
d="M72 -200l20 117q22 -12 45 -12q21 0 34 11t22 36l16 44l-204 500h143l128 -322l122 322h143l-236 -586q-26 -64 -65.5 -92.5t-98.5 -28.5q-41 0 -69 11z" />
    <glyph glyph-name="yacute" unicode="&#xfd;" horiz-adv-x="546" 
d="M72 -200l20 117q22 -12 45 -12q21 0 34 11t22 36l16 44l-204 500h143l128 -322l122 322h143l-236 -586q-26 -64 -65.5 -92.5t-98.5 -28.5q-41 0 -69 11zM281 708h153l-125 -158h-97z" />
    <glyph glyph-name="ycircumflex" unicode="&#x177;" horiz-adv-x="546" 
d="M72 -200l20 117q22 -12 45 -12q21 0 34 11t22 36l16 44l-204 500h143l128 -322l122 322h143l-236 -586q-26 -64 -65.5 -92.5t-98.5 -28.5q-41 0 -69 11zM228 707h90l113 -157h-99l-59 60l-59 -60h-99z" />
    <glyph glyph-name="ydieresis" unicode="&#xff;" horiz-adv-x="546" 
d="M72 -200l20 117q22 -12 45 -12q21 0 34 11t22 36l16 44l-204 500h143l128 -322l122 322h143l-236 -586q-26 -64 -65.5 -92.5t-98.5 -28.5q-41 0 -69 11zM124 700h118v-124h-118v124zM304 700h118v-124h-118v124z" />
    <glyph glyph-name="ygrave" unicode="&#x1ef3;" horiz-adv-x="546" 
d="M72 -200l20 117q22 -12 45 -12q21 0 34 11t22 36l16 44l-204 500h143l128 -322l122 322h143l-236 -586q-26 -64 -65.5 -92.5t-98.5 -28.5q-41 0 -69 11zM119 708h153l68 -158h-97z" />
    <glyph glyph-name="z" unicode="z" horiz-adv-x="496" 
d="M36 102l261 292h-250v102h396v-102l-262 -292h279v-102h-424v102z" />
    <glyph glyph-name="zacute" unicode="&#x17a;" horiz-adv-x="496" 
d="M36 102l261 292h-250v102h396v-102l-262 -292h279v-102h-424v102zM255 708h153l-125 -158h-97z" />
    <glyph glyph-name="zcaron" unicode="&#x17e;" horiz-adv-x="496" 
d="M36 102l261 292h-250v102h396v-102l-262 -292h279v-102h-424v102zM89 707h99l59 -60l59 60h99l-113 -157h-90z" />
    <glyph glyph-name="zdotaccent" unicode="&#x17c;" horiz-adv-x="496" 
d="M36 102l261 292h-250v102h396v-102l-262 -292h279v-102h-424v102zM178 700h138v-132h-138v132z" />
    <glyph glyph-name="uni01B6" unicode="&#x1b6;" horiz-adv-x="496" 
d="M36 102l96 108h-68v96h154l79 88h-250v102h396v-102l-79 -88h68v-96h-154l-97 -108h279v-102h-424v102z" />
    <glyph glyph-name="fi" unicode="&#xfb01;" horiz-adv-x="592" 
d="M91 394h-72v102h72v70q0 89 48.5 136.5t127.5 47.5q34 0 63 -11l-22 -111q-18 6 -35 6q-27 0 -41.5 -17t-14.5 -48v-73h313v-496h-126v394h-187v-394h-126v394zM398 700h138v-132h-138v132z" />
    <glyph glyph-name="fl" unicode="&#xfb02;" horiz-adv-x="594" 
d="M91 394h-72v102h72v70q0 89 48.5 136.5t127.5 47.5q34 0 63 -11l-22 -111q-18 6 -35 6q-27 0 -41.5 -17t-14.5 -48v-73h108v-102h-108v-394h-126v394zM405 700h126v-700h-126v700z" />
    <glyph glyph-name="ordfeminine" unicode="&#xaa;" horiz-adv-x="396" 
d="M74 323q-33 30 -33 78q0 50 38.5 79t97.5 38l92 15v9q0 25 -16 38.5t-48 13.5q-30 0 -47.5 -10.5t-17.5 -26.5q0 -5 1 -9l-80 -29q-6 14 -6 29q0 28 17.5 53t51.5 40.5t81 15.5q77 0 114 -31t37 -94v-144q0 -56 22 -88h-90q-6 7 -10.5 21t-4.5 34q-19 -30 -48.5 -46
t-66.5 -16q-51 0 -84 30zM244.5 391q24.5 26 24.5 70v9l-84 -13q-27 -4 -42.5 -16.5t-15.5 -32.5t14.5 -31.5t38.5 -11.5q40 0 64.5 26z" />
    <glyph glyph-name="ordmasculine" unicode="&#xba;" horiz-adv-x="458" 
d="M137 314q-43 21 -69.5 62t-26.5 99t26.5 99t69.5 62t92 21t92 -21t69.5 -62t26.5 -99t-26.5 -99t-69.5 -62t-92 -21t-92 21zM295.5 406q26.5 26 26.5 69t-26 69t-67 26t-67.5 -26t-26.5 -69t26.5 -69t67.5 -26q40 0 66.5 26z" />
    <glyph glyph-name="uni0394" unicode="&#x394;" horiz-adv-x="702" 
d="M288 700h126l283 -700h-692zM511 118l-134 351q-14 37 -26 76q-12 -39 -26 -76l-134 -351h320z" />
    <glyph glyph-name="uni03A9" unicode="&#x3a9;" horiz-adv-x="784" 
d="M58 96h138q-63 49 -106.5 124t-43.5 171q0 92 45.5 165.5t124.5 115.5t176 42t176 -42t124.5 -115.5t45.5 -165.5q0 -96 -43.5 -171t-106.5 -124h138v-96h-288v110q72 43 120 114.5t48 159.5q0 60 -27 107.5t-75.5 74t-111.5 26.5t-111.5 -26.5t-75.5 -74t-27 -107.5
q0 -88 48 -159.5t120 -114.5v-110h-288v96z" />
    <glyph glyph-name="uni03BC" unicode="&#x3bc;" horiz-adv-x="594" 
d="M63 496h126v-279q0 -113 101 -113q52 0 83.5 38t31.5 98v256h126v-496h-126v78q-24 -44 -65 -68t-93 -24q-32 0 -61 9q3 -57 3 -68v-131h-126v700z" />
    <glyph glyph-name="pi" unicode="&#x3c0;" horiz-adv-x="682" 
d="M461 26.5q-39 40.5 -39 117.5v250h-167v-394h-126v394h-104v102h627v-102h-104v-230q0 -66 54 -66q19 0 37 6l12 -104q-38 -14 -85 -14q-66 0 -105 40.5z" />
    <glyph glyph-name="zero" unicode="0" horiz-adv-x="722" 
d="M198 31q-72 45 -112.5 128t-40.5 191t40.5 191t112.5 128t163 45t163 -45t112.5 -128t40.5 -191t-40.5 -191t-112.5 -128t-163 -45t-163 45zM456.5 137q41.5 29 65 83.5t23.5 129.5t-23.5 129.5t-65 83.5t-95.5 29t-95.5 -29t-65 -83.5t-23.5 -129.5t23.5 -129.5
t65 -83.5t95.5 -29t95.5 29z" />
    <glyph glyph-name="one" unicode="1" horiz-adv-x="394" 
d="M193 537q-28 -27 -62 -37t-85 -10v122q59 0 95.5 21.5t59.5 66.5h124v-700h-132v537z" />
    <glyph glyph-name="two" unicode="2" horiz-adv-x="586" 
d="M47 94l266 261q45 44 63.5 75t18.5 68q0 45 -29 72.5t-78 27.5t-79 -26.5t-30 -72.5q0 -25 9 -48l-128 -24q-13 33 -13 79q0 55 29.5 103t84.5 76.5t127 28.5q75 0 128 -26t80 -71.5t27 -103.5q0 -69 -26.5 -120.5t-95.5 -117.5l-157 -153h279v-122h-476v94z" />
    <glyph glyph-name="three" unicode="3" horiz-adv-x="602" 
d="M165 15q-57 29 -86 78t-29 107q0 15 3 32.5t8 29.5l125 -30q-4 -12 -4 -29q0 -48 33 -76.5t86 -28.5q56 0 89.5 29t33.5 82q0 60 -48.5 88t-130.5 28v98q72 0 111 26.5t39 74.5q0 37 -26.5 59.5t-71.5 22.5q-44 0 -73 -22t-29 -59q0 -20 6 -34l-122 -27q-10 30 -10 55
q0 52 28 96.5t80 71.5t121 27q110 0 167.5 -47.5t57.5 -124.5q0 -54 -29 -95.5t-74 -61.5q60 -20 98 -64.5t38 -111.5t-32.5 -117.5t-90.5 -78t-132 -27.5q-79 0 -136 29z" />
    <glyph glyph-name="four" unicode="4" horiz-adv-x="614" 
d="M382 116h-341v122l341 462h132v-462h71v-122h-71v-116h-132v116zM382 238v276l-201 -276h201z" />
    <glyph glyph-name="five" unicode="5" horiz-adv-x="610" 
d="M164.5 13.5q-56.5 27.5 -86 73.5t-29.5 99q0 27 10 55l126 -30q-4 -14 -4 -26q0 -42 32.5 -64.5t85.5 -22.5q61 0 98 37.5t37 104.5q0 63 -37 99.5t-98 36.5q-42 0 -79 -22.5t-62 -62.5l-103 27l33 382h434v-122h-342l-17 -161q28 30 71 45.5t85 15.5q118 0 182.5 -64.5
t64.5 -173.5q0 -71 -33.5 -129t-94.5 -91.5t-140 -33.5q-77 0 -133.5 27.5z" />
    <glyph glyph-name="six" unicode="6" horiz-adv-x="619" 
d="M173.5 24q-61.5 38 -95 111t-33.5 174q0 130 41 230q36 84 99 129.5t147 45.5q66 0 115.5 -22t76 -61.5t26.5 -90.5q0 -31 -11 -56l-122 26q7 18 7 33q0 34 -25.5 51.5t-66.5 17.5q-70 0 -112 -65t-50 -162q32 34 76 53.5t93 19.5q69 0 123.5 -30t85 -83t30.5 -120
t-34 -121.5t-93.5 -86t-132.5 -31.5q-83 0 -144.5 38zM411.5 128.5q38.5 34.5 38.5 93.5t-38.5 93.5t-95.5 34.5t-95 -34.5t-38 -93.5t38 -93.5t95 -34.5t95.5 34.5z" />
    <glyph glyph-name="seven" unicode="7" horiz-adv-x="545" 
d="M374 578h-338v122h472v-116l-262 -584h-132z" />
    <glyph glyph-name="eight" unicode="8" horiz-adv-x="594" 
d="M164 12q-57 26 -87.5 73t-30.5 109q0 63 32 110t88 71q-48 24 -73.5 63.5t-25.5 91.5q0 53 29 95t81.5 65.5t119.5 23.5t119.5 -23.5t81.5 -65.5t29 -95q0 -52 -25.5 -91.5t-73.5 -63.5q56 -24 88 -71t32 -110q0 -62 -30.5 -109t-87.5 -73t-133 -26t-133 26zM370.5 450
q30.5 26 30.5 71t-30.5 70t-73.5 25t-73.5 -25t-30.5 -70t30.5 -71t73.5 -26t73.5 26zM385 125.5q35 31.5 35 79.5t-35 79.5t-88 31.5t-88 -31.5t-35 -79.5t35 -79.5t88 -31.5t88 31.5z" />
    <glyph glyph-name="nine" unicode="9" horiz-adv-x="619" 
d="M167.5 9q-49.5 23 -75 63.5t-25.5 90.5q0 28 9 53l124 -27q-7 -18 -7 -32q0 -33 28 -51t70 -18q66 0 108 60t50 167q-24 -32 -64.5 -52.5t-96.5 -20.5q-72 0 -128 30t-87.5 83t-31.5 120t33 122t92.5 86t134.5 31q132 0 202.5 -84t70.5 -239q0 -128 -42 -235
q-32 -82 -95.5 -126t-149.5 -44q-70 0 -119.5 23zM397.5 384.5q38.5 34.5 38.5 93.5t-38.5 93.5t-93.5 34.5t-95 -35t-40 -93t40 -93t95 -35t93.5 34.5z" />
    <glyph glyph-name="uni2080" unicode="&#x2080;" horiz-adv-x="388" 
d="M112 -188.5q-37 22.5 -58 64t-21 95.5t21 95.5t58 64t82 22.5t82 -22.5t58 -64t21 -95.5t-21 -95.5t-58 -64t-82 -22.5t-82 22.5zM250 -107.5q21 27.5 21 78.5t-21 78.5t-56 27.5t-56 -27.5t-21 -78.5t21 -78.5t56 -27.5t56 27.5z" />
    <glyph glyph-name="uni2081" unicode="&#x2081;" horiz-adv-x="254" 
d="M112 50q-12 -14 -29.5 -19t-44.5 -5v77q31 0 49 10.5t29 32.5h80v-350h-84v254z" />
    <glyph glyph-name="uni2082" unicode="&#x2082;" horiz-adv-x="339" 
d="M45 -151l132 127q18 18 26.5 33.5t8.5 31.5q0 20 -11.5 30.5t-31.5 10.5t-33.5 -11t-13.5 -31q0 -10 4 -24l-76 -11q-7 17 -7 40q0 27 15.5 52t44.5 40.5t66 15.5q58 0 91.5 -27.5t33.5 -75.5q0 -36 -13.5 -63t-47.5 -59l-65 -63h129v-69h-252v53z" />
    <glyph glyph-name="uni2083" unicode="&#x2083;" horiz-adv-x="348" 
d="M78.5 -181.5q-35.5 29.5 -35.5 75.5q0 22 7 36l79 -17q-2 -6 -2 -15q0 -20 14 -30t34 -10q22 0 37 11.5t15 32.5q0 27 -21.5 38t-61.5 11v60q32 0 51 11t19 30q0 17 -11.5 26t-30.5 9q-18 0 -31 -8.5t-13 -24.5q0 -11 3 -17l-73 -10q-5 12 -5 27q0 40 32 69.5t87 29.5
q59 0 90 -23.5t31 -63.5q0 -24 -11 -41.5t-34 -33.5q28 -11 45.5 -34t17.5 -57q0 -51 -37.5 -81t-100.5 -30q-59 0 -94.5 29.5z" />
    <glyph glyph-name="uni2084" unicode="&#x2084;" horiz-adv-x="374" 
d="M209 -146h-162v66l162 226h84v-226h36v-66h-36v-58h-84v58zM209 -80v116l-83 -116h83z" />
    <glyph glyph-name="uni2085" unicode="&#x2085;" horiz-adv-x="354" 
d="M84 -180q-36 31 -36 74q0 17 5 29l81 -15q-2 -6 -2 -13q0 -18 14.5 -28.5t37.5 -10.5q28 0 41.5 16.5t13.5 43.5q0 25 -14 41.5t-43 16.5q-20 0 -37.5 -9.5t-28.5 -24.5l-62 18l18 188h229v-66h-167l-10 -72q27 27 75 27q55 0 88 -32.5t33 -86.5q0 -59 -37.5 -93
t-99.5 -34q-63 0 -99 31z" />
    <glyph glyph-name="uni2086" unicode="&#x2086;" horiz-adv-x="354" 
d="M85.5 -167q-39.5 44 -39.5 119q0 42 11 82t35 70q41 49 106 49q53 0 84 -26t31 -64q0 -16 -7 -30l-72 15q4 10 4 18q0 11 -11.5 18.5t-30.5 7.5q-33 0 -53 -29t-24 -76q14 18 35 27.5t47 9.5q51 0 84.5 -32t33.5 -84t-36.5 -85.5t-94.5 -33.5q-63 0 -102.5 44z
M228 -132.5q16 15.5 16 39.5t-16 39.5t-40 15.5t-40 -15.5t-16 -39.5t16 -39.5t40 -15.5t40 15.5z" />
    <glyph glyph-name="uni2087" unicode="&#x2087;" horiz-adv-x="310" 
d="M202 80h-158v66h238v-63l-135 -287h-79z" />
    <glyph glyph-name="uni2088" unicode="&#x2088;" horiz-adv-x="336" 
d="M75 -180.5q-37 30.5 -37 76.5q0 59 57 88q-46 26 -46 74q0 42 32.5 68.5t86.5 26.5t86.5 -26.5t32.5 -68.5q0 -48 -46 -74q57 -29 57 -88q0 -46 -37 -76.5t-93 -30.5t-93 30.5zM200 22.5q13 11.5 13 32.5t-13 32.5t-32 11.5t-32 -11.5t-13 -32.5t13 -32.5t32 -11.5
t32 11.5zM206 -137.5q14 13.5 14 37.5t-14 37.5t-38 13.5t-38 -13.5t-14 -37.5t14 -37.5t38 -13.5t38 13.5z" />
    <glyph glyph-name="uni2089" unicode="&#x2089;" horiz-adv-x="348" 
d="M78.5 -184.5q-31.5 26.5 -31.5 63.5q0 16 7 30l72 -15q-4 -10 -4 -18q0 -11 11.5 -18.5t30.5 -7.5q34 0 53 27t24 78q-14 -18 -35 -27.5t-47 -9.5q-51 0 -84.5 32t-33.5 84t36.5 85.5t94.5 33.5q63 0 102.5 -44t39.5 -119q0 -95 -45 -151q-42 -50 -107 -50
q-52 0 -83.5 26.5zM212 -4.5q16 15.5 16 39.5t-16 39.5t-40 15.5t-40 -15.5t-16 -39.5t16 -39.5t40 -15.5t40 15.5z" />
    <glyph glyph-name="uni2070" unicode="&#x2070;" horiz-adv-x="388" 
d="M112 445.5q-37 22.5 -58 64t-21 95.5t21 95.5t58 64t82 22.5t82 -22.5t58 -64t21 -95.5t-21 -95.5t-58 -64t-82 -22.5t-82 22.5zM250 526.5q21 27.5 21 78.5t-21 78.5t-56 27.5t-56 -27.5t-21 -78.5t21 -78.5t56 -27.5t56 27.5z" />
    <glyph glyph-name="uni00B9" unicode="&#xb9;" horiz-adv-x="254" 
d="M112 684q-12 -14 -29.5 -19t-44.5 -5v77q31 0 49 10.5t29 32.5h80v-350h-84v254z" />
    <glyph glyph-name="uni00B2" unicode="&#xb2;" horiz-adv-x="339" 
d="M45 483l132 127q18 18 26.5 33.5t8.5 31.5q0 20 -11.5 30.5t-31.5 10.5t-33.5 -11t-13.5 -31q0 -10 4 -24l-76 -11q-7 17 -7 40q0 27 15.5 52t44.5 40.5t66 15.5q58 0 91.5 -27.5t33.5 -75.5q0 -36 -13.5 -63t-47.5 -59l-65 -63h129v-69h-252v53z" />
    <glyph glyph-name="uni00B3" unicode="&#xb3;" horiz-adv-x="348" 
d="M78.5 452.5q-35.5 29.5 -35.5 75.5q0 22 7 36l79 -17q-2 -6 -2 -15q0 -20 14 -30t34 -10q22 0 37 11.5t15 32.5q0 27 -21.5 38t-61.5 11v60q32 0 51 11t19 30q0 17 -11.5 26t-30.5 9q-18 0 -31 -8.5t-13 -24.5q0 -11 3 -17l-73 -10q-5 12 -5 27q0 40 32 69.5t87 29.5
q59 0 90 -23.5t31 -63.5q0 -24 -11 -41.5t-34 -33.5q28 -11 45.5 -34t17.5 -57q0 -51 -37.5 -81t-100.5 -30q-59 0 -94.5 29.5z" />
    <glyph glyph-name="uni2074" unicode="&#x2074;" horiz-adv-x="374" 
d="M209 488h-162v66l162 226h84v-226h36v-66h-36v-58h-84v58zM209 554v116l-83 -116h83z" />
    <glyph glyph-name="uni2075" unicode="&#x2075;" horiz-adv-x="354" 
d="M84 454q-36 31 -36 74q0 17 5 29l81 -15q-2 -6 -2 -13q0 -18 14.5 -28.5t37.5 -10.5q28 0 41.5 16.5t13.5 43.5q0 25 -14 41.5t-43 16.5q-20 0 -37.5 -9.5t-28.5 -24.5l-62 18l18 188h229v-66h-167l-10 -72q27 27 75 27q55 0 88 -32.5t33 -86.5q0 -59 -37.5 -93
t-99.5 -34q-63 0 -99 31z" />
    <glyph glyph-name="uni2076" unicode="&#x2076;" horiz-adv-x="354" 
d="M85.5 467q-39.5 44 -39.5 119q0 42 11 82t35 70q41 49 106 49q53 0 84 -26t31 -64q0 -16 -7 -30l-72 15q4 10 4 18q0 11 -11.5 18.5t-30.5 7.5q-33 0 -53 -29t-24 -76q14 18 35 27.5t47 9.5q51 0 84.5 -32t33.5 -84t-36.5 -85.5t-94.5 -33.5q-63 0 -102.5 44zM228 501.5
q16 15.5 16 39.5t-16 39.5t-40 15.5t-40 -15.5t-16 -39.5t16 -39.5t40 -15.5t40 15.5z" />
    <glyph glyph-name="uni2077" unicode="&#x2077;" horiz-adv-x="310" 
d="M202 714h-158v66h238v-63l-135 -287h-79z" />
    <glyph glyph-name="uni2078" unicode="&#x2078;" horiz-adv-x="336" 
d="M75 453.5q-37 30.5 -37 76.5q0 59 57 88q-46 26 -46 74q0 42 32.5 68.5t86.5 26.5t86.5 -26.5t32.5 -68.5q0 -48 -46 -74q57 -29 57 -88q0 -46 -37 -76.5t-93 -30.5t-93 30.5zM200 656.5q13 11.5 13 32.5t-13 32.5t-32 11.5t-32 -11.5t-13 -32.5t13 -32.5t32 -11.5
t32 11.5zM206 496.5q14 13.5 14 37.5t-14 37.5t-38 13.5t-38 -13.5t-14 -37.5t14 -37.5t38 -13.5t38 13.5z" />
    <glyph glyph-name="uni2079" unicode="&#x2079;" horiz-adv-x="348" 
d="M78.5 449.5q-31.5 26.5 -31.5 63.5q0 16 7 30l72 -15q-4 -10 -4 -18q0 -11 11.5 -18.5t30.5 -7.5q34 0 53 27t24 78q-14 -18 -35 -27.5t-47 -9.5q-51 0 -84.5 32t-33.5 84t36.5 85.5t94.5 33.5q63 0 102.5 -44t39.5 -119q0 -95 -45 -151q-42 -50 -107 -50
q-52 0 -83.5 26.5zM212 629.5q16 15.5 16 39.5t-16 39.5t-40 15.5t-40 -15.5t-16 -39.5t16 -39.5t40 -15.5t40 15.5z" />
    <glyph glyph-name="fraction" unicode="&#x2044;" horiz-adv-x="208" 
d="M-150 42l436 665l72 -49l-436 -665z" />
    <glyph glyph-name="onehalf" unicode="&#xbd;" horiz-adv-x="801" 
d="M112 604q-12 -14 -29.5 -19t-44.5 -5v77q31 0 49 10.5t29 32.5h80v-350h-84v254zM104 42l436 665l72 -49l-436 -665zM507 53l132 127q18 18 26.5 33.5t8.5 31.5q0 20 -11.5 30.5t-31.5 10.5t-33.5 -11t-13.5 -31q0 -10 4 -24l-76 -11q-7 17 -7 40q0 27 15.5 52t44.5 40.5
t66 15.5q58 0 91.5 -27.5t33.5 -75.5q0 -36 -13.5 -63t-47.5 -59l-65 -63h129v-69h-252v53z" />
    <glyph glyph-name="uni2153" unicode="&#x2153;" horiz-adv-x="810" 
d="M112 604q-12 -14 -29.5 -19t-44.5 -5v77q31 0 49 10.5t29 32.5h80v-350h-84v254zM104 42l436 665l72 -49l-436 -665zM540.5 22.5q-35.5 29.5 -35.5 75.5q0 22 7 36l79 -17q-2 -6 -2 -15q0 -20 14 -30t34 -10q22 0 37 11.5t15 32.5q0 27 -21.5 38t-61.5 11v60q32 0 51 11
t19 30q0 17 -11.5 26t-30.5 9q-18 0 -31 -8.5t-13 -24.5q0 -11 3 -17l-73 -10q-5 12 -5 27q0 40 32 69.5t87 29.5q59 0 90 -23.5t31 -63.5q0 -24 -11 -41.5t-34 -33.5q28 -11 45.5 -34t17.5 -57q0 -51 -37.5 -81t-100.5 -30q-59 0 -94.5 29.5z" />
    <glyph glyph-name="uni2154" unicode="&#x2154;" horiz-adv-x="895" 
d="M45 403l132 127q18 18 26.5 33.5t8.5 31.5q0 20 -11.5 30.5t-31.5 10.5t-33.5 -11t-13.5 -31q0 -10 4 -24l-76 -11q-7 17 -7 40q0 27 15.5 52t44.5 40.5t66 15.5q58 0 91.5 -27.5t33.5 -75.5q0 -36 -13.5 -63t-47.5 -59l-65 -63h129v-69h-252v53zM189 42l436 665l72 -49
l-436 -665zM625.5 22.5q-35.5 29.5 -35.5 75.5q0 22 7 36l79 -17q-2 -6 -2 -15q0 -20 14 -30t34 -10q22 0 37 11.5t15 32.5q0 27 -21.5 38t-61.5 11v60q32 0 51 11t19 30q0 17 -11.5 26t-30.5 9q-18 0 -31 -8.5t-13 -24.5q0 -11 3 -17l-73 -10q-5 12 -5 27q0 40 32 69.5
t87 29.5q59 0 90 -23.5t31 -63.5q0 -24 -11 -41.5t-34 -33.5q28 -11 45.5 -34t17.5 -57q0 -51 -37.5 -81t-100.5 -30q-59 0 -94.5 29.5z" />
    <glyph glyph-name="onequarter" unicode="&#xbc;" horiz-adv-x="746" 
d="M112 604q-12 -14 -29.5 -19t-44.5 -5v77q31 0 49 10.5t29 32.5h80v-350h-84v254zM104 42l436 665l72 -49l-436 -665zM581 58h-162v66l162 226h84v-226h36v-66h-36v-58h-84v58zM581 124v116l-83 -116h83z" />
    <glyph glyph-name="threequarters" unicode="&#xbe;" horiz-adv-x="810" 
d="M78.5 372.5q-35.5 29.5 -35.5 75.5q0 22 7 36l79 -17q-2 -6 -2 -15q0 -20 14 -30t34 -10q22 0 37 11.5t15 32.5q0 27 -21.5 38t-61.5 11v60q32 0 51 11t19 30q0 17 -11.5 26t-30.5 9q-18 0 -31 -8.5t-13 -24.5q0 -11 3 -17l-73 -10q-5 12 -5 27q0 40 32 69.5t87 29.5
q59 0 90 -23.5t31 -63.5q0 -24 -11 -41.5t-34 -33.5q28 -11 45.5 -34t17.5 -57q0 -51 -37.5 -81t-100.5 -30q-59 0 -94.5 29.5zM168 42l436 665l72 -49l-436 -665zM645 58h-162v66l162 226h84v-226h36v-66h-36v-58h-84v58zM645 124v116l-83 -116h83z" />
    <glyph glyph-name="oneeighth" unicode="&#x215b;" horiz-adv-x="768" 
d="M112 604q-12 -14 -29.5 -19t-44.5 -5v77q31 0 49 10.5t29 32.5h80v-350h-84v254zM104 42l436 665l72 -49l-436 -665zM507 23.5q-37 30.5 -37 76.5q0 59 57 88q-46 26 -46 74q0 42 32.5 68.5t86.5 26.5t86.5 -26.5t32.5 -68.5q0 -48 -46 -74q57 -29 57 -88
q0 -46 -37 -76.5t-93 -30.5t-93 30.5zM632 226.5q13 11.5 13 32.5t-13 32.5t-32 11.5t-32 -11.5t-13 -32.5t13 -32.5t32 -11.5t32 11.5zM638 66.5q14 13.5 14 37.5t-14 37.5t-38 13.5t-38 -13.5t-14 -37.5t14 -37.5t38 -13.5t38 13.5z" />
    <glyph glyph-name="threeeighths" unicode="&#x215c;" horiz-adv-x="832" 
d="M78.5 372.5q-35.5 29.5 -35.5 75.5q0 22 7 36l79 -17q-2 -6 -2 -15q0 -20 14 -30t34 -10q22 0 37 11.5t15 32.5q0 27 -21.5 38t-61.5 11v60q32 0 51 11t19 30q0 17 -11.5 26t-30.5 9q-18 0 -31 -8.5t-13 -24.5q0 -11 3 -17l-73 -10q-5 12 -5 27q0 40 32 69.5t87 29.5
q59 0 90 -23.5t31 -63.5q0 -24 -11 -41.5t-34 -33.5q28 -11 45.5 -34t17.5 -57q0 -51 -37.5 -81t-100.5 -30q-59 0 -94.5 29.5zM168 42l436 665l72 -49l-436 -665zM571 23.5q-37 30.5 -37 76.5q0 59 57 88q-46 26 -46 74q0 42 32.5 68.5t86.5 26.5t86.5 -26.5t32.5 -68.5
q0 -48 -46 -74q57 -29 57 -88q0 -46 -37 -76.5t-93 -30.5t-93 30.5zM696 226.5q13 11.5 13 32.5t-13 32.5t-32 11.5t-32 -11.5t-13 -32.5t13 -32.5t32 -11.5t32 11.5zM702 66.5q14 13.5 14 37.5t-14 37.5t-38 13.5t-38 -13.5t-14 -37.5t14 -37.5t38 -13.5t38 13.5z" />
    <glyph glyph-name="fiveeighths" unicode="&#x215d;" horiz-adv-x="848" 
d="M84 374q-36 31 -36 74q0 17 5 29l81 -15q-2 -6 -2 -13q0 -18 14.5 -28.5t37.5 -10.5q28 0 41.5 16.5t13.5 43.5q0 25 -14 41.5t-43 16.5q-20 0 -37.5 -9.5t-28.5 -24.5l-62 18l18 188h229v-66h-167l-10 -72q27 27 75 27q55 0 88 -32.5t33 -86.5q0 -59 -37.5 -93
t-99.5 -34q-63 0 -99 31zM184 42l436 665l72 -49l-436 -665zM587 23.5q-37 30.5 -37 76.5q0 59 57 88q-46 26 -46 74q0 42 32.5 68.5t86.5 26.5t86.5 -26.5t32.5 -68.5q0 -48 -46 -74q57 -29 57 -88q0 -46 -37 -76.5t-93 -30.5t-93 30.5zM712 226.5q13 11.5 13 32.5
t-13 32.5t-32 11.5t-32 -11.5t-13 -32.5t13 -32.5t32 -11.5t32 11.5zM718 66.5q14 13.5 14 37.5t-14 37.5t-38 13.5t-38 -13.5t-14 -37.5t14 -37.5t38 -13.5t38 13.5z" />
    <glyph glyph-name="seveneighths" unicode="&#x215e;" horiz-adv-x="774" 
d="M202 634h-158v66h238v-63l-135 -287h-79zM110 42l436 665l72 -49l-436 -665zM513 23.5q-37 30.5 -37 76.5q0 59 57 88q-46 26 -46 74q0 42 32.5 68.5t86.5 26.5t86.5 -26.5t32.5 -68.5q0 -48 -46 -74q57 -29 57 -88q0 -46 -37 -76.5t-93 -30.5t-93 30.5zM638 226.5
q13 11.5 13 32.5t-13 32.5t-32 11.5t-32 -11.5t-13 -32.5t13 -32.5t32 -11.5t32 11.5zM644 66.5q14 13.5 14 37.5t-14 37.5t-38 13.5t-38 -13.5t-14 -37.5t14 -37.5t38 -13.5t38 13.5z" />
    <glyph glyph-name="period" unicode="." horiz-adv-x="214" 
d="M40 134h134v-134h-134v134z" />
    <glyph glyph-name="comma" unicode="," horiz-adv-x="214" 
d="M47 -140l38 140h-45v134h134v-134l-98 -151z" />
    <glyph glyph-name="colon" unicode=":" horiz-adv-x="214" 
d="M40 484h134v-134h-134v134zM40 134h134v-134h-134v134z" />
    <glyph glyph-name="semicolon" unicode=";" horiz-adv-x="214" 
d="M40 484h134v-134h-134v134zM44 -151l41 151h-45v134h134v-134l-101 -162z" />
    <glyph glyph-name="ellipsis" unicode="&#x2026;" horiz-adv-x="594" 
d="M40 134h134v-134h-134v134zM230 134h134v-134h-134v134zM420 134h134v-134h-134v134z" />
    <glyph glyph-name="exclam" unicode="!" horiz-adv-x="278" 
d="M73 457v243h132v-243l-16 -249h-100zM73 138h132v-138h-132v138z" />
    <glyph glyph-name="exclamdown" unicode="&#xa1;" horiz-adv-x="278" 
d="M73 496h132v-138h-132v138zM73 39l16 249h100l16 -249v-243h-132v243z" />
    <glyph glyph-name="question" unicode="?" horiz-adv-x="549" 
d="M202 224q0 46 18.5 79.5t67.5 72.5q51 41 71.5 71.5t20.5 67.5q0 39 -29 62t-75 23q-48 0 -80.5 -27t-32.5 -72q0 -19 7 -37l-115 -24q-14 30 -14 72q0 51 29 97.5t81.5 75.5t121.5 29q107 0 169 -52t62 -138q0 -60 -27 -105.5t-102 -109.5q-27 -23 -37 -45.5t-10 -55.5
h-126v16zM199 138h132v-138h-132v138z" />
    <glyph glyph-name="questiondown" unicode="&#xbf;" horiz-adv-x="549" 
d="M350 358h-132v138h132v-138zM347 272q0 -46 -18.5 -79.5t-67.5 -72.5q-51 -41 -71.5 -71.5t-20.5 -67.5q0 -39 29 -62t75 -23q48 0 80.5 27t32.5 72q0 20 -7 37l115 24q14 -30 14 -72q0 -51 -29 -97.5t-81.5 -75.5t-121.5 -29q-107 0 -169 52t-62 138q0 60 27 105.5
t102 109.5q27 23 37 45.5t10 55.5h126v-16z" />
    <glyph glyph-name="periodcentered" unicode="&#xb7;" horiz-adv-x="214" 
d="M40 424h134v-134h-134v134z" />
    <glyph glyph-name="bullet" unicode="&#x2022;" horiz-adv-x="328" 
d="M79 190q-35 35 -35 85t35 85t85 35t85 -35t35 -85t-35 -85t-85 -35t-85 35z" />
    <glyph glyph-name="asterisk" unicode="*" horiz-adv-x="438" 
d="M185 474l-85 -73l-54 94l106 37l-106 37l54 94l85 -73l-20 110h108l-20 -110l85 73l54 -94l-106 -37l106 -37l-54 -94l-85 73l20 -110h-108z" />
    <glyph glyph-name="numbersign" unicode="#" horiz-adv-x="666" 
d="M134 204h-89v94h106l19 104h-105v94h122l37 204h110l-37 -204h129l38 204h110l-38 -204h89v-94h-106l-19 -104h105v-94h-122l-37 -204h-110l37 204h-129l-38 -204h-110zM390 298l19 104h-129l-19 -104h129z" />
    <glyph glyph-name="slash" unicode="/" horiz-adv-x="536" 
d="M404 730h128l-400 -760h-128z" />
    <glyph glyph-name="backslash" unicode="\" horiz-adv-x="536" 
d="M4 730h128l400 -760h-128z" />
    <glyph glyph-name="parenleft" unicode="(" horiz-adv-x="360" 
d="M62 276q0 230 109 424h113q-41 -74 -67.5 -196.5t-26.5 -227.5t26.5 -227.5t67.5 -196.5h-113q-109 194 -109 424z" />
    <glyph glyph-name="parenright" unicode=")" horiz-adv-x="360" 
d="M143.5 48.5q26.5 122.5 26.5 227.5t-26.5 227.5t-67.5 196.5h113q109 -194 109 -424t-109 -424h-113q41 74 67.5 196.5z" />
    <glyph glyph-name="braceleft" unicode="{" horiz-adv-x="395" 
d="M168 -106q-45 44 -45 143v108q0 45 -18.5 62t-56.5 17v102q38 0 56.5 17t18.5 62v108q0 99 45 143t134 44h48v-118h-25q-38 0 -57 -20.5t-19 -66.5v-107q0 -49 -17 -74t-52 -39q35 -14 52 -39t17 -74v-107q0 -46 19 -66.5t57 -20.5h25v-118h-48q-89 0 -134 44z" />
    <glyph glyph-name="braceright" unicode="}" horiz-adv-x="395" 
d="M45 -32h25q38 0 57 20.5t19 66.5v107q0 49 17 74t52 39q-35 14 -52 39t-17 74v107q0 46 -19 66.5t-57 20.5h-25v118h48q89 0 134 -44t45 -143v-108q0 -45 18.5 -62t56.5 -17v-102q-38 0 -56.5 -17t-18.5 -62v-108q0 -99 -45 -143t-134 -44h-48v118z" />
    <glyph glyph-name="bracketleft" unicode="[" horiz-adv-x="348" 
d="M74 700h230v-118h-104v-614h104v-118h-230v850z" />
    <glyph glyph-name="bracketright" unicode="]" horiz-adv-x="348" 
d="M44 -32h104v614h-104v118h230v-850h-230v118z" />
    <glyph glyph-name="hyphen" unicode="-" horiz-adv-x="468" 
d="M40 362h388v-102h-388v102z" />
    <glyph glyph-name="uni00AD" unicode="&#xad;" horiz-adv-x="468" 
d="M40 362h388v-102h-388v102z" />
    <glyph glyph-name="endash" unicode="&#x2013;" horiz-adv-x="578" 
d="M40 362h498v-102h-498v102z" />
    <glyph glyph-name="emdash" unicode="&#x2014;" horiz-adv-x="848" 
d="M40 362h768v-102h-768v102z" />
    <glyph glyph-name="underscore" unicode="_" horiz-adv-x="512" 
d="M7 -7h498v-102h-498v102z" />
    <glyph glyph-name="quotesinglbase" unicode="&#x201a;" horiz-adv-x="214" 
d="M28 -136l68 136h-53v134h134v-134l-123 -154z" />
    <glyph glyph-name="quotedblbase" unicode="&#x201e;" horiz-adv-x="382" 
d="M28 -136l68 136h-53v134h134v-134l-123 -154zM196 -136l68 136h-53v134h134v-134l-123 -154z" />
    <glyph glyph-name="quotedblleft" unicode="&#x201c;" horiz-adv-x="382" 
d="M37 553l123 154l26 -18l-68 -136h53v-134h-134v134zM205 553l123 154l26 -18l-68 -136h53v-134h-134v134z" />
    <glyph glyph-name="quotedblright" unicode="&#x201d;" horiz-adv-x="382" 
d="M28 430l68 136h-53v134h134v-134l-123 -154zM196 430l68 136h-53v134h134v-134l-123 -154z" />
    <glyph glyph-name="quoteleft" unicode="&#x2018;" horiz-adv-x="214" 
d="M37 553l123 154l26 -18l-68 -136h53v-134h-134v134z" />
    <glyph glyph-name="quoteright" unicode="&#x2019;" horiz-adv-x="214" 
d="M28 430l68 136h-53v134h134v-134l-123 -154z" />
    <glyph glyph-name="guillemotleft" unicode="&#xab;" horiz-adv-x="594" 
d="M40 275l167 213h141l-166 -213l166 -213h-141zM256 275l167 213h141l-166 -213l166 -213h-141z" />
    <glyph glyph-name="guillemotright" unicode="&#xbb;" horiz-adv-x="594" 
d="M196 275l-166 213h141l167 -213l-167 -213h-141zM412 275l-166 213h141l167 -213l-167 -213h-141z" />
    <glyph glyph-name="guilsinglleft" unicode="&#x2039;" horiz-adv-x="378" 
d="M40 275l167 214h141l-166 -214l166 -212h-141z" />
    <glyph glyph-name="guilsinglright" unicode="&#x203a;" horiz-adv-x="378" 
d="M196 275l-166 214h141l167 -214l-167 -212h-141z" />
    <glyph glyph-name="quotedbl" unicode="&#x22;" horiz-adv-x="394" 
d="M51 621v79h120v-79l-13 -167h-94zM223 621v79h120v-79l-13 -167h-94z" />
    <glyph glyph-name="quotesingle" unicode="'" horiz-adv-x="222" 
d="M51 621v79h120v-79l-13 -167h-94z" />
    <glyph glyph-name="uni00A0" unicode="&#xa0;" horiz-adv-x="276" 
 />
    <glyph glyph-name="cent" unicode="&#xa2;" horiz-adv-x="553" 
d="M343 -11v-99h-100v101q-93 17 -150.5 86t-57.5 171q0 67 27 121.5t74.5 89t106.5 46.5v115h100v-113q128 -17 175 -121l-107 -65q-26 48 -68 64v-274q47 14 76 71l104 -63q-65 -112 -180 -130zM184.5 164q21.5 -35 58.5 -50v268q-36 -15 -58 -50.5t-22 -83.5
q0 -49 21.5 -84z" />
    <glyph glyph-name="currency" unicode="&#xa4;" horiz-adv-x="652" 
d="M58 154l78 77q-32 53 -32 119t32 119l-78 77l72 72l78 -78q54 33 118 33t118 -33l78 78l72 -72l-78 -77q32 -53 32 -119t-32 -119l78 -77l-72 -72l-78 78q-54 -33 -118 -33t-118 33l-78 -78zM412.5 259q33.5 35 33.5 91t-33.5 91t-86.5 35t-86.5 -35t-33.5 -91t33.5 -91
t86.5 -35t86.5 35z" />
    <glyph glyph-name="dollar" unicode="$" horiz-adv-x="652" 
d="M280 -10q-99 14 -158.5 72.5t-77.5 147.5l116 59q12 -65 41 -105t79 -55v206q-95 21 -150.5 73t-55.5 134q0 78 56 129t150 61v88h104v-92q73 -13 124 -56.5t79 -117.5l-104 -60q-29 87 -99 116v-177q109 -25 162 -76.5t53 -135.5q0 -52 -26 -97.5t-74.5 -76
t-114.5 -38.5v-89h-104v90zM280 599q-38 -6 -59 -24.5t-21 -49.5q0 -28 19.5 -48.5t60.5 -36.5v159zM445 139.5q22 23.5 22 56.5q0 32 -20.5 54.5t-62.5 37.5v-181q39 9 61 32.5z" />
    <glyph glyph-name="Euro" unicode="&#x20ac;" horiz-adv-x="786" 
d="M234.5 50.5q-82.5 64.5 -112.5 178.5h-88l42 92h30q-1 9 -1 29q0 19 1 29h-72l42 92h46q33 111 119 177t197 66q113 0 188.5 -51t110.5 -150l-119 -53q-22 66 -67 99t-117 33q-63 0 -110 -31.5t-70 -89.5h278l-42 -92h-254q-1 -10 -1 -29l1 -29h296l-42 -92h-236
q24 -57 71.5 -89t109.5 -32q140 0 189 146l116 -42q-38 -111 -114.5 -168.5t-190.5 -57.5q-118 0 -200.5 64.5z" />
    <glyph glyph-name="florin" unicode="&#x192;" horiz-adv-x="354" 
d="M-4 -207l22 113q17 -8 35 -8q27 0 38.5 15t11.5 47v434h-72v102h72v70q0 89 48.5 136.5t127.5 47.5q34 0 63 -11l-22 -111q-18 6 -35 6q-27 0 -41.5 -17t-14.5 -48v-73h108v-102h-108v-428q0 -90 -44.5 -137t-125.5 -47q-34 0 -63 11z" />
    <glyph glyph-name="uni20BA" unicode="&#x20ba;" horiz-adv-x="555" 
d="M515 312v-20q0 -100 -43.5 -165.5t-114 -96t-154.5 -30.5h-130v159l-64 -30v115l64 30v76l-64 -30v115l64 30v235h132v-172l121 57v-115l-121 -57v-76l121 57v-115l-121 -57v-100q196 0 196 170v20h114z" />
    <glyph glyph-name="sterling" unicode="&#xa3;" horiz-adv-x="575" 
d="M60 94q34 36 47.5 68t13.5 81q0 28 -6 56h-87v98h63q-15 64 -15 104q0 65 31 113.5t85 74t122 25.5q71 0 121.5 -24.5t76 -66t25.5 -92.5q0 -20 -3.5 -36t-11.5 -35l-116 20q9 24 9 48q0 35 -27.5 57.5t-76.5 22.5t-79 -28t-30 -81q0 -42 15 -102h189v-98h-169
q3 -24 3 -51q0 -45 -10 -76t-30 -62h330v-110h-470v94z" />
    <glyph glyph-name="yen" unicode="&#xa5;" horiz-adv-x="606" 
d="M237 112h-146v102h146v60h-146v102h93l-170 324h142l123 -249q15 -31 24 -54q9 23 24 54l123 249h142l-170 -324h93v-102h-146v-60h146v-102h-146v-112h-132v112z" />
    <glyph glyph-name="uni2219" unicode="&#x2219;" horiz-adv-x="328" 
d="M79 190q-35 35 -35 85t35 85t85 35t85 -35t35 -85t-35 -85t-85 -35t-85 35z" />
    <glyph glyph-name="uni2215" unicode="&#x2215;" horiz-adv-x="536" 
d="M404 730h128l-400 -760h-128z" />
    <glyph glyph-name="plus" unicode="+" horiz-adv-x="564" 
d="M231 314h-191v102h191v191h102v-191h191v-102h-191v-191h-102v191z" />
    <glyph glyph-name="minus" unicode="&#x2212;" horiz-adv-x="564" 
d="M40 416h484v-102h-484v102z" />
    <glyph glyph-name="multiply" unicode="&#xd7;" horiz-adv-x="556" 
d="M71 230l135 135l-135 135l72 72l135 -135l135 135l72 -72l-135 -135l135 -135l-72 -72l-135 135l-135 -135z" />
    <glyph glyph-name="divide" unicode="&#xf7;" horiz-adv-x="564" 
d="M215 484h134v-134h-134v134zM215 134h134v-134h-134v134zM40 293h484v-102h-484v102z" />
    <glyph glyph-name="equal" unicode="=" horiz-adv-x="564" 
d="M40 496h484v-102h-484v102zM40 296h484v-102h-484v102z" />
    <glyph glyph-name="notequal" unicode="&#x2260;" horiz-adv-x="564" 
d="M82 101l54 93h-96v102h154l57 98h-211v102h270l84 145l88 -52l-54 -93h96v-102h-154l-57 -98h211v-102h-270l-84 -145z" />
    <glyph glyph-name="greater" unicode="&#x3e;" horiz-adv-x="518" 
d="M40 171l300 139l-300 139v124l438 -214v-98l-438 -215v125z" />
    <glyph glyph-name="less" unicode="&#x3c;" horiz-adv-x="518" 
d="M40 261v98l438 214v-124l-300 -139l300 -139v-125z" />
    <glyph glyph-name="greaterequal" unicode="&#x2265;" horiz-adv-x="564" 
d="M63 271l300 139l-300 139v124l438 -214v-98l-438 -215v125zM40 102h484v-102h-484v102z" />
    <glyph glyph-name="lessequal" unicode="&#x2264;" horiz-adv-x="564" 
d="M63 361v98l438 214v-124l-300 -139l300 -139v-125zM40 102h484v-102h-484v102z" />
    <glyph glyph-name="plusminus" unicode="&#xb1;" horiz-adv-x="564" 
d="M231 374h-191v102h191v191h102v-191h191v-102h-191v-191h-102v191zM40 102h484v-102h-484v102z" />
    <glyph glyph-name="approxequal" unicode="&#x2248;" horiz-adv-x="462" 
d="M40 228q0 48 30 76t76 28q38 0 61.5 -11t48.5 -30q15 -12 23.5 -17t19.5 -5t19 6.5t8 18.5q0 11 -7 23l88 16q15 -22 15 -55q0 -47 -30 -74.5t-76 -27.5q-38 0 -61.5 11t-48.5 30q-15 12 -23.5 17t-19.5 5t-19 -6.5t-8 -18.5q0 -11 7 -23l-88 -16q-15 23 -15 53zM40 418
q0 48 30 76t76 28q38 0 61.5 -11t48.5 -30q15 -12 23.5 -17t19.5 -5t19 6.5t8 18.5q0 11 -7 23l88 16q15 -22 15 -55q0 -47 -30 -74.5t-76 -27.5q-38 0 -61.5 11t-48.5 30q-15 12 -23.5 17t-19.5 5t-19 -6.5t-8 -18.5q0 -11 7 -23l-88 -16q-15 23 -15 53z" />
    <glyph glyph-name="asciitilde" unicode="~" horiz-adv-x="462" 
d="M40 306q0 48 30 76t76 28q38 0 61.5 -11t48.5 -30q15 -12 23.5 -17t19.5 -5t19 6.5t8 18.5q0 11 -7 23l88 16q15 -22 15 -55q0 -47 -30 -74.5t-76 -27.5q-38 0 -61.5 11t-48.5 30q-15 12 -23.5 17t-19.5 5t-19 -6.5t-8 -18.5q0 -11 7 -23l-88 -16q-15 23 -15 53z" />
    <glyph glyph-name="logicalnot" unicode="&#xac;" horiz-adv-x="548" 
d="M368 314h-328v102h446v-242h-118v140z" />
    <glyph glyph-name="asciicircum" unicode="^" horiz-adv-x="498" 
d="M194 700h110l176 -270h-120l-111 172l-111 -172h-120z" />
    <glyph glyph-name="infinity" unicode="&#x221e;" horiz-adv-x="774" 
d="M87.5 178q-46.5 47 -46.5 122t46.5 122t121.5 47q56 0 97.5 -26.5t80.5 -73.5q39 47 80.5 73.5t97.5 26.5q75 0 121.5 -47t46.5 -122t-46.5 -122t-121.5 -47q-56 0 -97.5 26.5t-80.5 73.5q-39 -47 -80.5 -73.5t-97.5 -26.5q-75 0 -121.5 47zM277 239.5q26 20.5 57 60.5
q-32 40 -57.5 60.5t-56.5 20.5q-35 0 -58 -23.5t-23 -57.5t23 -57.5t58 -23.5q31 0 57 20.5zM612 242.5q23 23.5 23 57.5t-23 57.5t-58 23.5q-31 0 -57.5 -21t-56.5 -60q30 -39 56 -60t58 -21q35 0 58 23.5z" />
    <glyph glyph-name="integral" unicode="&#x222b;" horiz-adv-x="354" 
d="M-4 -207l22 113q17 -8 35 -8q27 0 38.5 15t11.5 47v606q0 89 48.5 136.5t127.5 47.5q34 0 63 -11l-22 -111q-18 6 -35 6q-27 0 -41.5 -17t-14.5 -48v-603q0 -90 -44.5 -137t-125.5 -47q-34 0 -63 11z" />
    <glyph glyph-name="uni2126" unicode="&#x2126;" horiz-adv-x="784" 
d="M58 96h138q-63 49 -106.5 124t-43.5 171q0 92 45.5 165.5t124.5 115.5t176 42t176 -42t124.5 -115.5t45.5 -165.5q0 -96 -43.5 -171t-106.5 -124h138v-96h-288v110q72 43 120 114.5t48 159.5q0 60 -27 107.5t-75.5 74t-111.5 26.5t-111.5 -26.5t-75.5 -74t-27 -107.5
q0 -88 48 -159.5t120 -114.5v-110h-288v96z" />
    <glyph glyph-name="uni2206" unicode="&#x2206;" horiz-adv-x="702" 
d="M288 700h126l283 -700h-692zM511 118l-134 351q-14 37 -26 76q-12 -39 -26 -76l-134 -351h320z" />
    <glyph glyph-name="product" unicode="&#x220f;" horiz-adv-x="688" 
d="M74 700h540v-904h-132v782h-276v-782h-132v904z" />
    <glyph glyph-name="summation" unicode="&#x2211;" horiz-adv-x="585" 
d="M30 2l195 288l-185 288v122h506v-122h-350l181 -288l-191 -288h367v-122h-523v122z" />
    <glyph glyph-name="radical" unicode="&#x221a;" horiz-adv-x="628" 
d="M130 256h-103v100h202l60 -178l194 522h126l-260 -700h-126z" />
    <glyph glyph-name="uni00B5" unicode="&#xb5;" horiz-adv-x="594" 
d="M63 496h126v-279q0 -113 101 -113q52 0 83.5 38t31.5 98v256h126v-496h-126v78q-24 -44 -65 -68t-93 -24q-32 0 -61 9q3 -57 3 -68v-131h-126v700z" />
    <glyph glyph-name="partialdiff" unicode="&#x2202;" horiz-adv-x="591" 
d="M162 15q-57 29 -89 82t-32 122t31.5 124.5t86.5 87t122 31.5q103 0 155 -61q-8 62 -32 110t-59.5 75.5t-77.5 27.5q-37 0 -58.5 -17t-21.5 -41q0 -6 2 -12l-107 -45q-14 23 -14 56q0 38 20.5 74.5t64 60.5t109.5 24q94 0 158.5 -51t97 -142.5t32.5 -212.5q0 -94 -30 -167
t-88.5 -114t-140.5 -41q-72 0 -129 29zM358 108q31 16 50 46.5t19 72.5q0 59 -37 94t-90 35q-60 0 -97.5 -38.5t-37.5 -97.5q0 -38 17.5 -67t47 -45t62.5 -16q35 0 66 16z" />
    <glyph glyph-name="percent" unicode="%" horiz-adv-x="874" 
d="M124.5 387q-39.5 23 -62 62.5t-22.5 89.5t22.5 89.5t62 62.5t89.5 23t89.5 -23t62 -62.5t22.5 -89.5t-22.5 -89.5t-62 -62.5t-89.5 -23t-89.5 23zM183 42l436 665l72 -49l-436 -665zM272.5 475q23.5 25 23.5 64t-23.5 64t-58.5 25t-58.5 -25t-23.5 -64t23.5 -64t58.5 -25
t58.5 25zM570.5 9q-39.5 23 -62 62.5t-22.5 89.5t22.5 89.5t62 62.5t89.5 23t89.5 -23t62 -62.5t22.5 -89.5t-22.5 -89.5t-62 -62.5t-89.5 -23t-89.5 23zM718.5 97q23.5 25 23.5 64t-23.5 64t-58.5 25t-58.5 -25t-23.5 -64t23.5 -64t58.5 -25t58.5 25z" />
    <glyph glyph-name="perthousand" unicode="&#x2030;" horiz-adv-x="1130" 
d="M124.5 387q-39.5 23 -62 62.5t-22.5 89.5t22.5 89.5t62 62.5t89.5 23t89.5 -23t62 -62.5t22.5 -89.5t-22.5 -89.5t-62 -62.5t-89.5 -23t-89.5 23zM180 42l436 665l72 -49l-436 -665zM272.5 475q23.5 25 23.5 64t-23.5 64t-58.5 25t-58.5 -25t-23.5 -64t23.5 -64t58.5 -25
t58.5 25zM570.5 9q-39.5 23 -62 62.5t-22.5 89.5t22.5 89.5t62 62.5t89.5 23q38 0 71 -14t57 -39q24 25 57 39t71 14q50 0 89.5 -23t62 -62.5t22.5 -89.5t-22.5 -89.5t-62 -62.5t-89.5 -23q-38 0 -71 14t-57 39q-24 -25 -57 -39t-71 -14q-50 0 -89.5 23zM718.5 97
q23.5 25 23.5 64t-23.5 64t-58.5 25t-58.5 -25t-23.5 -64t23.5 -64t58.5 -25t58.5 25zM974.5 97q23.5 25 23.5 64t-23.5 64t-58.5 25t-58.5 -25t-23.5 -64t23.5 -64t58.5 -25t58.5 25z" />
    <glyph glyph-name="arrowup" unicode="&#x2191;" horiz-adv-x="538" 
d="M218 423l-105 -105l-75 75l231 231l231 -231l-75 -75l-105 105v-307h-102v307z" />
    <glyph glyph-name="uni2197" unicode="&#x2197;" horiz-adv-x="540" 
d="M68 165l217 218h-148v106h327v-327h-106v148l-218 -217z" />
    <glyph glyph-name="arrowright" unicode="&#x2192;" horiz-adv-x="594" 
d="M242 155l105 105h-307v102h307l-105 105l75 75l231 -231l-231 -231z" />
    <glyph glyph-name="uni2198" unicode="&#x2198;" horiz-adv-x="540" 
d="M137 214h148l-217 218l72 72l218 -217v148h106v-327h-327v106z" />
    <glyph glyph-name="arrowdown" unicode="&#x2193;" horiz-adv-x="538" 
d="M38 347l75 75l105 -105v307h102v-307l105 105l75 -75l-231 -231z" />
    <glyph glyph-name="uni2199" unicode="&#x2199;" horiz-adv-x="540" 
d="M76 435h106v-148l218 217l72 -72l-217 -218h148v-106h-327v327z" />
    <glyph glyph-name="arrowleft" unicode="&#x2190;" horiz-adv-x="594" 
d="M46 311l231 231l75 -75l-105 -105h307v-102h-307l105 -105l-75 -75z" />
    <glyph glyph-name="uni2196" unicode="&#x2196;" horiz-adv-x="540" 
d="M182 310v-148h-106v327h327v-106h-148l217 -218l-72 -72z" />
    <glyph glyph-name="arrowboth" unicode="&#x2194;" horiz-adv-x="800" 
d="M46 311l231 231l75 -75l-105 -105h306l-105 105l75 75l231 -231l-231 -231l-75 75l105 105h-306l105 -105l-75 -75z" />
    <glyph glyph-name="arrowupdn" unicode="&#x2195;" horiz-adv-x="538" 
d="M38 227l75 75l105 -105v306l-105 -105l-75 75l231 231l231 -231l-75 -75l-105 105v-306l105 105l75 -75l-231 -231z" />
    <glyph glyph-name="lozenge" unicode="&#x25ca;" horiz-adv-x="606" 
d="M23 350l216 350h128l216 -350l-216 -350h-128zM451 350l-148 240l-148 -240l148 -240z" />
    <glyph glyph-name="uniF8FF" unicode="&#xf8ff;" horiz-adv-x="780" 
d="M100.5 6.5q-6.5 6.5 -6.5 15.5v595q0 7 4.5 13.5t11.5 8.5l270 78l10 2l10 -2l270 -78q7 -2 11.5 -8.5t4.5 -13.5v-595q0 -9 -6.5 -15.5t-15.5 -6.5l-7 1l-267 77l-267 -77l-7 -1q-9 0 -15.5 6.5zM368 669l-230 -67q4 -62 35 -114t82.5 -84.5t112.5 -37.5v303z
M524.5 403.5q51.5 32.5 82.5 84.5t35 114l-230 67v-303q61 5 112.5 37.5zM368 118v204q-73 6 -134 43.5t-97 97.5v-412zM643 463q-37 -60 -97.5 -97.5t-133.5 -43.5v-204l231 -67v412z" />
    <glyph glyph-name="at" unicode="@" horiz-adv-x="958" 
d="M253 -106.5q-94 45.5 -151 140.5t-57 235q0 122 58.5 224t163 161.5t235.5 59.5q109 0 201.5 -41.5t148.5 -125.5t56 -206q0 -89 -33 -160.5t-90 -112.5t-125 -41q-44 0 -71 21t-27 55l1 12q-23 -38 -63 -63t-90 -25q-83 0 -132.5 59t-49.5 155q0 91 37.5 159t95 104
t115.5 36q92 0 126 -65l8 49h96l-56 -362l-1 -16q0 -18 7.5 -26t23.5 -8q29 0 57 26.5t46.5 78.5t18.5 123q0 82 -34 146t-103 100t-170 36q-94 0 -172.5 -46t-125 -128.5t-46.5 -185.5q0 -102 42 -175t112.5 -110t156.5 -37q63 0 107.5 14.5t82.5 40.5l48 -81
q-53 -34 -108.5 -50t-133.5 -16q-111 0 -205 45.5zM500.5 140q35.5 28 56.5 79.5t21 116.5q0 117 -89 117q-40 0 -75.5 -28.5t-57.5 -78.5t-22 -111q0 -59 25.5 -91t65.5 -32t75.5 28z" />
    <glyph glyph-name="ampersand" unicode="&#x26;" horiz-adv-x="662" 
d="M159 13.5q-51 27.5 -80 77t-29 113.5q0 125 131 205q-44 72 -44 134q0 50 23.5 89t63.5 60.5t89 21.5q76 0 123.5 -39.5t47.5 -105.5q0 -109 -149 -185l129 -168q28 58 42 140l98 -56q-24 -103 -71 -175l95 -125h-144l-31 41q-74 -55 -178 -55q-65 0 -116 27.5z
M356 507.5q22 22.5 22 50.5t-19 44t-46 16q-28 0 -47 -18.5t-19 -52.5q0 -41 32 -89q55 27 77 49.5zM344 102.5q23 6.5 47 22.5l-152 203q-33 -26 -48 -53.5t-15 -64.5q0 -51 33.5 -82.5t84.5 -31.5q27 0 50 6.5z" />
    <glyph glyph-name="paragraph" unicode="&#xb6;" horiz-adv-x="655" 
d="M263 312h-9q-62 0 -111 24t-77.5 68t-28.5 102t28.5 102t77.5 68t111 24h370v-102h-65v-718h-112v718h-72v-718h-112v432z" />
    <glyph glyph-name="section" unicode="&#xa7;" horiz-adv-x="528" 
d="M133 -56q-55 37 -85 102l85 62q22 -53 55.5 -79t81.5 -26q40 0 65.5 19t25.5 52q0 70 -136 98q-79 16 -123 58t-44 105q0 57 46 98q-42 42 -42 110q0 52 26.5 91t71.5 59.5t100 20.5q78 0 134 -37.5t86 -101.5l-85 -62q-22 53 -55 79t-81 26q-40 0 -65.5 -19t-25.5 -52
t31.5 -57.5t104.5 -40.5q88 -19 127.5 -54.5t39.5 -99.5q0 -63 -45 -105q41 -42 41 -112q0 -52 -26.5 -91t-71.5 -59.5t-100 -20.5q-81 0 -136 37zM371 277q0 29 -29 50t-98 38q-36 9 -66 21q-20 -18 -20 -42q0 -29 29 -50t98 -38q38 -9 66 -21q20 18 20 42z" />
    <glyph glyph-name="copyright" unicode="&#xa9;" horiz-adv-x="828" 
d="M231.5 35q-83.5 49 -132.5 132.5t-49 182.5t49 182.5t132.5 132.5t182.5 49t182.5 -49t132.5 -132.5t49 -182.5t-49 -182.5t-132.5 -132.5t-182.5 -49t-182.5 49zM553 109.5q63 37.5 100 101t37 139.5t-37 139.5t-100 101t-139 37.5t-139 -37.5t-100 -101t-37 -139.5
t37 -139.5t100 -101t139 -37.5t139 37.5zM312.5 171.5q-46.5 25.5 -73.5 72t-27 106.5t27.5 106.5t74.5 72t102 25.5q64 0 110 -27.5t66 -77.5l-80 -53q-30 66 -97 66q-44 0 -73.5 -30.5t-29.5 -81.5t29 -81.5t74 -30.5q37 0 61 17.5t41 53.5l79 -52q-27 -55 -73 -83
t-107 -28q-57 0 -103.5 25.5z" />
    <glyph glyph-name="registered" unicode="&#xae;" horiz-adv-x="828" 
d="M231.5 35q-83.5 49 -132.5 132.5t-49 182.5t49 182.5t132.5 132.5t182.5 49t182.5 -49t132.5 -132.5t49 -182.5t-49 -182.5t-132.5 -132.5t-182.5 -49t-182.5 49zM553 109.5q63 37.5 100 101t37 139.5t-37 139.5t-100 101t-139 37.5t-139 -37.5t-100 -101t-37 -139.5
t37 -139.5t100 -101t139 -37.5t139 37.5zM267 549h163q71 0 107.5 -33.5t36.5 -89.5q0 -44 -27 -76t-72 -43l95 -156h-97l-91 153h-27v-153h-88v398zM427 376q62 0 62 50q0 49 -62 49h-72v-99h72z" />
    <glyph glyph-name="uni2117" unicode="&#x2117;" horiz-adv-x="828" 
d="M231.5 35q-83.5 49 -132.5 132.5t-49 182.5t49 182.5t132.5 132.5t182.5 49t182.5 -49t132.5 -132.5t49 -182.5t-49 -182.5t-132.5 -132.5t-182.5 -49t-182.5 49zM553 109.5q63 37.5 100 101t37 139.5t-37 139.5t-100 101t-139 37.5t-139 -37.5t-100 -101t-37 -139.5
t37 -139.5t100 -101t139 -37.5t139 37.5zM267 549h187q71 0 107.5 -33.5t36.5 -89.5t-36.5 -89t-107.5 -33h-99v-153h-88v398zM451 376q62 0 62 50q0 49 -62 49h-96v-99h96z" />
    <glyph glyph-name="trademark" unicode="&#x2122;" horiz-adv-x="860" 
d="M151 626h-119v74h320v-74h-119v-326h-82v326zM391 700h91l121 -302l121 302h91v-400h-82v224l-90 -224h-80l-90 224v-224h-82v400z" />
    <glyph glyph-name="degree" unicode="&#xb0;" horiz-adv-x="354" 
d="M106 454.5q-32 18.5 -50.5 50.5t-18.5 70t18.5 70t50.5 50.5t71 18.5t71 -18.5t50.5 -50.5t18.5 -70t-18.5 -70t-50.5 -50.5t-71 -18.5t-71 18.5zM220.5 531q16.5 17 16.5 44t-16.5 44t-43.5 17t-43.5 -17t-16.5 -44t16.5 -44t43.5 -17t43.5 17z" />
    <glyph glyph-name="bar" unicode="|" horiz-adv-x="268" 
d="M73 740h122v-850h-122v850z" />
    <glyph glyph-name="brokenbar" unicode="&#xa6;" horiz-adv-x="268" 
d="M73 740h122v-354h-122v354zM73 244h122v-354h-122v354z" />
    <glyph glyph-name="dagger" unicode="&#x2020;" horiz-adv-x="468" 
d="M172 394h-132v102h132v244h122v-244h134v-102h-134v-504h-122v504z" />
    <glyph glyph-name="uni2113" unicode="&#x2113;" horiz-adv-x="579" 
d="M376 184l85 -52q-66 -146 -211 -146q-70 0 -114 38.5t-54 114.5q-19 -5 -57 -13v110q22 4 56 11q9 141 56.5 247t119 163t151.5 57q69 0 105 -40t36 -112q0 -122 -96 -225t-265 -165q6 -42 26.5 -62t49.5 -20q64 0 112 94zM313 571.5q-42 -42.5 -76 -118.5t-45 -171
q117 47 181 120t64 150q0 62 -48 62q-34 0 -76 -42.5z" />
    <glyph glyph-name="daggerdbl" unicode="&#x2021;" horiz-adv-x="468" 
d="M172 134h-132v102h132v158h-132v102h132v244h122v-244h134v-102h-134v-158h134v-102h-134v-244h-122v244z" />
    <glyph glyph-name="estimated" unicode="&#x212e;" horiz-adv-x="848" 
d="M596.5 83q77.5 51 115.5 135h51q-26 -68 -77 -120.5t-118.5 -82t-143.5 -29.5q-99 0 -182.5 49t-132.5 132.5t-49 182.5t49 182.5t132.5 132.5t182.5 49t182.5 -49t132.5 -132.5t49 -182.5h-596v-217q44 -47 104 -74t128 -27q95 0 172.5 51zM296 641q-60 -27 -104 -74
v-171h464v171q-44 47 -104 74t-128 27t-128 -27z" />
    <glyph glyph-name="uni2120" unicode="&#x2120;" horiz-adv-x="882" 
d="M92 325.5q-41 32.5 -57 91.5l69 32q10 -43 37.5 -62.5t64.5 -19.5q30 0 49 13.5t19 34.5q0 25 -19 39t-67 22q-131 22 -131 116q0 53 35.5 84.5t101.5 31.5q120 0 157 -102l-64 -37q-26 71 -93 71q-30 0 -47.5 -12t-17.5 -31q0 -22 21 -35t79 -25q60 -12 93.5 -41
t33.5 -75q0 -56 -40 -92t-109 -36q-74 0 -115 32.5zM413 700h91l121 -302l121 302h91v-400h-82v224l-90 -224h-80l-90 224v-224h-82v400z" />
    <glyph glyph-name="uni02C9" unicode="&#x2c9;" horiz-adv-x="328" 
d="M40 682h248v-94h-248v94z" />
    <glyph glyph-name="uni0308" unicode="&#x308;" 
d="M-298 700h118v-124h-118v124zM-118 700h118v-124h-118v124z" />
    <glyph glyph-name="uni0307" unicode="&#x307;" 
d="M-138 700h138v-132h-138v132z" />
    <glyph glyph-name="gravecomb" unicode="&#x300;" 
d="M-221 708h153l68 -158h-97z" />
    <glyph glyph-name="acutecomb" unicode="&#x301;" 
d="M-153 708h153l-125 -158h-97z" />
    <glyph glyph-name="uni030B" unicode="&#x30b;" 
d="M-342 708h153l-124 -158h-97zM-153 708h153l-124 -158h-97z" />
    <glyph glyph-name="uni030C.alt" 
d="M-100 499l39 95h-45v106h106v-108l-74 -108z" />
    <glyph glyph-name="uni0302" unicode="&#x302;" 
d="M-203 707h90l113 -157h-99l-59 60l-59 -60h-99z" />
    <glyph glyph-name="uni030C" unicode="&#x30c;" 
d="M-316 707h99l59 -60l59 60h99l-113 -157h-90z" />
    <glyph glyph-name="uni0306" unicode="&#x306;" 
d="M-196.5 596q-31.5 32 -31.5 81h76q0 -19 10 -31t28 -12t28 12t10 31h76q0 -49 -31.5 -81t-82.5 -32t-82.5 32z" />
    <glyph glyph-name="uni030A" unicode="&#x30a;" 
d="M-164 567.5q-28 27.5 -28 67.5t28 67.5t68 27.5t68 -27.5t28 -67.5t-28 -67.5t-68 -27.5t-68 27.5zM-72 610q9 9 9 25t-9 25t-24 9t-24 -9t-9 -25t9 -25t24 -9t24 9z" />
    <glyph glyph-name="tildecomb" unicode="&#x303;" 
d="M-156 561q-22 11 -47 31q-14 12 -24.5 18t-22.5 6q-10 0 -16.5 -6t-6.5 -16q0 -12 7 -26l-74 -15q-6 9 -10 24t-4 29q0 43 30 67t68 24q36 0 58 -11t47 -31q14 -12 24.5 -18t22.5 -6q10 0 16.5 6t6.5 16q0 12 -7 26l74 15q6 -9 10 -24t4 -29q0 -43 -30 -67t-68 -24
q-36 0 -58 11z" />
    <glyph glyph-name="uni0304" unicode="&#x304;" 
d="M-248 682h248v-94h-248v94z" />
    <glyph glyph-name="uni0312" unicode="&#x312;" 
d="M-136 686l111 136l25 -18l-61 -118h51v-123h-126v123z" />
    <glyph glyph-name="uni0326" unicode="&#x326;" 
d="M-119 -303l37 121h-44v122h126v-122l-90 -132z" />
    <glyph glyph-name="uni0327" unicode="&#x327;" 
d="M-157.5 -188q-24.5 16 -31.5 45l66 17q4 -22 28 -22q11 0 18 6.5t7 18.5q0 14 -7.5 21.5t-20.5 7.5q-14 0 -24 -4.5t-21 -13.5l-37 33l33 95h70l-41 -69q16 9 40 9q34 0 56 -22t22 -56q0 -38 -27.5 -60t-67.5 -22q-38 0 -62.5 16z" />
    <glyph glyph-name="uni0328" unicode="&#x328;" 
d="M-139.5 -173q-34.5 25 -34.5 69q0 36 21 65.5t56 50.5l95 -12q-32 -18 -52 -38t-20 -40q0 -18 11.5 -28t29.5 -10q9 0 22 2l11 -77q-26 -7 -60 -7q-45 0 -79.5 25z" />
    <glyph glyph-name="uni0335" unicode="&#x335;" 
d="M-348 400h348v-96h-348v96z" />
    <glyph glyph-name="uni0336" unicode="&#x336;" 
d="M-742 578h742v-94h-742v94z" />
    <glyph glyph-name="uni0337" unicode="&#x337;" 
d="M-256 248l256 163v-110l-256 -163v110z" />
    <glyph glyph-name="uni0338" unicode="&#x338;" 
d="M-394 9l311 529l83 -51l-311 -529z" />
    <glyph glyph-name="acute" unicode="&#xb4;" horiz-adv-x="325" 
d="M120 708h153l-124 -158h-97z" />
    <glyph glyph-name="breve" unicode="&#x2d8;" horiz-adv-x="294" 
d="M64.5 596q-31.5 32 -31.5 81h76q0 -19 10 -31t28 -12t28 12t10 31h76q0 -49 -31.5 -81t-82.5 -32t-82.5 32z" />
    <glyph glyph-name="caron" unicode="&#x2c7;" horiz-adv-x="408" 
d="M46 707h99l59 -60l59 60h99l-113 -157h-90z" />
    <glyph glyph-name="cedilla" unicode="&#xb8;" horiz-adv-x="295" 
d="M84.5 -188q-24.5 16 -31.5 45l66 17q4 -22 28 -22q11 0 18 6.5t7 18.5q0 14 -7.5 21.5t-20.5 7.5q-14 0 -24 -4.5t-21 -13.5l-37 33l33 95h70l-41 -69q17 9 40 9q35 0 56.5 -22t21.5 -56q0 -38 -27.5 -60t-67.5 -22q-38 0 -62.5 16z" />
    <glyph glyph-name="circumflex" unicode="&#x2c6;" horiz-adv-x="408" 
d="M159 707h90l113 -157h-99l-59 60l-59 -60h-99z" />
    <glyph glyph-name="dieresis" unicode="&#xa8;" horiz-adv-x="414" 
d="M58 700h118v-124h-118v124zM238 700h118v-124h-118v124z" />
    <glyph glyph-name="dotaccent" unicode="&#x2d9;" horiz-adv-x="250" 
d="M56 700h138v-132h-138v132z" />
    <glyph glyph-name="grave" unicode="`" horiz-adv-x="325" 
d="M52 708h153l68 -158h-97z" />
    <glyph glyph-name="hungarumlaut" unicode="&#x2dd;" horiz-adv-x="516" 
d="M121 708h153l-124 -158h-97zM310 708h153l-124 -158h-97z" />
    <glyph glyph-name="macron" unicode="&#xaf;" horiz-adv-x="328" 
d="M40 682h248v-94h-248v94z" />
    <glyph glyph-name="ogonek" unicode="&#x2db;" horiz-adv-x="224" 
d="M62.5 -173q-34.5 25 -34.5 69q0 36 21 65.5t56 50.5l95 -12q-32 -18 -52 -38t-20 -40q0 -18 11.5 -28t29.5 -10q9 0 22 2l11 -77q-26 -7 -60 -7q-45 0 -79.5 25z" />
    <glyph glyph-name="ring" unicode="&#x2da;" horiz-adv-x="274" 
d="M69 567.5q-28 27.5 -28 67.5t28 67.5t68 27.5t68 -27.5t28 -67.5t-28 -67.5t-68 -27.5t-68 27.5zM161 610q9 9 9 25t-9 25t-24 9t-24 -9t-9 -25t9 -25t24 -9t24 9z" />
    <glyph glyph-name="tilde" unicode="&#x2dc;" horiz-adv-x="470" 
d="M256 561q-22 11 -47 31q-14 12 -24.5 18t-22.5 6q-10 0 -16.5 -6t-6.5 -16q0 -12 7 -26l-74 -15q-6 9 -10 24t-4 29q0 43 30 67t68 24q36 0 58 -11t47 -31q14 -12 24.5 -18t22.5 -6q10 0 16.5 6t6.5 16q0 12 -7 26l74 15q6 -9 10 -24t4 -29q0 -43 -30 -67t-68 -24
q-36 0 -58 11z" />
    <glyph glyph-name="uni0308.cap" 
d="M-298 904h118v-124h-118v124zM-118 904h118v-124h-118v124z" />
    <glyph glyph-name="uni0307.cap" 
d="M-138 904h138v-132h-138v132z" />
    <glyph glyph-name="gravecomb.cap" 
d="M-221 912h153l68 -158h-97z" />
    <glyph glyph-name="acutecomb.cap" 
d="M-153 912h153l-124 -158h-97z" />
    <glyph glyph-name="uni030B.cap" 
d="M-342 912h153l-124 -158h-97zM-153 912h153l-124 -158h-97z" />
    <glyph glyph-name="uni0302.cap" 
d="M-203 911h90l113 -157h-99l-59 60l-59 -60h-99z" />
    <glyph glyph-name="uni030C.cap" 
d="M-316 911h99l59 -60l59 60h99l-113 -157h-90z" />
    <glyph glyph-name="uni0306.cap" 
d="M-196.5 800q-31.5 32 -31.5 81h76q0 -19 10 -31t28 -12t28 12t10 31h76q0 -49 -31.5 -81t-82.5 -32t-82.5 32z" />
    <glyph glyph-name="uni030A.cap" 
d="M-164 771.5q-28 27.5 -28 67.5t28 67.5t68 27.5t68 -27.5t28 -67.5t-28 -67.5t-68 -27.5t-68 27.5zM-72 814q9 9 9 25t-9 25t-24 9t-24 -9t-9 -25t9 -25t24 -9t24 9z" />
    <glyph glyph-name="tildecomb.cap" 
d="M-156 765q-22 11 -47 31q-14 12 -24.5 18t-22.5 6q-10 0 -16.5 -6t-6.5 -16q0 -12 7 -26l-74 -15q-6 9 -10 24t-4 29q0 43 30 67t68 24q36 0 58 -11t47 -31q14 -12 24.5 -18t22.5 -6q10 0 16.5 6t6.5 16q0 12 -7 26l74 15q6 -9 10 -24t4 -29q0 -43 -30 -67t-68 -24
q-36 0 -58 11z" />
    <glyph glyph-name="uni0304.cap" 
d="M-248 886h248v-94h-248v94z" />
    <glyph glyph-name="uni0328.cap" 
d="M-139.5 -173q-34.5 25 -34.5 69q0 36 21 65.5t56 50.5l95 -12q-32 -18 -52 -38t-20 -40q0 -18 11.5 -28t29.5 -10q9 0 22 2l11 -77q-26 -7 -60 -7q-45 0 -79.5 25z" />
    <glyph glyph-name="uni0337.cap" 
d="M-363 250l363 231v-122l-363 -231v122z" />
    <glyph glyph-name="uni0338.cap" 
d="M-502 -6l404 768l98 -56l-404 -768z" />
    </font>
</defs>
</svg>
